<svg width="200" height="60" viewBox="0 0 200 60" fill="none" xmlns="http://www.w3.org/2000/svg">
<path d="M185.891 0H12.4954C12.0439 0 11.5923 0 11.1361 0.0188149C10.1414 0.0314259 9.14912 0.120273 8.16802 0.284575C7.1856 0.448045 6.2339 0.760522 5.34578 1.21121C4.46014 1.66441 3.65075 2.25321 2.94688 2.95629C2.24473 3.65914 1.65956 4.4698 1.21356 5.35754C0.762942 6.24568 0.450469 7.19738 0.286927 8.17978C0.122368 9.15848 0.0335176 10.1484 0.0211668 11.1408C0 11.5947 0 12.0486 0 12.5025V47.5076C0 47.978 0 48.4131 0.0211668 48.874C0.0333781 49.8672 0.122229 50.8579 0.286927 51.8374C0.450326 52.8198 0.762806 53.7715 1.21356 54.6596C1.66139 55.5452 2.24995 56.3521 2.95629 57.0491C3.65687 57.7567 4.46689 58.3467 5.35519 58.7966C6.24349 59.2497 7.19486 59.5669 8.17742 59.7373C9.15648 59.8886 10.1454 59.9672 11.1361 59.9725C11.5923 59.9725 12.0439 59.9889 12.4954 59.9889H187.495C187.947 59.9889 188.41 59.9889 188.862 59.9725C189.854 59.9597 190.844 59.8724 191.823 59.7114C192.805 59.5387 193.756 59.2217 194.645 58.7707C195.531 58.3215 196.34 57.7322 197.039 57.0256C197.745 56.3263 198.335 55.5199 198.789 54.6361C199.237 53.7476 199.546 52.7959 199.706 51.8139C199.87 50.8342 199.962 49.8437 199.981 48.8505C199.981 48.3802 199.981 47.9451 199.981 47.4841C199.981 46.9479 199.981 46.4116 199.981 45.866V14.1112C199.981 13.5679 199.981 13.0293 199.981 12.4931C199.981 12.0392 199.981 11.5853 199.981 11.1314C199.962 10.1374 199.87 9.14613 199.706 8.16567C199.546 7.18371 199.236 6.232 198.789 5.34343C197.873 3.56754 196.425 2.12262 194.647 1.21121C193.758 0.762602 192.807 0.450231 191.825 0.284575C190.843 0.119966 189.85 0.0318978 188.855 0.0211668C188.403 0.0211668 187.94 0.00470372 187.488 0.00235186L185.891 0Z" fill="#C0C1C1"/>
<path d="M12.5047 58.7046C12.0531 58.7046 11.6109 58.7046 11.1641 58.6882C10.2369 58.6778 9.31164 58.5992 8.39595 58.453C7.54281 58.3047 6.71624 58.0313 5.94296 57.6416C5.17803 57.2533 4.48012 56.7451 3.87567 56.1364C3.26222 55.5335 2.75141 54.8344 2.36342 54.0668C1.97232 53.2949 1.70185 52.4676 1.56144 51.6138C1.41245 50.696 1.33383 49.7683 1.32625 48.8386C1.32625 48.5258 1.30273 47.4863 1.30273 47.4863V12.5023C1.30273 12.5023 1.31685 11.4792 1.32625 11.1782C1.33412 10.2501 1.41274 9.32389 1.56144 8.40771C1.70231 7.55067 1.97356 6.72025 2.36578 5.94531C2.75222 5.17914 3.25968 4.48029 3.86862 3.87567C4.47665 3.26295 5.17651 2.74877 5.94296 2.35166C6.7146 1.96547 7.53992 1.6975 8.39125 1.55674C9.30987 1.40869 10.2384 1.33007 11.1688 1.32155L12.5047 1.30273H187.483L188.836 1.32155C189.757 1.33094 190.677 1.40956 191.587 1.55674C192.447 1.70353 193.281 1.97697 194.061 2.36813C195.598 3.16095 196.847 4.41413 197.636 5.95237C198.023 6.7211 198.29 7.5443 198.429 8.3936C198.582 9.31749 198.669 10.2513 198.687 11.1876V12.5047V14.1227V45.8823V47.4745V48.8503C198.669 49.7701 198.585 50.6873 198.436 51.595C198.297 52.4548 198.027 53.2883 197.636 54.0668C197.245 54.8257 196.737 55.5185 196.131 56.1199C195.526 56.7322 194.827 57.2429 194.059 57.6322C193.281 58.0259 192.449 58.301 191.59 58.4483C190.674 58.5954 189.749 58.674 188.821 58.6835C188.389 58.6835 187.935 58.6999 187.493 58.6999H12.5047V58.7046Z" fill="black"/>
<path d="M74.1763 40.5508H67.2359L65.5379 45.1957H62.4805L69.275 27.8555H72.1607L79.1128 45.1957H75.9119L74.1763 40.5508ZM68.1108 38.199H73.2849L71.4293 33.2318C71.1753 32.5482 70.9244 31.7909 70.6767 30.9599C70.4525 31.6937 70.2095 32.4432 69.9476 33.2083L68.1108 38.199Z" fill="white"/>
<path d="M80.4954 35.4426C80.4954 34.4861 80.4641 33.4325 80.4014 32.2817H83.1766C83.2804 32.8258 83.3526 33.3755 83.3929 33.928C84.5406 32.6736 85.8569 32.0465 87.3417 32.0465C88.2274 32.0323 89.0971 32.2825 89.8399 32.7651C90.5827 33.2477 91.1647 33.9408 91.5116 34.7558C91.9631 35.6966 92.1889 36.8874 92.1889 38.3283C92.2253 39.6582 91.9608 40.9791 91.4151 42.1924C90.956 43.2008 90.2036 44.0474 89.2561 44.6219C88.2825 45.1856 87.173 45.4719 86.0482 45.4497C85.167 45.4475 84.2925 45.2972 83.4611 45.0052V50.3298L80.5048 50.5815L80.4954 35.4426ZM88.2683 42.0419C88.8704 41.2328 89.1715 40.0499 89.1715 38.4929C89.1715 37.0489 88.9222 36.0023 88.4236 35.3532C88.1957 35.041 87.8953 34.789 87.5482 34.6189C87.2011 34.4489 86.8179 34.3659 86.4315 34.3772C85.8746 34.3731 85.3261 34.5133 84.8393 34.784C84.3258 35.0768 83.8582 35.4437 83.4517 35.8729V42.7898C83.7802 42.9444 84.126 43.0589 84.4818 43.1308C84.8628 43.2137 85.2515 43.2555 85.6413 43.2554C86.7922 43.2554 87.6678 42.8509 88.2683 42.0419Z" fill="white"/>
<path d="M94.0749 35.4426C94.0749 34.4862 94.0428 33.4325 93.9785 32.2817H96.7561C96.8603 32.8257 96.9317 33.3754 96.9701 33.928C98.1209 32.6737 99.4372 32.0465 100.919 32.0465C101.805 32.0319 102.675 32.2818 103.418 32.7645C104.162 33.2471 104.744 33.9405 105.091 34.7559C105.539 35.6966 105.764 36.8874 105.766 38.3283C105.803 39.658 105.54 40.9789 104.995 42.1924C104.535 43.201 103.781 44.0476 102.833 44.6219C101.861 45.1859 100.752 45.4723 99.6277 45.4498C98.7465 45.4475 97.872 45.2973 97.0406 45.0053V50.3299L94.0749 50.5909V35.4426ZM101.848 42.0419C102.45 41.2329 102.751 40.0499 102.751 38.493C102.751 37.0489 102.502 36.0023 102.003 35.3532C101.775 35.041 101.475 34.789 101.128 34.619C100.781 34.4489 100.397 34.3659 100.011 34.3772C99.4541 34.3729 98.9055 34.5131 98.4188 34.7841C97.9048 35.0762 97.4372 35.4432 97.0312 35.873V42.7898C97.359 42.9441 97.704 43.0586 98.059 43.1308C98.4407 43.2137 98.8302 43.2555 99.2208 43.2555C100.375 43.2555 101.252 42.851 101.853 42.0419H101.848Z" fill="white"/>
<path d="M111.347 44.3745C110.083 43.682 109.057 42.6248 108.403 41.3406C107.718 40.0236 107.375 38.4682 107.375 36.6745C107.375 34.7272 107.767 33.0738 108.551 31.7145C109.298 30.3976 110.421 29.3332 111.775 28.657C113.199 27.9604 114.767 27.6099 116.352 27.634C117.313 27.6303 118.272 27.7408 119.207 27.9632C120.081 28.171 120.93 28.4738 121.738 28.8663L120.983 31.1406C119.586 30.4335 118.049 30.0493 116.484 30.0164C115.379 29.9912 114.287 30.2573 113.318 30.7878C112.4 31.3132 111.663 32.1034 111.201 33.055C110.671 34.1845 110.414 35.4226 110.449 36.6698C110.428 37.7943 110.625 38.9122 111.027 39.9624C111.391 40.8901 112.031 41.6838 112.86 42.2367C113.692 42.7933 114.743 43.0724 116.011 43.0739C116.589 43.0742 117.165 43.0262 117.735 42.9305C118.285 42.8412 118.826 42.701 119.351 42.5119V38.9958H115.353V36.6886H122.232V43.9794C121.234 44.4448 120.189 44.802 119.115 45.0448C118.049 45.2889 116.959 45.4127 115.865 45.4141C114.295 45.4584 112.74 45.1006 111.347 44.3745Z" fill="white"/>
<path d="M132.881 45.1955C132.769 44.6308 132.702 44.0584 132.678 43.4833C132.183 44.0573 131.579 44.5273 130.9 44.8662C130.135 45.2529 129.286 45.4474 128.429 45.433C127.729 45.4417 127.036 45.293 126.401 44.9979C125.797 44.7125 125.291 44.2541 124.948 43.6809C124.573 43.0289 124.388 42.2852 124.414 41.5336C124.392 40.9632 124.503 40.3955 124.737 39.8752C124.972 39.3548 125.324 38.8961 125.766 38.535C126.668 37.7902 128.171 37.4171 130.277 37.4155C131.064 37.4148 131.85 37.4714 132.629 37.5848V37.3332C132.629 36.1918 132.386 35.3874 131.9 34.9202C131.414 34.453 130.715 34.2178 129.804 34.2146C129.121 34.2219 128.442 34.3143 127.782 34.4898C127.135 34.6496 126.505 34.8701 125.9 35.1483L125.43 32.994C126.102 32.7078 126.799 32.4872 127.514 32.3355C128.409 32.1321 129.324 32.0319 130.242 32.0368C131.215 32.0104 132.184 32.1833 133.088 32.5448C133.883 32.8962 134.531 33.5142 134.92 34.2922C135.359 35.117 135.578 36.2278 135.578 37.6248V42.7589C135.578 43.2928 135.609 44.1019 135.675 45.1884L132.881 45.1955ZM131.117 42.8036C131.687 42.5405 132.2 42.1664 132.624 41.703V39.3064C131.969 39.2286 131.311 39.1847 130.651 39.1747C129.431 39.1747 128.588 39.3723 128.12 39.7674C127.889 39.9619 127.704 40.2071 127.582 40.4839C127.46 40.7607 127.403 41.0619 127.415 41.3643C127.415 42.004 127.584 42.4744 127.923 42.7754C128.307 43.1029 128.802 43.2712 129.306 43.2458C129.935 43.2371 130.554 43.0859 131.117 42.8036Z" fill="white"/>
<path d="M138.153 42.098V26.8367L141.098 26.6016V41.5712C141.098 42.1215 141.191 42.5135 141.378 42.7471C141.491 42.8681 141.63 42.9617 141.785 43.0207C141.94 43.0798 142.106 43.1029 142.271 43.0881C142.534 43.075 142.795 43.0308 143.048 42.9564L143.396 45.0731C143.065 45.1972 142.722 45.287 142.373 45.3412C141.995 45.4069 141.613 45.4407 141.23 45.4423C139.179 45.4361 138.153 44.3213 138.153 42.098Z" fill="white"/>
<path d="M145.515 42.098V26.8367L148.457 26.6016V41.5712C148.457 42.1215 148.551 42.5135 148.739 42.7471C148.852 42.8682 148.991 42.9618 149.145 43.021C149.3 43.0801 149.466 43.103 149.63 43.0881C149.894 43.0748 150.155 43.0306 150.409 42.9564L150.755 45.0731C150.424 45.1975 150.081 45.2874 149.732 45.3412C149.354 45.4069 148.972 45.4407 148.589 45.4423C146.538 45.4361 145.513 44.3213 145.515 42.098Z" fill="white"/>
<path d="M163.011 39.116H154.56C154.697 41.8207 155.986 43.173 158.427 43.173C159.053 43.1698 159.677 43.0956 160.287 42.9519C160.911 42.8073 161.522 42.609 162.112 42.3592L162.759 44.3818C161.237 45.0999 159.571 45.4596 157.888 45.4331C156.516 45.4331 155.359 45.1744 154.417 44.657C153.493 44.1518 152.753 43.3684 152.3 42.418C151.799 41.3114 151.557 40.1046 151.595 38.8902C151.561 37.6204 151.818 36.3597 152.347 35.2049C152.802 34.2322 153.532 33.4144 154.447 32.853C155.387 32.2991 156.462 32.0174 157.552 32.0393C158.772 32.0393 159.791 32.3246 160.609 32.8953C161.424 33.4622 162.056 34.2541 162.427 35.1743C162.831 36.1785 163.029 37.2532 163.011 38.3352V39.116ZM160.125 37.2345C160.071 36.2044 159.81 35.433 159.349 34.918C159.114 34.6618 158.827 34.4601 158.506 34.3268C158.186 34.1935 157.84 34.132 157.493 34.1465C157.142 34.136 156.793 34.1999 156.469 34.3341C156.145 34.4683 155.852 34.6697 155.612 34.925C155.113 35.4424 154.788 36.2123 154.636 37.2345H160.125Z" fill="white"/>
<path d="M165.391 35.5247C165.391 34.8145 165.36 33.7334 165.297 32.2815H168.06C168.11 32.6414 168.154 33.0694 168.199 33.568C168.244 34.0666 168.272 34.4735 168.288 34.7839C168.585 34.28 168.924 33.8017 169.3 33.354C169.625 32.9718 170.018 32.6528 170.459 32.4132C170.924 32.1639 171.446 32.0383 171.974 32.0487C172.371 32.0408 172.766 32.0891 173.15 32.1922L172.778 34.7533C172.468 34.6615 172.145 34.6171 171.821 34.6216C171.174 34.6074 170.538 34.793 170.001 35.1531C169.354 35.6421 168.792 36.234 168.338 36.9053V45.2003H165.391V35.5247Z" fill="white"/>
<path d="M174.918 50.4776C174.557 50.4189 174.202 50.3332 173.854 50.2213L174.391 48.067C174.591 48.121 174.842 48.1751 175.146 48.2269C175.43 48.2776 175.718 48.3044 176.006 48.3068C177.314 48.3068 178.296 47.4649 178.951 45.7809L179.141 45.3106L174.379 32.2907H177.552L179.943 39.5673C180.255 40.5037 180.507 41.4589 180.698 42.4272C180.921 41.4864 181.184 40.5528 181.489 39.6261L183.916 32.2812H186.893L182.145 45.3623C181.788 46.416 181.302 47.4209 180.696 48.3539C180.233 49.0597 179.602 49.6392 178.859 50.0402C178.064 50.4267 177.187 50.6155 176.303 50.5905C175.839 50.5927 175.375 50.5549 174.918 50.4776Z" fill="white"/>
<path d="M62.4707 10.9873H67.8024L67.6519 12.2738H64.0323V14.7667H67.4449V15.9733H64.0323V18.7367H67.8447L67.713 20.0349H62.4707V10.9873Z" fill="white"/>
<path d="M71.4757 15.4182L68.6746 10.9873H70.4503L72.3553 14.2423L74.3614 10.9873H76.0877L73.2984 15.3618L76.3182 20.0349H74.5073L72.3506 16.4742L70.1563 20.0349H68.4395L71.4757 15.4182Z" fill="white"/>
<path d="M77.457 10.9873H79.8936C81.0397 10.9873 81.9169 11.2225 82.5253 11.6929C83.1336 12.1632 83.437 12.8382 83.4355 13.7178C83.4462 14.2691 83.3029 14.8123 83.0215 15.2865C82.7482 15.7324 82.3522 16.09 81.8809 16.3166C81.3554 16.5639 80.7799 16.6863 80.1993 16.6741C79.8044 16.6676 79.4109 16.6259 79.0234 16.5495V20.0349H77.4617L77.457 10.9873ZM81.3752 15.0278C81.546 14.8638 81.679 14.6647 81.7651 14.4442C81.8512 14.2236 81.8883 13.987 81.8738 13.7507C81.8738 13.191 81.7045 12.7888 81.3658 12.5442C81.0272 12.2973 80.5262 12.175 79.8677 12.175H79.0234V15.3876C79.321 15.4402 79.622 15.4717 79.9241 15.4817C80.4474 15.5154 80.9644 15.3536 81.3752 15.0278Z" fill="white"/>
<path d="M84.9805 10.9873H86.5492V18.6991H90.2933L90.1616 20.0349H84.9875L84.9805 10.9873Z" fill="white"/>
<path d="M92.6642 19.5931C92.0106 19.224 91.4824 18.6679 91.1473 17.9962C90.7832 17.2533 90.6025 16.4339 90.6205 15.6067C90.6011 14.7395 90.7932 13.8806 91.1802 13.1043C91.5422 12.4072 92.1039 11.834 92.7936 11.458C93.5579 11.0542 94.413 10.8534 95.2772 10.8747C96.0971 10.8526 96.9084 11.0473 97.629 11.4392C98.2791 11.8077 98.8041 12.3622 99.1366 13.0314C99.4949 13.7702 99.6722 14.5836 99.654 15.4044C99.6756 16.2814 99.4818 17.1503 99.0895 17.935C98.7281 18.6317 98.1672 19.2049 97.4785 19.5813C96.7213 19.9834 95.8732 20.1834 95.0161 20.1623C94.1958 20.1822 93.3847 19.9859 92.6642 19.5931ZM96.7142 18.483C97.1541 18.1856 97.4955 17.764 97.6949 17.2718C97.92 16.7107 98.0304 16.1101 98.0194 15.5056C98.0298 14.9136 97.9326 14.3247 97.7325 13.7675C97.5553 13.2802 97.2357 12.8574 96.8153 12.554C96.3353 12.2343 95.7663 12.0754 95.1901 12.1001C94.6178 12.0821 94.0541 12.2424 93.5768 12.5587C93.1352 12.8664 92.7908 13.294 92.5843 13.7911C92.3584 14.33 92.2456 14.9095 92.2527 15.4938C92.2424 16.0934 92.3486 16.6892 92.5655 17.2483C92.7549 17.7426 93.0873 18.1692 93.5203 18.4736C93.9918 18.7867 94.5493 18.9446 95.1149 18.9252C95.6788 18.9416 96.2345 18.7875 96.7094 18.483H96.7142Z" fill="white"/>
<path d="M101.396 10.9873H104.219C105.25 10.9873 106.034 11.1935 106.571 11.6058C106.835 11.8157 107.045 12.0858 107.184 12.3934C107.322 12.7011 107.386 13.0374 107.368 13.3744C107.377 13.8133 107.278 14.2477 107.081 14.6397C106.908 14.9812 106.668 15.2843 106.375 15.5311C106.113 15.7469 105.817 15.92 105.5 16.0438L108.28 20.042H106.469L104.118 16.4554H102.968V20.0349H101.406L101.396 10.9873ZM103.845 15.2677C104.193 15.2752 104.538 15.1994 104.851 15.0466C105.134 14.9076 105.371 14.6905 105.533 14.421C105.698 14.1354 105.779 13.8096 105.769 13.4803C105.784 13.2915 105.753 13.1018 105.678 12.9279C105.603 12.754 105.486 12.6013 105.338 12.4831C104.963 12.2494 104.524 12.1392 104.082 12.1679H102.951V15.2677H103.845Z" fill="white"/>
<path d="M109.515 10.9873H114.844L114.693 12.2738H111.076V14.7667H114.486V15.9733H111.076V18.7367H114.889L114.757 20.0349H109.515V10.9873Z" fill="white"/>
<path d="M120.651 10.9873H122.215V20.0349H120.651V10.9873Z" fill="white"/>
<path d="M126.335 12.2926H123.529L123.668 10.9873H130.71L130.566 12.2926H127.897V20.0349H126.335V12.2926Z" fill="white"/>
<path d="M137.488 19.593C136.836 19.2224 136.308 18.6667 135.971 17.9961C135.608 17.253 135.428 16.4336 135.447 15.6066C135.426 14.7393 135.618 13.8801 136.007 13.1042C136.367 12.4068 136.928 11.8333 137.618 11.4579C138.382 11.0546 139.237 10.8538 140.101 10.8747C140.921 10.8532 141.732 11.0478 142.453 11.4391C143.102 11.8078 143.627 12.3623 143.958 13.0313C144.317 13.7699 144.495 14.5833 144.478 15.4043C144.5 16.2816 144.305 17.1508 143.911 17.9349C143.55 18.6321 142.989 19.2055 142.3 19.5812C141.544 19.984 140.697 20.1849 139.84 20.1645C139.02 20.1837 138.208 19.9866 137.488 19.593ZM141.538 18.4829C141.98 18.186 142.323 17.7644 142.524 17.2717C142.749 16.7106 142.859 16.11 142.848 15.5055C142.858 14.9134 142.76 14.3245 142.559 13.7674C142.383 13.2792 142.063 12.856 141.642 12.5539C141.162 12.2336 140.593 12.0746 140.016 12.1C139.444 12.0823 138.881 12.2425 138.403 12.5586C137.962 12.8663 137.617 13.2939 137.411 13.791C137.185 14.3299 137.072 14.9094 137.079 15.4937C137.069 16.0933 137.175 16.6891 137.392 17.2482C137.582 17.7426 137.915 18.1692 138.349 18.4735C138.818 18.7861 139.373 18.944 139.937 18.9251C140.503 18.9432 141.061 18.789 141.538 18.4829Z" fill="white"/>
<path d="M146.226 10.9875H148.02L152.489 17.9984C152.451 17.3321 152.432 16.7174 152.432 16.1546V10.9805H153.883V20.0351H152.145L147.608 12.9113C147.652 13.7204 147.675 14.4369 147.677 15.0609V20.0351H146.226V10.9875Z" fill="white"/>
<path fill-rule="evenodd" clip-rule="evenodd" d="M40.5345 10.915H23.8363C15.9716 10.915 13.0977 13.7914 13.0977 21.6536V38.3519C13.0977 46.2141 15.9716 49.0905 23.8363 49.0905H40.5345C48.3968 49.0905 51.2778 46.2141 51.2778 38.3519V21.6536C51.2707 13.7914 48.3968 10.915 40.5345 10.915Z" fill="#C8102E"/>
<path d="M20.6606 30.0035H21.6742V34.9942H20.6606V32.9669H18.3746V34.9942H17.3633V30.0035H18.3746V32.0167H20.6606V30.0035ZM26.3662 32.8611C26.3662 33.6725 25.9617 34.1052 25.2303 34.1052C24.4988 34.1052 24.0896 33.6607 24.0896 32.8258V30.0035H23.0783V32.8587C23.0783 34.2698 23.8568 35.0671 25.2185 35.0671C26.5802 35.0671 27.3775 34.2463 27.3775 32.8164V29.9941H26.3662V32.8611ZM38.0667 33.4349L36.9355 30.0035H36.1076L34.974 33.4349L33.8663 30.0059H32.7868L34.5272 34.9942H35.3644L36.5004 31.7181L37.634 34.9942H38.4806L40.2163 30.0059H39.1674L38.0667 33.4349ZM42.0367 32.847H43.8782V31.9391H42.0367V30.9161H44.7107V30.0083H41.0371V34.9918H44.8001V34.0817H42.0367V32.847ZM46.0137 34.9871H47.0132V30.0035H46.0137V34.9871ZM29.3789 33.9523L28.9274 34.9918H27.8926L30.0916 30.0035H30.9853L33.1748 34.9918H32.1142L31.665 33.9523H29.3789ZM29.7552 33.0539H31.2792L30.5102 31.2665L29.7552 33.0539Z" fill="white"/>
<path d="M32.1869 23.6508C30.5028 23.6508 28.8877 22.9818 27.6968 21.7909C26.5059 20.6001 25.8369 18.9849 25.8369 17.3008H26.7353C26.7203 18.0267 26.8502 18.7483 27.1176 19.4234C27.385 20.0984 27.7844 20.7133 28.2924 21.232C28.8005 21.7507 29.4069 22.1628 30.0763 22.4441C30.7456 22.7255 31.4644 22.8704 32.1905 22.8704C32.9165 22.8704 33.6353 22.7255 34.3046 22.4441C34.974 22.1628 35.5805 21.7507 36.0885 21.232C36.5966 20.7133 36.996 20.0984 37.2634 19.4234C37.5307 18.7483 37.6607 18.0267 37.6456 17.3008H38.544C38.544 18.1353 38.3795 18.9616 38.06 19.7325C37.7404 20.5033 37.2721 21.2037 36.6817 21.7934C36.0912 22.3832 35.3904 22.8508 34.6192 23.1695C33.8479 23.4882 33.0214 23.6517 32.1869 23.6508Z" fill="white"/>
</svg>
