<svg width="179" height="60" viewBox="0 0 179 60" fill="none" xmlns="http://www.w3.org/2000/svg">
<path fill-rule="evenodd" clip-rule="evenodd" d="M164.746 0H14.2616C13.7141 0 13.1711 0 12.6251 0.003C12.1659 0.006 11.7126 0.015 11.2504 0.0225C10.2542 0.0465 9.24596 0.108 8.2527 0.2865C7.25047 0.4635 6.32004 0.7635 5.40906 1.227C4.51303 1.6875 3.69479 2.2845 2.98725 2.9955C2.27222 3.7065 1.67836 4.53 1.22512 5.427C0.759901 6.3405 0.465215 7.278 0.290198 8.2815C0.109198 9.276 0.0478678 10.281 0.022438 11.2845C0.00897521 11.745 0.00747934 12.207 0 12.666V14.304V45.6975V47.3385C0.00747934 47.8035 0.00897521 48.255 0.022438 48.72C0.0478678 49.725 0.109198 50.73 0.290198 51.723C0.465215 52.728 0.759901 53.67 1.22512 54.5805C1.67836 55.473 2.27222 56.2965 2.98725 57.0015C3.69479 57.7185 4.51303 58.314 5.40906 58.77C6.32004 59.238 7.25047 59.5335 8.2527 59.7165C9.24596 59.895 10.2542 59.9535 11.2504 59.9805C11.7126 59.991 12.1659 59.997 12.6251 59.997C13.1711 60 13.7141 60 14.2616 60H164.746C165.284 60 165.83 60 166.367 59.997C166.825 59.997 167.292 59.991 167.748 59.9805C168.75 59.9535 169.756 59.895 170.74 59.7165C171.742 59.5335 172.672 59.238 173.594 58.77C174.487 58.314 175.305 57.7185 176.013 57.0015C176.725 56.2965 177.317 55.473 177.779 54.5805C178.239 53.67 178.538 52.728 178.705 51.723C178.891 50.73 178.948 49.725 178.985 48.72C178.988 48.255 178.988 47.8035 178.988 47.3385C179 46.7925 179 46.251 179 45.6975V14.304C179 13.755 179 13.2105 178.988 12.666C178.988 12.207 178.988 11.745 178.985 11.2845C178.948 10.281 178.891 9.276 178.705 8.2815C178.538 7.278 178.239 6.3405 177.779 5.427C177.317 4.53 176.725 3.7065 176.013 2.9955C175.305 2.2845 174.487 1.6875 173.594 1.227C172.672 0.7635 171.742 0.4635 170.74 0.2865C169.756 0.108 168.75 0.0465 167.748 0.0225C167.292 0.015 166.825 0.006 166.367 0.003C165.83 0 165.284 0 164.746 0Z" fill="#9AA1A9"/>
<path fill-rule="evenodd" clip-rule="evenodd" d="M12.6314 58.6875C12.1752 58.6875 11.7309 58.6815 11.2791 58.671C10.4429 58.6485 9.45118 58.6005 8.48336 58.4265C7.56938 58.2615 6.75862 57.9915 6.0047 57.6045C5.22386 57.2085 4.52379 56.6955 3.91498 56.0805C3.29569 55.47 2.7856 54.771 2.3877 53.985C2.00027 53.2275 1.7355 52.4145 1.57544 51.4995C1.39294 50.49 1.34657 49.467 1.32713 48.687C1.31815 48.3705 1.30469 47.3175 1.30469 47.3175V12.666C1.30469 12.666 1.31815 11.6295 1.32713 11.325C1.34657 10.539 1.39294 9.516 1.57394 8.517C1.734 7.596 2.00027 6.783 2.3877 6.024C2.7841 5.2365 3.29419 4.533 3.906 3.927C4.52529 3.306 5.22835 2.7915 6.00321 2.3925C6.77208 2.001 7.58284 1.734 8.47737 1.5765C9.48409 1.3965 10.5058 1.35 11.2821 1.3305L12.6314 1.3125H166.36L167.726 1.332C168.492 1.35 169.513 1.3965 170.505 1.575C171.407 1.734 172.223 2.0025 173.005 2.397C173.774 2.7915 174.474 3.306 175.087 3.921C175.7 4.53 176.212 5.238 176.617 6.027C177.003 6.7935 177.267 7.6065 177.419 8.5005C177.591 9.447 177.645 10.419 177.678 11.331C177.682 11.7555 177.682 12.213 177.682 12.666C177.696 13.2285 177.696 13.764 177.696 14.304V45.6975C177.696 46.242 177.696 46.7745 177.682 47.31C177.682 47.7975 177.682 48.2445 177.676 48.705C177.645 49.5885 177.591 50.559 177.421 51.4845C177.267 52.4055 177.003 53.2185 176.613 53.9895C176.212 54.7695 175.697 55.473 175.095 56.0685C174.475 56.6955 173.775 57.207 173.002 57.6015C172.224 57.9975 171.433 58.26 170.505 58.4265C169.548 58.6005 168.556 58.6485 167.709 58.671C167.273 58.6815 166.812 58.6875 166.366 58.6875L164.745 58.6905L12.6314 58.6875Z" fill="#000E23"/>
<path fill-rule="evenodd" clip-rule="evenodd" d="M37.0505 30.4529C37.0131 26.3263 40.4192 24.3193 40.5748 24.2248C38.6466 21.4033 35.6548 21.0178 34.6047 20.9878C32.0931 20.7238 29.6578 22.4953 28.3773 22.4953C27.0729 22.4953 25.1028 21.0148 22.9802 21.0583C20.2487 21.1003 17.6907 22.6873 16.2891 25.1503C13.396 30.1724 15.5531 37.554 18.325 41.6131C19.7117 43.6036 21.3317 45.8236 23.4529 45.7441C25.5277 45.6586 26.3025 44.4181 28.8067 44.4181C31.2883 44.4181 32.0153 45.7441 34.1784 45.6946C36.4043 45.6586 37.8074 43.6966 39.1447 41.6896C40.7483 39.411 41.3916 37.167 41.417 37.0515C41.3646 37.0335 37.0924 35.4 37.0505 30.4529Z" fill="#FFFEFE"/>
<path fill-rule="evenodd" clip-rule="evenodd" d="M32.964 18.3167C34.08 16.9171 34.8429 15.0136 34.632 13.0801C33.0164 13.1521 30.997 14.2006 29.8331 15.5701C28.804 16.7761 27.884 18.7547 28.1219 20.6117C29.9364 20.7482 31.8002 19.6937 32.964 18.3167Z" fill="#FFFEFE"/>
<path fill-rule="evenodd" clip-rule="evenodd" d="M56.9307 38.3835H62.5432L59.7758 30.2129H59.6996L56.9307 38.3835ZM63.2791 40.7075H56.1991L54.4983 45.7415H51.499L58.2066 27.1143H61.3225L68.0286 45.7415H64.9785L63.2791 40.7075Z" fill="#FFFFFE"/>
<path fill-rule="evenodd" clip-rule="evenodd" d="M79.6529 38.9526C79.6529 36.203 78.2363 34.3955 76.0732 34.3955C73.949 34.3955 72.5205 36.2405 72.5205 38.9526C72.5205 41.6886 73.949 43.5216 76.0732 43.5216C78.2363 43.5216 79.6529 41.7276 79.6529 38.9526ZM82.5118 38.9536C82.5118 43.1732 80.259 45.8852 76.8604 45.8852C74.9307 45.8852 73.3974 45.0197 72.5986 43.5092H72.5342V50.2353H69.7549V32.163H72.446V34.422H72.4968C73.2687 32.964 74.9172 32.0205 76.8095 32.0205C80.247 32.0205 82.5118 34.7445 82.5118 38.9536Z" fill="#FFFFFE"/>
<path fill-rule="evenodd" clip-rule="evenodd" d="M94.5603 38.9526C94.5603 36.203 93.1437 34.3955 90.9806 34.3955C88.8565 34.3955 87.4279 36.2405 87.4279 38.9526C87.4279 41.6886 88.8565 43.5216 90.9806 43.5216C93.1437 43.5216 94.5603 41.7276 94.5603 38.9526ZM97.419 38.9536C97.419 43.1732 95.1662 45.8852 91.7676 45.8852C89.8379 45.8852 88.3046 45.0197 87.5058 43.5092H87.4415V50.2353H84.6621V32.163H87.3532V34.422H87.4041C88.176 32.964 89.8244 32.0205 91.7167 32.0205C95.1543 32.0205 97.419 34.7445 97.419 38.9536Z" fill="#FFFFFE"/>
<path fill-rule="evenodd" clip-rule="evenodd" d="M107.268 40.5553C107.474 42.4018 109.264 43.6154 111.709 43.6154C114.052 43.6154 115.738 42.4018 115.738 40.7368C115.738 39.2908 114.721 38.4253 112.314 37.8328L109.907 37.2508C106.495 36.4243 104.912 34.8252 104.912 32.2287C104.912 29.0156 107.705 26.8076 111.67 26.8076C115.596 26.8076 118.287 29.0156 118.378 32.2287H115.572C115.403 30.3702 113.871 29.2482 111.632 29.2482C109.392 29.2482 107.86 30.3837 107.86 32.0352C107.86 33.3522 108.839 34.1277 111.232 34.7202L113.28 35.2242C117.09 36.1287 118.674 37.6633 118.674 40.3888C118.674 43.8734 115.905 46.0559 111.503 46.0559C107.383 46.0559 104.602 43.9244 104.423 40.5553H107.268Z" fill="#FFFEFE"/>
<path fill-rule="evenodd" clip-rule="evenodd" d="M124.676 28.9502V32.1647H127.252V34.3713H124.676V41.8579C124.676 43.0219 125.192 43.5634 126.324 43.5634C126.607 43.5634 127.059 43.5244 127.238 43.4989V45.6934C126.93 45.7714 126.312 45.8224 125.695 45.8224C122.953 45.8224 121.883 44.7904 121.883 42.1564V34.3713H119.913V32.1647H121.883V28.9502H124.676Z" fill="#FFFEFE"/>
<path fill-rule="evenodd" clip-rule="evenodd" d="M138.756 38.9526C138.756 36.0215 137.416 34.292 135.165 34.292C132.912 34.292 131.573 36.035 131.573 38.9526C131.573 41.8956 132.912 43.6116 135.165 43.6116C137.416 43.6116 138.756 41.8956 138.756 38.9526ZM128.741 38.9537C128.741 34.6802 131.25 31.9951 135.165 31.9951C139.091 31.9951 141.589 34.6802 141.589 38.9537C141.589 43.2378 139.103 45.9123 135.165 45.9123C131.226 45.9123 128.741 43.2378 128.741 38.9537Z" fill="#FFFFFE"/>
<path fill-rule="evenodd" clip-rule="evenodd" d="M143.882 32.165H146.533V34.4765H146.597C147.023 32.9405 148.259 32.0225 149.855 32.0225C150.254 32.0225 150.588 32.075 150.808 32.1275V34.7345C150.588 34.643 150.099 34.5665 149.559 34.5665C147.77 34.5665 146.661 35.78 146.661 37.691V45.7462H143.882V32.165Z" fill="#FFFEFE"/>
<path fill-rule="evenodd" clip-rule="evenodd" d="M154.229 37.7019H161C160.936 35.6229 159.61 34.2549 157.679 34.2549C155.76 34.2549 154.372 35.6499 154.229 37.7019ZM163.626 41.7543C163.252 44.2203 160.859 45.9123 157.795 45.9123C153.855 45.9123 151.409 43.2648 151.409 39.0182C151.409 34.7582 153.868 31.9951 157.678 31.9951C161.426 31.9951 163.782 34.5767 163.782 38.6942V39.6497H154.215V39.8177C154.215 42.1413 155.671 43.6653 157.859 43.6653C159.403 43.6653 160.615 42.9288 160.987 41.7543H163.626Z" fill="#FFFFFE"/>
<path fill-rule="evenodd" clip-rule="evenodd" d="M54.7473 20.7795H56.4302C58.297 20.7795 59.3741 19.6139 59.3741 17.5604C59.3741 15.5384 58.2791 14.3594 56.4302 14.3594H54.7473V20.7795ZM56.5855 13.0957C59.2317 13.0957 60.7844 14.7262 60.7844 17.5433C60.7844 20.4023 59.2437 22.0463 56.5855 22.0463H53.3604V13.0957H56.5855Z" fill="#FFFFFE"/>
<path fill-rule="evenodd" clip-rule="evenodd" d="M67.3269 18.6659C67.3269 17.2021 66.6719 16.3457 65.5202 16.3457C64.3656 16.3457 63.715 17.2021 63.715 18.6659C63.715 20.1416 64.3656 20.9905 65.5202 20.9905C66.6719 20.9905 67.3269 20.1356 67.3269 18.6659ZM62.3438 18.6662C62.3438 16.4881 63.5569 15.1621 65.5225 15.1621C67.4851 15.1621 68.6968 16.4881 68.6968 18.6662C68.6968 20.8547 67.4896 22.1762 65.5225 22.1762C63.5509 22.1762 62.3438 20.8547 62.3438 18.6662Z" fill="#FFFFFE"/>
<path fill-rule="evenodd" clip-rule="evenodd" d="M77.1475 22.0485H75.7683L74.3757 17.0745H74.2709L72.8843 22.0485H71.5185L69.6621 15.2939H71.0099L72.2171 20.448H72.3173L73.701 15.2939H74.977L76.3622 20.448H76.4669L77.6681 15.2939H78.9965L77.1475 22.0485Z" fill="#FFFEFE"/>
<path fill-rule="evenodd" clip-rule="evenodd" d="M80.5557 15.2936H81.8346V16.3661H81.9349C82.2625 15.6161 82.9311 15.1631 83.9453 15.1631C85.4487 15.1631 86.2759 16.0691 86.2759 17.6756V22.0482H84.9476V18.0101C84.9476 16.9241 84.4764 16.3856 83.4936 16.3856C82.5108 16.3856 81.8855 17.0426 81.8855 18.0971V22.0482H80.5557V15.2936Z" fill="#FFFEFE"/>
<path fill-rule="evenodd" clip-rule="evenodd" d="M88.3994 22.0459H89.7293V12.6543H88.3994V22.0459Z" fill="#FFFEFE"/>
<path fill-rule="evenodd" clip-rule="evenodd" d="M96.5565 18.6659C96.5565 17.2021 95.9014 16.3457 94.7498 16.3457C93.5951 16.3457 92.9445 17.2021 92.9445 18.6659C92.9445 20.1416 93.5951 20.9905 94.7498 20.9905C95.9014 20.9905 96.5565 20.1356 96.5565 18.6659ZM91.5732 18.6662C91.5732 16.4881 92.7864 15.1621 94.752 15.1621C96.7146 15.1621 97.9278 16.4881 97.9278 18.6662C97.9278 20.8547 96.7191 22.1762 94.752 22.1762C92.7804 22.1762 91.5732 20.8547 91.5732 18.6662Z" fill="#FFFFFE"/>
<path fill-rule="evenodd" clip-rule="evenodd" d="M103.658 19.5561V18.9922L102.013 19.0972C101.085 19.1587 100.665 19.4751 100.665 20.0705C100.665 20.6794 101.192 21.0319 101.914 21.0319C102.916 21.0319 103.658 20.393 103.658 19.5561ZM99.3252 20.1357C99.3252 18.9192 100.229 18.2187 101.831 18.1197L103.656 18.0132V17.4312C103.656 16.7172 103.186 16.3137 102.277 16.3137C101.535 16.3137 101.02 16.5882 100.873 17.0652H99.5855C99.7216 15.9042 100.811 15.1602 102.338 15.1602C104.027 15.1602 104.98 16.0032 104.98 17.4312V22.0453H103.699V21.0957H103.594C103.192 21.7723 102.456 22.1563 101.571 22.1563C100.272 22.1563 99.3252 21.3702 99.3252 20.1357Z" fill="#FFFFFE"/>
<path fill-rule="evenodd" clip-rule="evenodd" d="M108.101 18.6685C108.101 20.1008 108.774 20.9632 109.9 20.9632C111.02 20.9632 111.713 20.0888 111.713 18.6745C111.713 17.2663 111.013 16.3799 109.9 16.3799C108.781 16.3799 108.101 17.2483 108.101 18.6685ZM106.726 18.6668C106.726 16.5323 107.819 15.1808 109.521 15.1808C110.443 15.1808 111.222 15.6203 111.587 16.3658H111.686V12.6562H113.016V22.0464H111.743V20.9799H111.637C111.236 21.7179 110.449 22.1589 109.521 22.1589C107.809 22.1589 106.726 20.8059 106.726 18.6668Z" fill="#FFFFFE"/>
<path fill-rule="evenodd" clip-rule="evenodd" d="M123.503 18.6659C123.503 17.2021 122.848 16.3457 121.696 16.3457C120.541 16.3457 119.891 17.2021 119.891 18.6659C119.891 20.1416 120.541 20.9905 121.696 20.9905C122.848 20.9905 123.503 20.1356 123.503 18.6659ZM118.52 18.6662C118.52 16.4881 119.733 15.1621 121.698 15.1621C123.661 15.1621 124.873 16.4881 124.873 18.6662C124.873 20.8547 123.665 22.1762 121.698 22.1762C119.727 22.1762 118.52 20.8547 118.52 18.6662Z" fill="#FFFFFE"/>
<path fill-rule="evenodd" clip-rule="evenodd" d="M126.653 15.2936H127.932V16.3661H128.033C128.36 15.6161 129.029 15.1631 130.043 15.1631C131.546 15.1631 132.374 16.0691 132.374 17.6756V22.0482H131.045V18.0101C131.045 16.9241 130.574 16.3856 129.591 16.3856C128.608 16.3856 127.983 17.0426 127.983 18.0971V22.0482H126.653V15.2936Z" fill="#FFFEFE"/>
<path fill-rule="evenodd" clip-rule="evenodd" d="M139.884 13.6094V15.3224H141.344V16.4444H139.884V19.9185C139.884 20.625 140.174 20.9355 140.837 20.9355C141.04 20.9355 141.158 20.922 141.344 20.904V22.0155C141.127 22.0515 140.879 22.083 140.62 22.083C139.142 22.083 138.552 21.561 138.552 20.259V16.4444H137.484V15.3224H138.552V13.6094H139.884Z" fill="#FFFEFE"/>
<path fill-rule="evenodd" clip-rule="evenodd" d="M143.157 12.6562H144.475V16.3778H144.58C144.907 15.6218 145.619 15.1688 146.634 15.1688C148.068 15.1688 148.954 16.0808 148.954 17.6873V22.0479H147.622V18.0158C147.622 16.9373 147.121 16.3898 146.182 16.3898C145.093 16.3898 144.487 17.0798 144.487 18.1028V22.0479H143.157V12.6562Z" fill="#FFFEFE"/>
<path fill-rule="evenodd" clip-rule="evenodd" d="M152.033 18.0471H155.434C155.405 16.9868 154.761 16.2969 153.777 16.2969C152.795 16.2969 152.108 16.9928 152.033 18.0471ZM156.708 20.2232C156.405 21.4337 155.328 22.1777 153.789 22.1777C151.859 22.1777 150.678 20.8502 150.678 18.6917C150.678 16.5331 151.883 15.1621 153.783 15.1621C155.658 15.1621 156.788 16.4461 156.788 18.5672V19.0322H152.032V19.1072C152.075 20.2922 152.762 21.0422 153.825 21.0422C154.63 21.0422 155.18 20.7512 155.429 20.2232H156.708Z" fill="#FFFFFE"/>
</svg>
