<svg width="131" height="47" viewBox="0 0 131 47" fill="none" xmlns="http://www.w3.org/2000/svg">
<path d="M124.719 46.945H6.27928C2.81654 46.945 0 44.1097 0 40.6242V6.3282C0 2.83852 2.817 0 6.27928 0H124.719C128.183 0 131 2.83852 131 6.3282V40.6242C131 44.1097 128.183 46.945 124.719 46.945ZM6.27928 1.63869C3.71332 1.63869 1.62581 3.74216 1.62581 6.3282V40.6242C1.62581 43.2061 3.71332 45.3061 6.27928 45.3061H124.719C127.286 45.3061 129.374 43.2061 129.374 40.6242V6.3282C129.374 3.74216 127.286 1.63869 124.719 1.63869H6.27928ZM56.1875 25.5992C55.6067 25.5992 55.0832 25.7922 54.6095 26.1797C54.1357 26.5737 53.8282 27.0825 53.6819 27.7129C53.6101 28.0073 53.5745 28.2473 53.5745 28.4381V30.216C53.5745 30.9934 53.8063 31.6505 54.2814 32.185C54.7529 32.715 55.3686 32.9836 56.1232 32.9836C57.0076 32.9836 57.703 32.642 58.196 31.9513C58.6899 31.2633 58.9351 30.3555 58.9351 29.2242C58.9351 28.1874 58.7056 27.3295 58.24 26.6576C57.7287 25.9572 57.0463 25.5992 56.1875 25.5992ZM99.1407 25.4516C98.1987 25.4516 97.4784 25.8739 96.9868 26.7217C96.5606 27.4203 96.352 28.2722 96.352 29.2809C96.352 30.2629 96.5606 31.1012 96.9864 31.8012C97.4908 32.6477 98.2032 33.0693 99.1238 33.0693C100.019 33.0693 100.727 32.6421 101.232 31.7744C101.671 31.0657 101.891 30.216 101.891 29.2391C101.891 28.2626 101.68 27.4203 101.261 26.7217C100.76 25.8739 100.058 25.4521 99.1407 25.4521V25.4516ZM67.8325 25.5992C67.2495 25.5992 66.7281 25.7922 66.2538 26.1797C65.7814 26.5737 65.471 27.0825 65.3252 27.7129C65.2529 28.0073 65.218 28.2473 65.218 28.4381V30.216C65.218 30.9934 65.4514 31.6505 65.9252 32.185C66.3971 32.715 67.0122 32.9836 67.7644 32.9836C68.6562 32.9836 69.3447 32.642 69.84 31.9513C70.3352 31.2633 70.5831 30.3555 70.5831 29.2242C70.5831 28.1874 70.349 27.3295 69.8857 26.6576C69.3731 25.9572 68.6891 25.5992 67.8325 25.5992ZM43.5001 21.7805H43.4588C43.3111 22.4095 43.0816 23.3381 42.7592 24.5703L41.5378 28.4372H45.4829L44.2454 24.5703C44.1115 24.1731 43.8618 23.2426 43.5001 21.7805ZM116.999 25.336C116.231 25.336 115.606 25.6668 115.125 26.3068C114.733 26.8183 114.498 27.434 114.427 28.1483H119.332C119.345 27.4478 119.195 26.8425 118.877 26.3269C118.467 25.6707 117.841 25.336 116.999 25.336ZM53.8851 14.7989C53.918 14.6975 53.9179 14.5961 53.9179 14.4938V13.738C52.9429 13.7265 52.0137 13.9297 52.0137 14.7651C52.0137 15.307 52.3605 15.556 52.7976 15.556C53.3578 15.556 53.7497 15.1947 53.8851 14.7989ZM41.036 11.3433C40.8897 10.8802 40.7671 10.3609 40.6546 9.92081H40.6319C40.5203 10.3609 40.3963 10.8917 40.2728 11.3433L39.6907 13.2182H41.6295L41.036 11.3433ZM119.174 10.8012C120.944 10.8012 121.528 12.2694 121.528 13.4781C121.528 13.738 121.505 13.9412 121.482 14.0651H117.828C117.862 15.0586 118.624 15.4876 119.51 15.4876C120.149 15.4876 120.597 15.3864 121.023 15.239L121.224 16.188C120.754 16.3908 120.104 16.5384 119.319 16.5384C117.549 16.5384 116.507 15.4431 116.507 13.7607C116.507 12.2354 117.425 10.8012 119.174 10.8012ZM97.2992 10.9257L97.3664 11.7505H97.4006C97.6462 11.3206 98.2403 10.8012 99.1485 10.8012C100.102 10.8012 101.087 11.422 101.087 13.1615V16.4254H99.7092V13.3197C99.7092 12.5294 99.4173 11.9303 98.6664 11.9303C98.1177 11.9303 97.7367 12.3257 97.5899 12.7437C97.5451 12.8571 97.5232 13.0262 97.5232 13.1842V16.4254H96.1448V12.5635C96.1448 11.9303 96.1221 11.4003 96.1001 10.9257H97.2992ZM82.8234 10.8012C84.5941 10.8012 85.1776 12.2694 85.1776 13.4781C85.1776 13.738 85.1549 13.9412 85.1325 14.0651H81.4785C81.5119 15.0586 82.2744 15.4876 83.1597 15.4876C83.7986 15.4876 84.2461 15.3864 84.6723 15.239L84.874 16.188C84.4029 16.3908 83.7535 16.5384 82.9688 16.5384C81.1981 16.5384 80.1564 15.4431 80.1564 13.7607C80.1564 12.2354 81.0747 10.8012 82.8234 10.8012ZM77.1739 8.40744H78.5514V16.4254H77.1739V8.40744ZM66.2411 11.7834C65.7029 11.7834 65.1427 11.9538 64.7732 12.1906L64.5041 11.287C64.9065 11.0382 65.6135 10.8012 66.476 10.8012C68.2248 10.8012 68.7297 11.9193 68.7297 13.1271V15.1037C68.7297 15.601 68.7512 16.0867 68.8184 16.4254H67.5746L67.4739 15.8159H67.4407C67.1155 16.2444 66.5437 16.5498 65.8262 16.5498C64.7273 16.5498 64.1113 15.748 64.1113 14.9116C64.1113 13.5338 65.3323 12.8229 67.3504 12.8339V12.7437C67.3504 12.3824 67.2042 11.7834 66.2411 11.7834ZM58.0904 8.63267C58.561 8.63267 58.8527 8.96081 58.8632 9.38935C58.8632 9.79578 58.561 10.135 58.0786 10.135C57.619 10.135 57.3171 9.79578 57.3171 9.38935C57.3171 8.96081 57.6304 8.63267 58.09 8.63267H58.0904ZM58.7732 10.9257V16.4254H57.3957V10.9257H58.7732ZM39.8142 8.81335H41.5735L44.0277 16.4254H42.537L41.8542 14.2679H39.466L38.8158 16.4254H37.3923L39.8142 8.81335ZM47.2729 34.6092L45.901 30.2631H41.1242L39.8146 34.6092H37.3753L42.1025 19.8022H45.027L49.7825 34.6092H47.2729ZM47.8079 16.4254H46.4516L44.423 10.9257H45.9137L46.7986 13.715C46.9555 14.2007 47.0675 14.6411 47.169 15.0927H47.2028C47.3034 14.6411 47.4269 14.2113 47.5723 13.715L48.4467 10.9257H49.8928L47.8079 16.4254ZM50.646 14.9116C50.646 13.5338 51.867 12.8229 53.8851 12.8339V12.7437C53.8851 12.3824 53.7386 11.7834 52.7751 11.7834C52.2368 11.7834 51.6776 11.9538 51.3072 12.1906L51.0379 11.287C51.4407 11.0382 52.1473 10.8012 53.0107 10.8012C54.759 10.8012 55.2633 11.9193 55.2633 13.1271V15.1037C55.2633 15.601 55.2854 16.0867 55.353 16.4254H54.1082L54.0081 15.8159H53.9746C53.6495 16.2444 53.0779 16.5498 52.3604 16.5498C51.262 16.5498 50.646 15.748 50.646 14.9116ZM59.8652 33.4484C58.9903 34.382 57.8989 34.8506 56.6001 34.8506C55.1935 34.8506 54.1868 34.3466 53.5745 33.3323V38.9398H51.2216V27.4406C51.2216 26.2983 51.1911 25.1305 51.1316 23.9315H53.2031L53.3331 25.6226H53.3742C54.1626 24.3531 55.353 23.7168 56.9541 23.7168C58.2039 23.7168 59.2443 24.2103 60.0849 25.2088C60.9181 26.2028 61.3373 27.5166 61.3373 29.1405C61.3373 30.9625 60.8481 32.3918 59.8658 33.4484H59.8652ZM62.316 16.4254H60.9385V8.40744H62.316V16.4254ZM71.508 33.4484C70.6299 34.382 69.5434 34.8506 68.2409 34.8506C66.8384 34.8506 65.8308 34.3466 65.218 33.3323V38.9398H62.8629V27.4406C62.8629 26.2983 62.8323 25.1305 62.776 23.9315H64.8417L64.9779 25.6226H65.0186C65.8088 24.3531 66.9966 23.7168 68.5949 23.7168C69.8461 23.7168 70.8891 24.2103 71.7246 25.2088C72.5624 26.2028 72.9795 27.5166 72.9795 29.1405C72.9795 30.9625 72.4901 32.3918 71.5073 33.4484H71.508ZM73.1249 16.5498C72.4183 16.5498 71.7905 16.2789 71.3986 15.6005H71.3758L71.3095 16.4254H70.1323C70.1547 16.0522 70.1776 15.443 70.1776 14.8776V8.40789H71.5549V11.6819H71.5779C71.9135 11.1515 72.5075 10.8012 73.326 10.8012C74.66 10.8012 75.6126 11.9193 75.6016 13.5906C75.6016 15.5675 74.3578 16.5498 73.1249 16.5498ZM84.9773 33.5314C84.0152 34.3968 82.6826 34.8263 80.9732 34.8263C79.3882 34.8263 78.1209 34.5176 77.1643 33.9056L77.7113 31.9288C78.7426 32.5407 79.8752 32.8513 81.1081 32.8513C81.9989 32.8513 82.6877 32.6476 83.1821 32.2476C83.6737 31.8462 83.9209 31.3084 83.9209 30.6269C83.9209 30.0338 83.7172 29.5284 83.3129 29.1164C82.9022 28.7063 82.2313 28.3285 81.2856 27.9741C78.7155 27.0101 77.4277 25.5964 77.4277 23.7371C77.4277 22.5206 77.8774 21.5233 78.7869 20.7464C79.6956 19.9722 80.8981 19.5833 82.3972 19.5833C83.7334 19.5833 84.8462 19.8197 85.7343 20.2851L85.1397 22.2188C84.3115 21.7663 83.3704 21.5368 82.3199 21.5368C81.4904 21.5368 80.8393 21.749 80.371 22.1495C79.9795 22.5209 79.7828 22.9679 79.7828 23.4936C79.7828 24.0756 80.0083 24.561 80.4579 24.9472C80.8516 25.2969 81.5641 25.676 82.5926 26.0852C83.8611 26.5939 84.7885 27.1981 85.3867 27.8888C85.9811 28.5768 86.2803 29.4322 86.2803 30.4557C86.2803 31.7164 85.8435 32.7449 84.9773 33.5314ZM93.2786 25.7092H90.6792V30.8998C90.6792 32.2163 91.1409 32.8697 92.0569 32.8697C92.4786 32.8697 92.8239 32.8388 93.1024 32.7664L93.1696 34.5638C92.7031 34.7393 92.095 34.8281 91.3381 34.8281C90.413 34.8281 89.6803 34.5466 89.1594 33.9711C88.6312 33.4029 88.3705 32.4421 88.3705 31.0947V25.7092H86.8244V23.9315H88.3705V21.9767L90.6792 21.2744V23.9315H93.2786V25.7092ZM91.9504 16.5498C90.4152 16.5498 89.2157 15.4877 89.2157 13.715C89.2157 11.9082 90.3925 10.8012 92.0402 10.8012C93.665 10.8012 94.7519 11.9532 94.7519 13.6246C94.7519 15.6461 93.3397 16.5498 91.9504 16.5498ZM102.939 33.2293C101.962 34.3099 100.668 34.8506 99.0588 34.8506C97.5007 34.8506 96.2579 34.3319 95.3364 33.2918C94.4141 32.2541 93.9545 30.938 93.9545 29.3583C93.9545 27.7045 94.429 26.3489 95.3811 25.295C96.3346 24.237 97.6133 23.7168 99.2271 23.7168C100.788 23.7168 102.037 24.2315 102.982 25.2766C103.88 26.2811 104.331 27.5884 104.331 29.1837C104.331 30.8288 103.869 32.1708 102.939 33.2293ZM105.372 10.9257H106.146V9.89764L107.502 9.51333V10.9257H108.813V11.9638H107.502V14.3923C107.502 15.0706 107.681 15.4088 108.208 15.4088C108.455 15.4088 108.589 15.3973 108.746 15.3521L108.769 16.4025C108.566 16.4808 108.197 16.5498 107.771 16.5498C107.255 16.5498 106.84 16.3803 106.582 16.0983C106.28 15.7817 106.146 15.2735 106.146 14.5505V11.9638H105.372L105.372 10.9257ZM111.417 26.0179C111.172 25.9757 110.924 25.9556 110.675 25.9576C109.847 25.9576 109.209 26.2723 108.757 26.9004C108.363 27.4584 108.168 28.1516 108.168 29.0073V34.6092H105.813V27.2899C105.813 26.0664 105.792 24.9457 105.751 23.9315H107.799L107.887 25.9756H107.952C108.198 25.2748 108.588 24.7089 109.129 24.2872C109.652 23.9024 110.222 23.7173 110.831 23.7173C111.048 23.7173 111.245 23.7292 111.417 23.7573V26.0179ZM111.773 13.1271V16.4254H110.395V8.40744H111.773V11.6709H111.796C111.967 11.4082 112.203 11.1943 112.48 11.0501C112.771 10.8858 113.099 10.8001 113.433 10.8012C114.363 10.8012 115.339 11.4219 115.339 13.1836V16.4254H113.959V13.3312C113.959 12.5409 113.668 11.9303 112.906 11.9303C112.368 11.9303 111.987 12.292 111.83 12.7099C111.785 12.8344 111.773 12.981 111.773 13.1271ZM121.493 29.8459H114.427C114.454 30.8998 114.797 31.702 115.453 32.2577C116.047 32.7572 116.816 33.0065 117.762 33.0065C118.811 33.0065 119.761 32.8388 120.619 32.4969L120.99 34.1466C119.991 34.5899 118.804 34.8047 117.433 34.8047C115.794 34.8047 114.504 34.3199 113.567 33.3467C112.629 32.373 112.157 31.0656 112.157 29.4265C112.157 27.8128 112.596 26.4756 113.465 25.4019C114.385 24.2605 115.621 23.691 117.174 23.691C118.705 23.691 119.859 24.2605 120.641 25.4019C121.264 26.3124 121.578 27.4341 121.578 28.7677C121.578 29.1893 121.548 29.5482 121.493 29.8459ZM72.8221 11.8851C72.2619 11.8851 71.7461 12.292 71.6011 12.9012C71.5719 13.0197 71.5563 13.1413 71.5549 13.2634V14.1551C71.5549 14.268 71.5668 14.3813 71.5893 14.4832C71.7347 15.0472 72.2171 15.4541 72.8102 15.4541C73.6741 15.4541 74.2005 14.7652 74.2005 13.6478C74.2005 12.6764 73.7408 11.8851 72.8221 11.8851ZM82.7448 11.7501C81.8929 11.7501 81.5348 12.5288 81.4785 13.0938H83.8767C83.8877 12.5851 83.6636 11.7501 82.7448 11.7501ZM92.0067 11.8063C91.0308 11.8063 90.6394 12.7661 90.6394 13.6804C90.6394 14.7425 91.1653 15.5443 91.9957 15.5443C92.7796 15.5443 93.3288 14.7762 93.3288 13.6588C93.3288 12.7998 92.9478 11.8063 92.0067 11.8063ZM65.4788 14.7647C65.4788 15.307 65.8263 15.556 66.263 15.556C66.8237 15.556 67.216 15.1947 67.3504 14.7989C67.3838 14.6975 67.3839 14.5961 67.3839 14.4938V13.738C66.4094 13.7265 65.4788 13.9297 65.4788 14.7651V14.7647ZM119.095 11.7501C118.243 11.7501 117.885 12.5288 117.828 13.0938H120.227C120.239 12.5851 120.014 11.7501 119.095 11.7501ZM22.6944 10.5922C24.6329 8.0177 27.3286 8.00469 27.3286 8.00469C27.3286 8.00469 27.7293 10.4257 25.8031 12.7579C23.7466 15.2476 21.4088 14.8403 21.4088 14.8403C21.4088 14.8403 20.9703 12.882 22.6939 10.5922H22.6944ZM26.914 15.1546C31.0613 15.1546 32.6928 18.1282 32.6928 18.1282C32.6928 18.1282 29.5017 19.7722 29.5017 23.7614C29.5017 28.2616 33.4773 29.8124 33.4773 29.8124C33.4773 29.8124 30.6981 37.6935 26.9446 37.6935C25.2205 37.6935 23.8807 36.5231 22.0638 36.5231C20.213 36.5231 18.3755 37.7372 17.1796 37.7372C13.7517 37.7372 9.42193 30.261 9.42193 24.2512C9.42193 18.3391 13.0867 15.2374 16.5243 15.2374C18.7596 15.2374 20.4938 16.5361 21.6554 16.5361C22.6532 16.5361 24.5044 15.1546 26.914 15.1546Z" fill="white"/>
</svg>
