<svg width="202" height="60" viewBox="0 0 202 60" fill="none" xmlns="http://www.w3.org/2000/svg">
<rect y="0.0175781" width="202" height="59.9817" rx="8.20001" fill="#000D23"/>
<path fill-rule="evenodd" clip-rule="evenodd" d="M7.48013 0H194.52V0.0182871C198.647 0.0283399 201.99 3.3793 202 7.516V52.5023C201.99 56.639 198.647 59.9899 194.52 60H7.48013C3.35313 59.9899 0.0100292 56.639 0 52.5023V7.49771C0.0100292 3.36101 3.35313 0.0100528 7.48013 0ZM200.796 7.51598C200.796 4.03872 197.989 1.21701 194.52 1.20693H7.48011C4.01102 1.21701 1.20409 4.03872 1.2041 7.51598V52.5023C1.21412 55.9724 4.01813 58.783 7.48011 58.793H194.52C197.982 58.783 200.786 55.9724 200.796 52.5023V7.51598Z" fill="#A6A6A6"/>
<path d="M70.9538 15.3784C71.0081 16.4887 70.6059 17.5727 69.8409 18.3776C68.9798 19.2733 67.7788 19.7588 66.5387 19.7125C65.2954 19.7225 64.1007 19.2294 63.225 18.3448C62.3493 17.4601 61.8666 16.2588 61.8863 15.0127C61.8665 13.7634 62.3516 12.5592 63.2313 11.674C64.111 10.7888 65.3105 10.2979 66.5569 10.3128C67.1847 10.3156 67.8054 10.4463 68.3814 10.6969C68.9232 10.9147 69.4049 11.2596 69.7862 11.7027L69.0017 12.489C68.39 11.7707 67.4796 11.3786 66.5387 11.4284C65.5836 11.422 64.6683 11.8109 64.0087 12.5032C63.3491 13.1955 63.0037 14.1299 63.054 15.0858C63.0157 16.528 63.8571 17.8484 65.1786 18.4201C66.5001 18.9918 68.0356 18.6998 69.0564 17.6826C69.5166 17.1828 69.7821 16.5337 69.8044 15.8539H66.5387V14.7018H70.8991C70.9373 14.9253 70.9556 15.1517 70.9538 15.3784Z" fill="white" stroke="white" stroke-width="0.4"/>
<path d="M77.8465 11.6129H73.7598V14.4657H77.4086V15.5447H73.7598V18.3975H77.8465V19.4947H72.6104V10.5156H77.8465V11.6129Z" fill="white" stroke="white" stroke-width="0.4"/>
<path d="M82.7602 19.513H81.6108V11.6129H79.1113V10.5156H85.278V11.6129H82.7602V19.513Z" fill="white" stroke="white" stroke-width="0.4"/>
<path d="M89.6901 19.513V10.5156H90.8395V19.513H89.6901Z" fill="white" stroke="white" stroke-width="0.4"/>
<path d="M95.9477 19.513H94.7983V11.6129H92.2988V10.5156H98.4655V11.6129H95.9477V19.513Z" fill="white" stroke="white" stroke-width="0.4"/>
<path fill-rule="evenodd" clip-rule="evenodd" d="M103.534 18.3439C105.356 20.1595 108.299 20.1595 110.121 18.3439C110.988 17.4572 111.462 16.2571 111.434 15.0156C111.457 13.7714 110.977 12.571 110.102 11.6873C108.287 9.87377 105.35 9.87377 103.534 11.6873C102.667 12.574 102.193 13.7741 102.221 15.0156C102.193 16.2571 102.667 17.4572 103.534 18.3439ZM109.265 17.5925C107.919 18.9388 105.74 18.9388 104.394 17.5925H104.412C103.735 16.9089 103.365 15.9773 103.39 15.014C103.361 14.0534 103.723 13.1222 104.394 12.4355C105.74 11.0892 107.919 11.0892 109.265 12.4355C109.936 13.1222 110.298 14.0534 110.269 15.014C110.298 15.9746 109.936 16.9058 109.265 17.5925Z" fill="white"/>
<path d="M110.121 18.3439L110.262 18.4856L110.264 18.4837L110.121 18.3439ZM103.534 18.3439L103.391 18.4838L103.393 18.4856L103.534 18.3439ZM111.434 15.0156L111.234 15.012L111.234 15.02L111.434 15.0156ZM110.102 11.6873L110.245 11.5466L110.244 11.5458L110.102 11.6873ZM103.534 11.6873L103.393 11.5458L103.391 11.5474L103.534 11.6873ZM102.221 15.0156L102.421 15.02L102.421 15.0112L102.221 15.0156ZM104.394 17.5925V17.3925H103.911L104.252 17.7339L104.394 17.5925ZM109.265 17.5925L109.407 17.734L109.408 17.7323L109.265 17.5925ZM104.412 17.5925V17.7925H104.892L104.554 17.4518L104.412 17.5925ZM103.39 15.014L103.591 15.0192L103.59 15.0078L103.39 15.014ZM104.394 12.4355L104.252 12.2941L104.251 12.2957L104.394 12.4355ZM109.265 12.4355L109.408 12.2957L109.407 12.2941L109.265 12.4355ZM110.269 15.014L110.068 15.0078L110.069 15.0202L110.269 15.014ZM109.98 18.2022C108.236 19.9401 105.419 19.9401 103.676 18.2022L103.393 18.4856C105.293 20.379 108.362 20.379 110.262 18.4856L109.98 18.2022ZM111.234 15.02C111.261 16.2078 110.807 17.3558 109.978 18.204L110.264 18.4837C111.169 17.5585 111.663 16.3064 111.634 15.0112L111.234 15.02ZM109.96 11.8279C110.796 12.6732 111.256 13.8216 111.234 15.012L111.634 15.0192C111.658 13.7212 111.157 12.4687 110.245 11.5466L109.96 11.8279ZM103.676 11.8288C105.413 10.0933 108.224 10.0933 109.961 11.8288L110.244 11.5458C108.35 9.65427 105.287 9.65427 103.393 11.5458L103.676 11.8288ZM102.421 15.0112C102.395 13.8234 102.848 12.6753 103.677 11.8271L103.391 11.5474C102.486 12.4727 101.992 13.7248 102.021 15.02L102.421 15.0112ZM103.677 18.204C102.848 17.3558 102.395 16.2078 102.421 15.02L102.021 15.0112C101.992 16.3064 102.486 17.5585 103.391 18.4837L103.677 18.204ZM104.252 17.7339C105.676 19.1584 107.982 19.1584 109.407 17.7339L109.124 17.4511C107.856 18.7193 105.803 18.7193 104.535 17.4511L104.252 17.7339ZM104.412 17.3925H104.394V17.7925H104.412V17.3925ZM103.19 15.0089C103.164 16.0265 103.554 17.0109 104.27 17.7333L104.554 17.4518C103.915 16.8069 103.567 15.928 103.59 15.0192L103.19 15.0089ZM104.251 12.2957C103.542 13.0214 103.159 14.0053 103.19 15.0202L103.59 15.0078C103.562 14.1015 103.904 13.223 104.537 12.5752L104.251 12.2957ZM109.407 12.2941C107.982 10.8697 105.676 10.8697 104.252 12.2941L104.535 12.5769C105.803 11.3087 107.856 11.3087 109.124 12.5769L109.407 12.2941ZM110.468 15.0202C110.5 14.0053 110.117 13.0214 109.408 12.2957L109.122 12.5752C109.755 13.223 110.097 14.1015 110.069 15.0078L110.468 15.0202ZM109.408 17.7323C110.117 17.0066 110.5 16.0227 110.468 15.0078L110.069 15.0202C110.097 15.9265 109.755 16.805 109.122 17.4528L109.408 17.7323Z" fill="white"/>
<path d="M113.078 19.513V10.5156H114.483L118.843 17.5197V15.7824V10.5156H119.993V19.513H118.789L114.228 12.1981V13.9354V19.5496L113.078 19.513Z" fill="white" stroke="white" stroke-width="0.4"/>
<path fill-rule="evenodd" clip-rule="evenodd" d="M71.4483 34.5809V37.2874H77.9069C77.8102 38.5556 77.2895 39.7541 76.4291 40.6889C75.116 42.0256 73.3 42.7431 71.4301 42.6639C67.6057 42.4706 64.6038 39.3061 64.6038 35.4678C64.6038 31.6295 67.6057 28.465 71.4301 28.2717C73.2454 28.2482 74.9965 28.945 76.3014 30.2102L78.1258 28.3815C76.3266 26.5984 73.887 25.6163 71.3571 25.6566C67.7263 25.5002 64.3024 27.3527 62.4404 30.481C60.5785 33.6093 60.5785 37.5092 62.4404 40.6375C64.3024 43.7658 67.7263 45.6183 71.3571 45.4619C73.9454 45.5587 76.4526 44.5481 78.2535 42.6822C79.8263 40.9595 80.6644 38.6886 80.5888 36.3548C80.594 35.7905 80.5451 35.2272 80.4429 34.6723L71.4483 34.5809ZM88.017 32.6424C84.5029 32.6525 81.6613 35.5144 81.668 39.0368C81.6747 42.5593 84.5272 45.4103 88.0414 45.4069C91.5556 45.4036 94.4026 42.5471 94.4026 39.0247C94.4276 37.3212 93.7622 35.6805 92.5587 34.4776C91.3552 33.2747 89.7164 32.6125 88.017 32.6424ZM96.0528 36.5733C97.043 34.1867 99.3715 32.6344 101.95 32.6418C103.64 32.622 105.266 33.2861 106.461 34.4839C107.656 35.6817 108.319 37.312 108.299 39.0058C108.307 41.5905 106.758 43.9245 104.377 44.9171C101.996 45.9096 99.253 45.3647 97.4296 43.537C95.6062 41.7094 95.0626 38.9598 96.0528 36.5733ZM98.2226 40.6442C98.8898 42.0858 100.367 42.9732 101.95 42.8833C102.954 42.8848 103.914 42.472 104.604 41.7419C105.294 41.0119 105.654 40.029 105.599 39.0247C105.604 37.4355 104.641 36.0042 103.169 35.4135C101.697 34.8227 100.015 35.1921 98.924 36.3455C97.8334 37.4989 97.5553 39.2026 98.2226 40.6442ZM84.287 40.6442C84.9543 42.0858 86.4317 42.9732 88.0146 42.8833C89.0181 42.8848 89.978 42.472 90.6684 41.7419C91.3587 41.0119 91.7187 40.029 91.6635 39.0247C91.6684 37.4355 90.7053 36.0042 89.2335 35.4135C87.7616 34.8227 86.0792 35.1921 84.9885 36.3455C83.8978 37.4989 83.6198 39.2026 84.287 40.6442ZM133.843 32.6414C136.34 32.6998 138.531 34.3248 139.317 36.7012L139.426 37.4875L130.924 41.017C131.456 42.2375 132.68 43.0067 134.008 42.9555C135.303 42.9476 136.498 42.2516 137.146 41.1267L139.317 42.5714C138.165 44.3097 136.235 45.3694 134.154 45.406C132.462 45.4313 130.833 44.7652 129.643 43.5611C128.452 42.357 127.801 40.7188 127.841 39.0237C127.751 37.3684 128.342 35.7486 129.477 34.5423C130.611 33.3361 132.19 32.649 133.843 32.6414ZM130.561 38.8233C130.516 37.8967 130.841 36.9903 131.464 36.3042C132.087 35.618 132.957 35.2085 133.881 35.1658C134.865 35.1041 135.791 35.6365 136.235 36.5191L130.561 38.8233ZM126.438 45.0043H123.646V26.2598H126.438V45.0043ZM119.064 34.0322H118.973C118.1 33.1028 116.87 32.5961 115.597 32.6423C112.071 32.6423 109.212 35.508 109.212 39.0429C109.212 42.5779 112.071 45.4435 115.597 45.4435C116.874 45.4802 118.102 44.9517 118.954 43.9988H119.046V44.9132C119.046 47.3454 117.75 48.5706 115.652 48.5706C114.222 48.539 112.952 47.6426 112.441 46.303L110.015 47.382C110.978 49.6107 113.174 51.0494 115.597 51.0394C118.881 51.0394 121.655 49.101 121.655 44.4011V33.0264H119.064V34.0322ZM112.252 38.9781C112.252 41.016 113.826 42.706 115.854 42.8459V42.8825C117.842 42.7455 119.352 41.0361 119.248 39.0421C119.323 38.0685 119.007 37.1052 118.369 36.3667C117.732 35.6281 116.826 35.1758 115.854 35.1104C113.826 35.2502 112.252 36.9402 112.252 38.9781ZM152.346 26.2207H145.65V45.0018H148.442V37.9063H152.346C154.5 38.0273 156.544 36.9444 157.657 35.0924C158.77 33.2404 158.77 30.9232 157.657 29.0712C156.544 27.2192 154.5 26.1363 152.346 26.2573V26.2207ZM148.44 35.2577H152.345L152.418 35.2943C153.619 35.3852 154.771 34.7942 155.399 33.7636C156.028 32.7331 156.028 31.4365 155.399 30.406C154.771 29.3754 153.619 28.7844 152.418 28.8754H148.44V35.2577ZM169.6 32.5687C167.517 32.4457 165.56 33.5737 164.619 35.4398L167.1 36.4822C167.604 35.5567 168.607 35.0182 169.654 35.1106C170.363 35.0392 171.072 35.2537 171.623 35.7066C172.174 36.1595 172.523 36.8136 172.592 37.5246V37.7257C171.694 37.2448 170.691 36.9935 169.673 36.9942C167.009 36.9942 164.199 38.4572 164.199 41.2186C164.25 42.3922 164.774 43.4947 165.651 44.2739C166.528 45.053 167.683 45.4419 168.852 45.3516C170.312 45.4696 171.718 44.7651 172.5 43.5228H172.592V44.9675H175.292V37.7806C175.31 36.3178 174.704 34.9169 173.628 33.9288C172.552 32.9408 171.106 32.4594 169.654 32.6053L169.6 32.5687ZM167.084 41.2542C167.084 42.388 168.361 42.8452 169.273 42.8452L169.328 42.8818C171.007 42.8301 172.396 41.5548 172.594 39.8826C171.813 39.4499 170.931 39.2351 170.04 39.2609C168.671 39.2609 167.084 39.8095 167.084 41.2542ZM185.111 32.9912L181.918 41.1291H181.827L178.543 33.0095H175.532L180.513 44.366L177.63 50.6934H180.549L188.23 33.0095L185.111 32.9912ZM162.798 45.0043H160.007V26.2598H162.798V45.0043Z" fill="white"/>
<path d="M15.6165 11.3187C15.1261 11.9054 14.8781 12.6578 14.9232 13.4218V46.595C14.8781 47.359 15.1261 48.1114 15.6165 48.6981L15.7259 48.8078L34.2623 30.2278V29.7889L15.7259 11.209L15.6165 11.3187Z" fill="url(#paint0_linear_397_1521)"/>
<path d="M40.4486 36.4115L34.2637 30.2121V29.7732L40.4486 23.6104H40.5945L47.8923 27.7799C48.8212 28.0925 49.447 28.9648 49.447 29.9469C49.447 30.929 48.8212 31.8014 47.8923 32.114L40.5945 36.2835L40.4486 36.4115Z" fill="url(#paint1_linear_397_1521)"/>
<path d="M40.5786 36.4103L34.266 30.0098L15.6201 48.6995C16.4969 49.4751 17.8009 49.5135 18.7217 48.7909L40.6151 36.3372" fill="url(#paint2_linear_397_1521)"/>
<path d="M40.576 23.6105L18.6826 11.1568C17.7619 10.4342 16.4579 10.4726 15.5811 11.2483L34.2634 30.0111L40.576 23.6105Z" fill="url(#paint3_linear_397_1521)"/>
<path opacity="0.2" d="M40.4509 36.209L18.7217 48.5712C17.8345 49.2357 16.6168 49.2357 15.7296 48.5712L15.6201 48.681L15.7296 48.7907C16.6168 49.4551 17.8345 49.4551 18.7217 48.7907L40.6151 36.337L40.4509 36.209Z" fill="#000D23"/>
<path opacity="0.12" d="M15.6189 48.4771C15.1285 47.8904 14.8805 47.138 14.9256 46.374V46.5935C14.8805 47.3575 15.1285 48.1098 15.6189 48.6965L15.7283 48.5868L15.6189 48.4771Z" fill="#000D23"/>
<path opacity="0.12" d="M47.9093 31.9658L40.4473 36.2085L40.5932 36.3548L47.891 32.1853C48.766 31.8048 49.3666 30.9788 49.46 30.0273C49.2734 30.8807 48.6998 31.5978 47.9093 31.9658Z" fill="#000D23"/>
<path opacity="0.25" d="M18.7206 11.4479L47.9118 28.0711C48.7093 28.4347 49.2903 29.1524 49.4808 30.0096C49.3874 29.0581 48.7868 28.2322 47.9118 27.8517L18.7206 11.2285C16.6225 10.0398 14.9258 11.0273 14.9258 13.423V13.6424C14.9258 11.2468 16.6408 10.2592 18.7206 11.4479Z" fill="white"/>
<defs>
<linearGradient id="paint0_linear_397_1521" x1="26.1471" y1="-11.3229" x2="-3.54363" y2="-3.44514" gradientUnits="userSpaceOnUse">
<stop stop-color="#00A0FF"/>
<stop offset="0.01" stop-color="#00A1FF"/>
<stop offset="0.26" stop-color="#00BEFF"/>
<stop offset="0.51" stop-color="#00D2FF"/>
<stop offset="0.76" stop-color="#00DFFF"/>
<stop offset="1" stop-color="#00E3FF"/>
</linearGradient>
<linearGradient id="paint1_linear_397_1521" x1="50.629" y1="14.752" x2="14.4319" y2="14.752" gradientUnits="userSpaceOnUse">
<stop stop-color="#FFE000"/>
<stop offset="0.41" stop-color="#FFBD00"/>
<stop offset="0.78" stop-color="#FFA500"/>
<stop offset="1" stop-color="#FF9C00"/>
</linearGradient>
<linearGradient id="paint2_linear_397_1521" x1="15.0381" y1="20.3052" x2="-8.84606" y2="60.4869" gradientUnits="userSpaceOnUse">
<stop stop-color="#FF3A44"/>
<stop offset="1" stop-color="#C31162"/>
</linearGradient>
<linearGradient id="paint3_linear_397_1521" x1="1.08913" y1="6.16506" x2="11.8183" y2="24.0912" gradientUnits="userSpaceOnUse">
<stop stop-color="#32A071"/>
<stop offset="0.07" stop-color="#2DA771"/>
<stop offset="0.48" stop-color="#15CF74"/>
<stop offset="0.8" stop-color="#06E775"/>
<stop offset="1" stop-color="#00F076"/>
</linearGradient>
</defs>
</svg>
