<svg width="155" height="48" viewBox="0 0 155 48" fill="none" xmlns="http://www.w3.org/2000/svg">
<path d="M5.74074 0.75H149.259C151.999 0.75 154.25 3.03025 154.25 5.88159V41.1711C154.25 44.0224 151.999 46.3027 149.259 46.3027H5.74074C3.00146 46.3027 0.75 44.0224 0.75 41.1711V5.88159C0.75 3.03025 3.00146 0.75 5.74074 0.75Z" stroke="white" stroke-width="1.5"/>
<path d="M52.7776 29.4344L50.1991 22.476L47.6327 29.4344H52.7776ZM43.7891 34.5973L49.1341 20.6084H51.2762L56.6212 34.5973H54.6474L53.3702 31.0061H47.0642L45.787 34.5973H43.7891ZM60.2527 33.0256V38.5884H58.527V24.1036H60.2527V25.6872C60.617 25.0634 61.0735 24.6035 61.626 24.3036C62.1865 23.9956 62.8471 23.8437 63.6119 23.8437C64.8891 23.8437 65.9261 24.3515 66.7228 25.3673C67.5276 26.3751 67.928 27.7068 67.928 29.3624C67.928 31.0101 67.5276 32.3378 66.7228 33.3575C65.9261 34.3653 64.8891 34.8692 63.6119 34.8692C62.8471 34.8692 62.1865 34.7212 61.626 34.4213C61.0735 34.1134 60.617 33.6455 60.2527 33.0256ZM66.1303 29.3624C66.1303 28.0947 65.866 27.0989 65.3375 26.3751C64.825 25.6513 64.1123 25.2873 63.1955 25.2873C62.2826 25.2873 61.5579 25.6513 61.0294 26.3751C60.5089 27.0989 60.2487 28.0947 60.2487 29.3624C60.2487 30.6301 60.5089 31.6259 61.0294 32.3498C61.5579 33.0656 62.2786 33.4255 63.1955 33.4255C64.1083 33.4255 64.825 33.0656 65.3375 32.3498C65.866 31.6259 66.1303 30.6301 66.1303 29.3624ZM72.4603 33.0256V38.5884H70.7226V24.1036H72.4603V25.6872C72.8246 25.0634 73.277 24.6035 73.8215 24.3036C74.3821 23.9956 75.0467 23.8437 75.8194 23.8437C77.0886 23.8437 78.1216 24.3515 78.9184 25.3673C79.7231 26.3751 80.1235 27.7068 80.1235 29.3624C80.1235 31.0101 79.7231 32.3378 78.9184 33.3575C78.1216 34.3653 77.0886 34.8692 75.8194 34.8692C75.0467 34.8692 74.3821 34.7212 73.8215 34.4213C73.277 34.1134 72.8206 33.6455 72.4603 33.0256ZM78.3258 29.3624C78.3258 28.0947 78.0616 27.0989 77.5331 26.3751C77.0206 25.6513 76.3079 25.2873 75.391 25.2873C74.4782 25.2873 73.7535 25.6513 73.225 26.3751C72.7125 27.0989 72.4562 28.0947 72.4562 29.3624C72.4562 30.6301 72.7125 31.6259 73.225 32.3498C73.7535 33.0656 74.4742 33.4255 75.391 33.4255C76.3039 33.4255 77.0206 33.0656 77.5331 32.3498C78.0616 31.6259 78.3258 30.6301 78.3258 29.3624ZM92.5433 32.6017V28.8465H89.4564V27.2869H94.4251V33.3016C93.6924 33.8214 92.8836 34.2133 91.9988 34.4813C91.1219 34.7412 90.1851 34.8692 89.1841 34.8692C86.99 34.8692 85.2764 34.2293 84.0392 32.9536C82.8101 31.6779 82.1935 29.8983 82.1935 27.6148C82.1935 25.3313 82.8101 23.5517 84.0392 22.276C85.2764 20.9923 86.994 20.3484 89.1841 20.3484C90.097 20.3484 90.9618 20.4644 91.7746 20.6924C92.6033 20.9123 93.3641 21.2442 94.0567 21.6841V23.7037C93.3561 23.1038 92.6114 22.6559 91.8226 22.356C91.0339 22.0561 90.2051 21.9081 89.3402 21.9081C87.6306 21.9081 86.3414 22.384 85.4726 23.3358C84.6198 24.2956 84.1954 25.7232 84.1954 27.6108C84.1954 29.4984 84.6198 30.9221 85.4726 31.8739C86.3414 32.8257 87.6306 33.3016 89.3402 33.3016C90.0089 33.3016 90.6095 33.2456 91.138 33.1376C91.6585 33.0256 92.1269 32.8457 92.5433 32.6017ZM104.242 29.3144H102.529C101.131 29.3144 100.167 29.4744 99.63 29.7983C99.0935 30.1143 98.8252 30.6581 98.8252 31.43C98.8252 32.0458 99.0254 32.5337 99.4298 32.8936C99.8302 33.2496 100.379 33.4255 101.075 33.4255C102.036 33.4255 102.805 33.0856 103.382 32.4097C103.958 31.7339 104.246 30.8301 104.246 29.7024V29.3144H104.242ZM105.968 28.6066V34.5973H104.242V33.0016C103.85 33.6415 103.358 34.1134 102.777 34.4213C102.184 34.7212 101.464 34.8692 100.611 34.8692C99.5379 34.8692 98.6811 34.5693 98.0445 33.9694C97.4119 33.3615 97.0996 32.5497 97.0996 31.5339C97.0996 30.3622 97.492 29.4704 98.2807 28.8625C99.0775 28.2627 100.259 27.9627 101.828 27.9627H104.242V27.7988C104.242 27.003 103.982 26.3871 103.462 25.9552C102.941 25.5233 102.208 25.3073 101.264 25.3073C100.663 25.3073 100.082 25.3793 99.5139 25.5193C98.9454 25.6593 98.3968 25.8792 97.8683 26.1671V24.5715C98.5009 24.3275 99.1135 24.1476 99.7141 24.0276C100.307 23.8996 100.879 23.8397 101.44 23.8397C102.961 23.8397 104.098 24.2316 104.847 25.0194C105.596 25.8152 105.968 27.007 105.968 28.6066ZM109.527 34.5973V20.0205H111.253V34.5973H109.527ZM114.864 34.5973V20.0205H116.59V34.5973H114.864ZM129.138 28.9145V29.7663H121.202C121.275 30.9461 121.627 31.8539 122.267 32.4817C122.912 33.0976 123.809 33.4015 124.954 33.4015C125.615 33.4015 126.255 33.3215 126.872 33.1656C127.504 33.0016 128.121 32.7577 128.73 32.4337V34.0654C128.113 34.3253 127.48 34.5253 126.824 34.6692C126.179 34.8012 125.519 34.8692 124.85 34.8692C123.176 34.8692 121.851 34.3813 120.862 33.4055C119.885 32.4377 119.397 31.122 119.397 29.4584C119.397 27.7348 119.861 26.3711 120.794 25.3713C121.723 24.3555 122.98 23.8477 124.554 23.8477C125.967 23.8477 127.08 24.3036 127.901 25.2193C128.726 26.1231 129.138 27.3549 129.138 28.9145ZM121.251 28.4186H127.412C127.396 27.4748 127.128 26.719 126.608 26.1511C126.095 25.5913 125.414 25.3113 124.562 25.3113C123.601 25.3113 122.828 25.5833 122.243 26.1271C121.667 26.671 121.339 27.4349 121.251 28.4186ZM137.986 23.9396L137.998 25.7112C137.802 25.5993 137.59 25.5193 137.358 25.4633C137.126 25.4073 136.881 25.3793 136.613 25.3793C135.636 25.3793 134.883 25.6992 134.355 26.3351C133.834 26.967 133.574 27.8748 133.574 29.0625V34.5933H131.849V24.1036H133.574V25.7352C133.939 25.0954 134.411 24.6235 134.996 24.3156C135.58 23.9996 136.285 23.8437 137.114 23.8437C137.234 23.8437 137.366 23.8557 137.514 23.8797C137.654 23.8876 137.814 23.9076 137.986 23.9396ZM148.797 24.1036L144.184 35.565C143.696 36.8168 143.219 37.6366 142.755 38.0205C142.29 38.4004 141.67 38.5884 140.897 38.5884H139.512V37.1487H140.529C141.001 37.1487 141.374 37.0327 141.642 36.8048C141.902 36.5848 142.19 36.0529 142.507 35.2091L142.827 34.4293L138.567 24.1036H140.401L143.688 32.3018L146.963 24.1036H148.797Z" fill="white"/>
<path d="M43.6807 15.695V8.47661H48.245V9.29242H44.6496V11.4319H48.0928V12.2598H44.6496V14.8712H48.3411V15.699H43.6807V15.695ZM51.8444 11.8439L49.5983 8.47661H50.6513L52.449 11.16L54.2467 8.47661H55.2997L52.9815 11.9398L55.4518 15.695H54.3988L52.3769 12.6237L50.319 15.695H49.266L51.8444 11.8439ZM58.9391 9.28043H57.71V11.9878H58.9391C59.3956 11.9878 59.7519 11.8718 60.0041 11.6439C60.2484 11.408 60.3725 11.068 60.3725 10.6281C60.3725 10.2042 60.2484 9.87229 60.0041 9.63635C59.7519 9.4004 59.3956 9.28043 58.9391 9.28043ZM56.741 15.695V8.47661H58.9391C59.7519 8.47661 60.3645 8.65657 60.7849 9.02049C61.1933 9.3924 61.4015 9.92428 61.4015 10.6281C61.4015 11.344 61.1973 11.8838 60.7849 12.2478C60.3685 12.6117 59.7519 12.7916 58.9391 12.7916H57.71V15.699H56.741V15.695ZM62.7147 15.695V8.47661H63.6956V14.8672H67.219V15.695H62.7147ZM70.8264 9.14046C70.1177 9.14046 69.5492 9.4044 69.1248 9.93228C68.7164 10.4602 68.5082 11.18 68.5082 12.0958C68.5082 12.9996 68.7124 13.7234 69.1248 14.2593C69.5492 14.7872 70.1177 15.0511 70.8264 15.0511C71.5351 15.0511 72.0956 14.7872 72.504 14.2593C72.9204 13.7234 73.1326 13.0036 73.1326 12.0958C73.1326 11.184 72.9244 10.4602 72.504 9.93228C72.0956 9.4004 71.5351 9.14046 70.8264 9.14046ZM70.8264 8.34863C71.8354 8.34863 72.6441 8.68856 73.2527 9.36441C73.8613 10.0403 74.1616 10.9521 74.1616 12.0918C74.1616 13.2355 73.8573 14.1433 73.2527 14.8192C72.6441 15.495 71.8354 15.835 70.8264 15.835C69.8094 15.835 68.9927 15.495 68.3761 14.8192C67.7675 14.1433 67.4672 13.2315 67.4672 12.0918C67.4672 10.9481 67.7715 10.0403 68.3761 9.36441C68.9927 8.68456 69.8094 8.34863 70.8264 8.34863ZM79.1183 12.3038C79.3305 12.3757 79.5346 12.5277 79.7348 12.7637C79.931 12.9916 80.1312 13.3115 80.3394 13.7194L81.3324 15.691H80.2794L79.3585 13.8354C79.1143 13.3555 78.882 13.0356 78.6618 12.8796C78.4336 12.7237 78.1253 12.6437 77.741 12.6437H76.6759V15.691H75.695V8.47661H77.9051C78.7339 8.47661 79.3505 8.64857 79.7629 8.99649C80.1632 9.33642 80.3674 9.8563 80.3674 10.5561C80.3674 11.012 80.2593 11.392 80.0471 11.6919C79.8269 11.9878 79.5226 12.1958 79.1183 12.3038ZM77.9011 9.28043H76.6719V11.8439H77.9011C78.3736 11.8439 78.7299 11.7319 78.9661 11.5119C79.2104 11.292 79.3345 10.972 79.3345 10.5561C79.3345 10.1322 79.2104 9.81231 78.9661 9.60036C78.7299 9.3884 78.3736 9.28043 77.9011 9.28043ZM82.5855 15.695V8.47661H87.1499V9.29242H83.5665V11.4319H87.0097V12.2598H83.5665V14.8712H87.246V15.699H82.5855V15.695ZM91.9985 15.695V8.47661H92.9794V15.695H91.9985ZM93.9283 9.29242V8.47661H100.042V9.29242H97.4757V15.695H96.4947V9.29242H93.9283ZM107.069 9.14046C106.36 9.14046 105.796 9.4044 105.379 9.93228C104.963 10.4602 104.751 11.18 104.751 12.0958C104.751 12.9996 104.959 13.7234 105.379 14.2593C105.796 14.7872 106.36 15.0511 107.069 15.0511C107.777 15.0511 108.342 14.7872 108.758 14.2593C109.167 13.7234 109.375 13.0036 109.375 12.0958C109.375 11.184 109.171 10.4602 108.758 9.93228C108.342 9.4004 107.777 9.14046 107.069 9.14046ZM107.069 8.34863C108.086 8.34863 108.898 8.68856 109.507 9.36441C110.116 10.0403 110.416 10.9521 110.416 12.0918C110.416 13.2355 110.112 14.1433 109.507 14.8192C108.902 15.495 108.086 15.835 107.069 15.835C106.052 15.835 105.239 15.495 104.63 14.8192C104.022 14.1433 103.722 13.2315 103.722 12.0918C103.722 10.9481 104.026 10.0403 104.63 9.36441C105.239 8.68456 106.052 8.34863 107.069 8.34863ZM111.941 15.695V8.47661H113.255L116.462 14.5153V8.47661H117.419V15.695H116.093L112.886 9.65634V15.695H111.941Z" fill="white"/>
<path fill-rule="evenodd" clip-rule="evenodd" d="M18.4403 8.49902H31.3085C37.3783 8.49902 39.5883 10.7065 39.5883 16.7692V29.6223C39.5883 35.685 37.3662 37.9045 31.3085 37.9045H18.4403C12.3705 37.9045 10.1484 35.685 10.1484 29.6223V16.7692C10.1484 10.7065 12.3705 8.49902 18.4403 8.49902ZM22.3559 27.036L22.7122 26.2441H24.4659L24.8102 27.036H25.627L23.9374 23.1968H23.2528L21.5632 27.036H22.3559ZM24.1736 25.5483H22.9925L23.5811 24.1766L24.1736 25.5483ZM36.3131 23.1968H35.5324V27.036H36.3131V23.1968ZM34.6115 26.3401H32.4695V25.3923H33.8908V24.6845H32.4695V23.9047H34.5275V23.1968H31.7008V27.036H34.6115V26.3401ZM31.0722 23.1968H30.2554L29.4066 25.8442L28.5298 23.1968H27.8892L27.0243 25.8442L26.1715 23.1968H25.3307L26.68 27.048H27.3206L28.1974 24.5205L29.0743 27.048H29.7349L31.0722 23.1968ZM21.1628 23.1968H20.382V25.4003C20.382 26.0242 20.0737 26.3681 19.5052 26.3681C18.9367 26.3681 18.6284 26.0242 18.6284 25.3763V23.2008H17.8476V25.3963C17.8476 26.4801 18.4522 27.1079 19.4932 27.1079C20.5582 27.1079 21.1628 26.4721 21.1628 25.3723V23.1968ZM16.7626 23.1968H15.9819V24.7445H14.2202V23.1968H13.4395V27.048H14.2202V25.4763H15.9819V27.048H16.7626V23.1968ZM19.9777 13.415C19.9777 16.1104 22.1637 18.3059 24.8743 18.3059C27.5729 18.3059 29.7709 16.1064 29.7709 13.415H29.0863C29.0863 15.7305 27.1925 17.6101 24.8743 17.6101C22.5561 17.6101 20.6623 15.7305 20.6623 13.415H19.9777Z" fill="white"/>
</svg>
