<svg width="25" height="26" viewBox="0 0 25 26" fill="none" xmlns="http://www.w3.org/2000/svg">
<path d="M8.33434 13C8.33434 10.6069 10.1993 8.66632 12.5005 8.66632C14.8017 8.66632 16.6677 10.6069 16.6677 13C16.6677 15.3931 14.8017 17.3337 12.5005 17.3337C10.1993 17.3337 8.33434 15.3931 8.33434 13ZM6.08163 13C6.08163 16.6868 8.95533 19.6754 12.5005 19.6754C16.0457 19.6754 18.9194 16.6868 18.9194 13C18.9194 9.31317 16.0457 6.32464 12.5005 6.32464C8.95533 6.32464 6.08163 9.31317 6.08163 13ZM17.6734 6.06002C17.6734 6.92108 18.3448 7.62044 19.1738 7.62044C20.0018 7.62044 20.6743 6.92108 20.6743 6.06002C20.6743 5.19895 20.0028 4.50065 19.1738 4.50065C18.3448 4.50065 17.6734 5.19895 17.6734 6.06002ZM7.44982 23.5817C6.23107 23.5239 5.56868 23.3128 5.12844 23.1343C4.54481 22.8981 4.1288 22.6166 3.69058 22.162C3.25336 21.7073 2.98174 21.2746 2.75556 20.6677C2.58391 20.2099 2.38095 19.521 2.32542 18.2536C2.26483 16.8832 2.25272 16.4716 2.25272 13C2.25272 9.52843 2.26584 9.11785 2.32542 7.74645C2.38095 6.479 2.58492 5.79119 2.75556 5.33231C2.98275 4.72536 3.25336 4.29273 3.69058 3.83699C4.12779 3.38231 4.5438 3.09984 5.12844 2.86462C5.56868 2.68611 6.23107 2.47504 7.44982 2.41729C8.76752 2.35428 9.16333 2.34168 12.5005 2.34168C15.8387 2.34168 16.2335 2.35533 17.5522 2.41729C18.771 2.47504 19.4323 2.68716 19.8736 2.86462C20.4572 3.09984 20.8732 3.38231 21.3114 3.83699C21.7487 4.29168 22.0193 4.72536 22.2465 5.33231C22.4181 5.79014 22.6211 6.479 22.6766 7.74645C22.7372 9.11785 22.7493 9.52843 22.7493 13C22.7493 16.4705 22.7372 16.8821 22.6766 18.2536C22.6211 19.521 22.4171 20.2099 22.2465 20.6677C22.0193 21.2746 21.7487 21.7073 21.3114 22.162C20.8742 22.6166 20.4572 22.8981 19.8736 23.1343C19.4333 23.3128 18.771 23.5239 17.5522 23.5817C16.2345 23.6447 15.8387 23.6573 12.5005 23.6573C9.16333 23.6573 8.76752 23.6447 7.44982 23.5817ZM7.34682 0.0787561C6.01599 0.141761 5.10723 0.361228 4.31257 0.682552C3.49065 1.01438 2.79393 1.45961 2.09823 2.18207C1.40353 2.90452 0.975403 3.62908 0.656327 4.48489C0.347348 5.31131 0.136314 6.25638 0.07573 7.64039C0.0141363 9.02649 0 9.46963 0 13C0 16.5304 0.0141363 16.9735 0.07573 18.3596C0.136314 19.7436 0.347348 20.6887 0.656327 21.5151C0.975403 22.3699 1.40252 23.0955 2.09823 23.8179C2.79292 24.5404 3.48964 24.9846 4.31257 25.3174C5.10824 25.6388 6.01599 25.8582 7.34682 25.9212C8.68068 25.9842 9.10578 26 12.5005 26C15.8962 26 16.3213 25.9853 17.6542 25.9212C18.985 25.8582 19.8938 25.6388 20.6884 25.3174C21.5104 24.9846 22.2071 24.5404 22.9028 23.8179C23.5975 23.0955 24.0246 22.3699 24.3447 21.5151C24.6537 20.6887 24.8657 19.7436 24.9253 18.3596C24.9859 16.9725 25 16.5304 25 13C25 9.46963 24.9859 9.02649 24.9253 7.64039C24.8647 6.25638 24.6537 5.31131 24.3447 4.48489C24.0246 3.63013 23.5975 2.90557 22.9028 2.18207C22.2081 1.45961 21.5104 1.01438 20.6894 0.682552C19.8938 0.361228 18.985 0.140711 17.6552 0.0787561C16.3223 0.0157512 15.8962 0 12.5015 0C9.10578 0 8.68068 0.0147011 7.34682 0.0787561Z" fill="white"/>
</svg>
