<svg width="28" height="28" viewBox="0 0 28 28" fill="none" xmlns="http://www.w3.org/2000/svg">
<path d="M10.7579 10.9232C9.8814 10.9232 8.84819 10.7411 7.63714 10.288C7.54821 10.2542 7.45082 10.2711 7.3873 10.3304L7.16711 10.5379C6.87917 10.8046 6.4769 10.8893 6.1085 10.7665C5.73587 10.6395 5.46909 10.3177 5.40558 9.92811C5.19386 8.60696 4.47823 8.04378 3.23754 8.20469C3.00888 8.23433 2.80562 8.07342 2.77598 7.849C2.74634 7.62457 2.90725 7.41708 3.13168 7.38744C4.81275 7.17148 5.93489 8.04802 6.21859 9.79684C6.23977 9.92811 6.33716 9.97469 6.3795 9.9874C6.43032 10.0043 6.52347 10.0213 6.6124 9.93658L6.83259 9.72909C7.12477 9.45385 7.54821 9.3734 7.92931 9.51737C11.9012 11.0037 13.6458 9.31835 14.3318 8.17928C14.48 7.93368 14.5308 7.64151 14.4715 7.35356L14.3022 6.4982C14.1667 5.80375 14.5435 5.10083 15.1999 4.83406L15.7758 4.60117C16.0552 4.48684 16.2204 4.1989 16.1823 3.90248L15.9197 1.86571C15.8901 1.64128 16.051 1.4338 16.2754 1.40416C16.5041 1.37451 16.7073 1.53542 16.737 1.75985L16.9995 3.79662C17.0842 4.46567 16.7116 5.1093 16.0849 5.36337L15.509 5.59627C15.2168 5.71483 15.0474 6.02818 15.1067 6.34153L15.2761 7.19689C15.3735 7.68385 15.2846 8.18352 15.0305 8.60273C14.5435 9.41574 13.2944 10.9232 10.7579 10.9232Z" fill="white" stroke="white" stroke-width="0.6"/>
<path d="M27.3 14C27.3 21.3454 21.3454 27.3 14 27.3C6.65461 27.3 0.7 21.3454 0.7 14C0.7 6.65461 6.65461 0.7 14 0.7C21.3454 0.7 27.3 6.65461 27.3 14Z" stroke="white" stroke-width="1.4"/>
<path d="M14.9945 26.9108C14.7504 26.9108 14.5559 26.7202 14.5559 26.8937C14.5559 26.6543 14.7504 26.5606 14.9945 26.5606C15.2206 26.5606 15.4759 25.5457 15.6794 25.1196C16.229 23.881 15.6794 25.1196 16.3465 23.4385C16.3465 23.4252 16.3511 23.4119 16.3511 23.403C16.3827 23.2345 16.4777 23.0883 16.5862 22.9242C16.7399 22.6893 16.9118 22.4233 16.8892 22.0952C16.862 21.6341 16.4279 21.1022 15.9712 20.5347C15.8717 20.4106 15.7677 20.282 15.6682 20.1579C15.3427 19.7411 15.2522 19.586 15.1708 19.453C15.1075 19.3466 15.0533 19.2579 14.8588 19.0052C14.8317 18.9742 14.7503 18.89 14.574 18.788C14.0494 18.4954 13.3892 18.5309 12.833 18.8722L10.3143 20.4194C10.2736 20.4416 10.2329 20.4593 10.1877 20.4726C9.97972 20.5258 9.75815 20.548 9.53205 20.548H8.29758C8.24331 20.548 8.18905 20.5391 8.13479 20.517L6.94101 20.0559C6.45717 19.8697 6.11351 19.4397 6.0502 18.9299C5.92811 17.9723 5.09156 17.2496 4.11031 17.2496C3.98822 17.2496 3.86161 17.2585 3.73952 17.2807L1.91827 17.4624C1.68313 17.5068 1.45252 17.356 1.4073 17.1211C1.36208 16.8861 1.51582 16.6645 1.75548 16.6201L3.58125 16.4339C5.2227 16.1502 6.72396 17.2674 6.92292 18.8235C6.94553 19.0185 7.07667 19.1825 7.26659 19.2535L8.38349 19.6835H9.53657C9.66771 19.6835 9.79432 19.6702 9.91641 19.648L12.3763 18.1407C13.2038 17.6353 14.2077 17.591 14.999 18.0299C15.2432 18.1673 15.4241 18.3136 15.5552 18.4688C15.7903 18.7703 15.8627 18.8855 15.935 19.0096C16.0074 19.1293 16.0797 19.2535 16.3737 19.6303C16.4686 19.7544 16.5681 19.8741 16.6676 19.9938C17.2147 20.6677 17.7302 21.3061 17.7754 22.0331C17.8161 22.6449 17.5267 23.0883 17.3323 23.3853C17.2916 23.4429 17.2419 23.5227 17.2238 23.5582C17.0881 24.3606 16.7309 25.7671 16.229 26.3966C16.1521 26.4941 16.039 26.5518 15.917 26.5606C15.6185 26.5917 15.3201 26.9108 14.9945 26.9108ZM21.9632 23.7399C21.8819 23.7399 21.8005 23.7178 21.7281 23.6734C21.5834 23.5803 18.5532 21.3548 18.716 17.5733C18.725 17.3915 18.7567 17.2186 18.7884 17.0501C18.8743 16.5847 18.933 16.2522 18.5351 15.8C18.5216 15.7911 18.4899 15.7556 18.4628 15.7202C17.7619 14.9177 17.4544 13.8183 17.6398 12.7366C17.8297 11.6327 18.4989 10.6751 19.4802 10.1032L20.0635 9.76629C20.2263 9.6732 20.2851 9.46927 20.1947 9.30524L20.0047 8.95944C19.539 8.09495 19.5073 7.09304 19.9098 6.20638L20.8272 4.6985C20.9176 4.50787 21.4735 3.93779 21.6363 3.81809C21.5323 3.85356 21.7041 3.76933 21.6363 3.81809C21.8624 3.73829 21.7339 3.82161 21.8153 4.04328C22.3185 3.3835 22.4066 3.93676 22.1805 4.01656C22.176 4.021 22.1624 4.02986 22.1489 4.04316C22.1127 4.06976 21.2347 5.4084 21.2076 5.46603L20.7147 6.55218C20.4207 7.19944 20.4434 7.92649 20.778 8.55158L20.9679 8.89738C21.2799 9.4737 21.0764 10.1742 20.5067 10.5066L19.9233 10.8436C19.1637 11.2825 18.6482 12.0228 18.5035 12.8784C18.3588 13.7119 18.5939 14.5498 19.1501 15.1882C19.1591 15.197 19.1908 15.2281 19.1953 15.2369C19.8691 15.9995 19.7425 16.6955 19.6475 17.2053C19.6204 17.3516 19.5932 17.489 19.5887 17.6132C19.4485 20.8982 22.1667 22.9375 22.1984 22.9553C22.4019 23.0838 22.4607 23.3498 22.3295 23.5493C22.2481 23.669 22.1079 23.7399 21.9632 23.7399Z" fill="white"/>
<path d="M21.6363 3.81809C21.4735 3.93779 20.9176 4.50787 20.8272 4.6985L19.9098 6.20638C19.5073 7.09304 19.539 8.09495 20.0047 8.95944L20.1947 9.30524C20.2851 9.46927 20.2263 9.6732 20.0635 9.76629L19.4802 10.1032C18.4989 10.6751 17.8297 11.6327 17.6398 12.7366C17.4544 13.8183 17.7619 14.9177 18.4628 15.7202C18.4899 15.7556 18.5216 15.7911 18.5351 15.8C18.933 16.2522 18.8743 16.5847 18.7884 17.0501C18.7567 17.2186 18.725 17.3915 18.716 17.5733C18.5532 21.3548 21.5834 23.5803 21.7281 23.6734C21.8005 23.7178 21.8819 23.7399 21.9632 23.7399C22.1079 23.7399 22.2481 23.669 22.3295 23.5493C22.4607 23.3498 22.4019 23.0838 22.1984 22.9553C22.1667 22.9375 19.4485 20.8982 19.5887 17.6132C19.5932 17.489 19.6204 17.3516 19.6475 17.2053C19.7425 16.6955 19.8691 15.9995 19.1953 15.2369C19.1908 15.2281 19.1591 15.197 19.1501 15.1882C18.5939 14.5498 18.3588 13.7119 18.5035 12.8784C18.6482 12.0228 19.1637 11.2825 19.9233 10.8436L20.5067 10.5066C21.0764 10.1742 21.2799 9.4737 20.9679 8.89738L20.778 8.55158C20.4434 7.92649 20.4207 7.19944 20.7147 6.55218L21.2076 5.46603C21.2347 5.4084 22.1127 4.06976 22.1489 4.04316C22.1624 4.02986 22.176 4.021 22.1805 4.01656C22.4066 3.93676 22.3185 3.3835 21.8153 4.04328C21.7339 3.82161 21.8624 3.73829 21.6363 3.81809ZM21.6363 3.81809C21.7041 3.76933 21.5323 3.85356 21.6363 3.81809ZM14.9945 26.9108C14.7504 26.9108 14.5559 26.7202 14.5559 26.8937C14.5559 26.6543 14.7504 26.5606 14.9945 26.5606C15.2206 26.5606 15.4759 25.5457 15.6794 25.1196C16.229 23.881 15.6794 25.1196 16.3465 23.4385C16.3465 23.4252 16.3511 23.4119 16.3511 23.403C16.3827 23.2345 16.4777 23.0883 16.5862 22.9242C16.7399 22.6893 16.9118 22.4233 16.8892 22.0952C16.862 21.6341 16.4279 21.1022 15.9712 20.5347C15.8717 20.4106 15.7677 20.282 15.6682 20.1579C15.3427 19.7411 15.2522 19.586 15.1708 19.453C15.1075 19.3466 15.0533 19.2579 14.8588 19.0052C14.8317 18.9742 14.7503 18.89 14.574 18.788C14.0494 18.4954 13.3892 18.5309 12.833 18.8722L10.3143 20.4194C10.2736 20.4416 10.2329 20.4593 10.1877 20.4726C9.97972 20.5258 9.75815 20.548 9.53205 20.548H8.29758C8.24331 20.548 8.18905 20.5391 8.13479 20.517L6.94101 20.0559C6.45717 19.8697 6.11351 19.4397 6.0502 18.9299C5.92811 17.9723 5.09156 17.2496 4.11031 17.2496C3.98822 17.2496 3.86161 17.2585 3.73952 17.2807L1.91827 17.4624C1.68313 17.5068 1.45252 17.356 1.4073 17.1211C1.36208 16.8861 1.51582 16.6645 1.75548 16.6201L3.58125 16.4339C5.2227 16.1502 6.72396 17.2674 6.92292 18.8235C6.94553 19.0185 7.07667 19.1825 7.26659 19.2535L8.38349 19.6835H9.53657C9.66771 19.6835 9.79432 19.6702 9.91641 19.648L12.3763 18.1407C13.2038 17.6353 14.2077 17.591 14.999 18.0299C15.2432 18.1673 15.4241 18.3136 15.5552 18.4688C15.7903 18.7703 15.8627 18.8855 15.935 19.0096C16.0074 19.1293 16.0797 19.2535 16.3737 19.6303C16.4686 19.7544 16.5681 19.8741 16.6676 19.9938C17.2147 20.6677 17.7302 21.3061 17.7754 22.0331C17.8161 22.6449 17.5267 23.0883 17.3323 23.3853C17.2916 23.4429 17.2419 23.5227 17.2238 23.5582C17.0881 24.3606 16.7309 25.7671 16.229 26.3966C16.1521 26.4941 16.039 26.5518 15.917 26.5606C15.6185 26.5917 15.3201 26.9108 14.9945 26.9108Z" stroke="white" stroke-width="0.6"/>
</svg>
