<svg width="80" height="40" viewBox="0 0 80 40" fill="none" xmlns="http://www.w3.org/2000/svg">
<g clip-path="url(#clip0_397_1604)">
<path d="M78.8386 38.5384L60.5127 38.3474V37.9337C60.5444 35.4195 58.527 33.3508 56.0237 33.3296C53.5204 33.2978 51.4607 35.324 51.4396 37.8382V38.252L0.771484 37.7109L0.824297 33.075H1.22567C2.8206 33.0538 4.14091 31.7489 4.15147 30.147C4.17259 28.5451 2.88397 27.2085 1.28904 27.1554H0.887671L0.940484 22.1164H1.34186C2.93679 22.0952 4.25709 20.7903 4.26766 19.1884C4.28878 17.5865 3.00016 16.2499 1.40523 16.1968H1.00386L1.05667 11.1578H1.45804C3.05297 11.1472 4.37328 9.83169 4.38384 8.22981C4.40497 6.62792 3.11635 5.29124 1.52142 5.2382H1.12005L1.17286 0.581055L51.8409 1.12209V1.53582C51.8092 4.05004 53.8267 6.11871 56.33 6.13993C58.8333 6.17175 60.893 4.14552 60.9141 1.6313V1.21757L79.2399 1.40852L79.1871 6.05506H78.7857C77.1908 6.06567 75.8705 7.38112 75.8599 8.98301C75.8388 10.5849 77.1274 11.9216 78.7224 11.9746H79.1237L79.0709 17.0137H78.6696C77.0746 17.0243 75.7543 18.3397 75.7438 19.9416C75.7226 21.5435 77.0112 22.8802 78.6062 22.9332H79.0076L78.9547 27.9723H78.5534C76.9584 27.9935 75.6381 29.2984 75.6276 30.9002C75.6064 32.5021 76.8951 33.8388 78.49 33.8918H78.8914L78.8386 38.549V38.5384ZM61.326 37.5306L78.0253 37.7109L78.0569 34.6769C76.2085 34.4223 74.7826 32.7992 74.7931 30.8896C74.8143 28.9801 76.2719 27.3888 78.1309 27.1766L78.1626 23.7183C76.3141 23.4637 74.8882 21.8406 74.8988 19.931C74.9199 18.0215 76.3775 16.4302 78.2365 16.218L78.2682 12.7596C76.4198 12.505 74.9938 10.8819 75.0044 8.9724C75.0255 7.06287 76.4937 5.47159 78.3421 5.25942L78.3738 2.22538L61.6746 2.04503C61.4316 4.81386 59.0973 6.98861 56.2772 6.95678C53.457 6.92496 51.1649 4.70777 50.9854 1.92834L1.96504 1.40852L1.93335 4.44256C3.78178 4.69717 5.20771 6.32027 5.19715 8.22981C5.17603 10.1393 3.71841 11.7306 1.85942 11.9428L1.82773 15.4012C3.67616 15.6558 5.10209 17.2789 5.09153 19.1884C5.0704 21.098 3.60222 22.6892 1.75379 22.9014L1.7221 26.3598C3.57053 26.6144 4.99646 28.2375 4.9859 30.147C4.96478 32.0566 3.4966 33.6479 1.64817 33.86L1.61648 36.8941L50.6685 37.4139C50.9114 34.6451 53.2457 32.4703 56.0554 32.5021C58.8755 32.534 61.1676 34.7511 61.3471 37.5306H61.326Z" fill="white" stroke="white" stroke-width="2.5" stroke-miterlimit="10"/>
<path d="M12.256 6.43271L11.9639 33.1157L12.7771 33.1247L13.0693 6.44169L12.256 6.43271Z" fill="white" stroke="white" stroke-width="1.44" stroke-miterlimit="10"/>
<path d="M56.4774 29.5661H55.6641L55.6957 26.2775H56.5091L56.4774 29.5661ZM56.5407 24.0921H55.7274L55.7591 20.8035H56.5724L56.5407 24.0921ZM56.5936 18.6181H55.7803L55.8119 15.3295H56.6252L56.5936 18.6181ZM56.6464 13.1441H55.8331L55.8647 9.85547H56.6781L56.6464 13.1441Z" fill="white" stroke="white" stroke-miterlimit="10"/>
<path d="M35.5739 19.6201C34.581 19.0685 33.4086 18.8139 32.2362 18.8669C31.3806 18.9093 30.5356 19.1109 29.7751 19.4822C29.4688 19.6201 29.1731 19.7898 28.8879 19.9702L28.9935 9.21313C28.7506 9.26618 28.5076 9.31922 28.2753 9.38287C27.3775 9.60565 26.5008 9.88147 25.6452 10.1997L25.5713 17.5302C25.5501 19.3443 25.8776 21.0735 26.4796 22.6648C27.0395 24.1287 27.8316 25.476 28.8139 26.6536L28.8984 26.5899C28.7294 25.2214 29.0991 23.7786 29.9864 22.686C30.5568 21.9434 31.3384 21.3811 32.2045 21.0098L32.1306 28.0115V29.5391L32.12 29.5603C32.2362 29.624 32.3524 29.6876 32.4686 29.7513C32.8594 29.9846 33.2713 30.1968 33.6832 30.3878C33.7149 30.3984 33.7466 30.4196 33.7783 30.4302C33.81 30.4196 33.8417 30.3984 33.8734 30.3878C33.9051 30.3665 33.9473 30.3559 33.979 30.3347C34.486 30.1119 34.9719 29.8467 35.4472 29.5709V28.0857L35.5317 20.6279C36.0492 20.7128 36.5562 20.8507 37.0527 21.0416L37.116 20.9674C36.683 20.4157 36.1443 19.9596 35.5422 19.6307" fill="white"/>
<path d="M39.7358 9.48902C39.5035 9.42537 39.2605 9.36172 39.0176 9.30868L38.9648 14.5387C37.9085 14.1037 36.7572 13.9234 35.6271 13.987L35.6799 8.78886C35.1306 8.74642 34.5708 8.7146 34.011 8.7146C33.4512 8.7146 32.8914 8.7146 32.3421 8.75703L32.2788 15.0055C31.6028 15.4298 31.0007 15.9708 30.5254 16.6498L30.5888 16.7346C31.138 16.4907 31.6978 16.2997 32.2682 16.183C33.3984 15.9496 34.5391 15.9602 35.6059 16.236C36.884 16.5649 38.0459 17.2439 38.9225 18.3047L38.8486 26.1338V26.5794L38.9437 26.6324C40.9928 24.2243 42.2391 21.1054 42.2708 17.6894V17.0953L42.3448 10.3695C41.4998 10.0301 40.6231 9.73302 39.7358 9.49963" fill="white"/>
</g>
<defs>
<clipPath id="clip0_397_1604">
<rect width="80" height="39.5062" fill="white"/>
</clipPath>
</defs>
</svg>
