<svg width="84" height="73" viewBox="0 0 84 73" fill="none" xmlns="http://www.w3.org/2000/svg">
<path d="M18.5546 29V71.1989H66.0363V29M18.5547 39.5568L2.72754 29L13.2742 7.91466C13.2742 7.91466 20.362 2.63623 29.1015 2.63623M29.1015 2.63623C32.4053 7.9005 35.0032 13.1789 42.2884 13.1789C49.5737 13.1789 52.1714 7.9005 55.4752 2.63623M29.1015 2.63623H55.4895C64.2431 2.63623 71.3166 7.91466 71.3166 7.91466L81.8635 29L66.0363 39.5568M42.2884 24.3708L46.3688 32.6271L55.4895 33.9537L48.896 40.3753L50.4491 49.4502L42.2884 45.1738L34.1419 49.4502L35.695 40.3753L29.1015 33.9537L38.2222 32.6271L42.2884 24.3708Z" stroke="white" stroke-width="3.5" stroke-linecap="round" stroke-linejoin="round"/>
</svg>
