<svg width="84" height="84" viewBox="0 0 84 84" fill="none" xmlns="http://www.w3.org/2000/svg">
<path d="M42 0C33.6932 0 25.5729 2.46326 18.6661 7.07827C11.7592 11.6933 6.37596 18.2528 3.19708 25.9273C0.0181978 33.6018 -0.813542 42.0466 0.807037 50.1938C2.42761 58.341 6.42773 65.8247 12.3015 71.6985C18.1753 77.5723 25.659 81.5724 33.8062 83.193C41.9534 84.8135 50.3982 83.9818 58.0727 80.8029C65.7472 77.624 72.3067 72.2408 76.9217 65.3339C81.5367 58.4271 84 50.3068 84 42C84 30.8609 79.575 20.178 71.6985 12.3015C63.8219 4.42499 53.1391 0 42 0ZM55.4467 43.1366L35.1158 54.8747C34.9163 54.9899 34.6899 55.0506 34.4596 55.0506C34.2292 55.0506 34.0028 54.9899 33.8033 54.8747C33.6038 54.7596 33.4381 54.5939 33.3229 54.3944C33.2077 54.1949 33.147 53.9685 33.147 53.7381V30.2618C33.147 30.0314 33.2076 29.8051 33.3228 29.6055C33.438 29.4059 33.6036 29.2402 33.8032 29.125C34.0027 29.0098 34.2291 28.9491 34.4595 28.9491C34.6899 28.9491 34.9162 29.0097 35.1158 29.1249L55.4467 40.8634C55.6462 40.9786 55.8118 41.1443 55.927 41.3438C56.0422 41.5433 56.1028 41.7696 56.1028 42C56.1028 42.2304 56.0422 42.4567 55.927 42.6562C55.8118 42.8557 55.6462 43.0214 55.4467 43.1366Z" fill="white"/>
</svg>
