<svg width="140" height="47" viewBox="0 0 140 47" fill="none" xmlns="http://www.w3.org/2000/svg">
<path d="M133.065 46.945H6.93576C3.11098 46.945 0 43.8303 0 40.0019V6.94265C0 3.11417 3.11052 0 6.93576 0H133.065C136.889 0 140 3.11418 140 6.9422V40.0019C140 43.8303 136.889 46.945 133.065 46.945ZM6.93576 1.64009C4.01518 1.64009 1.63862 4.01831 1.63862 6.9422V40.0019C1.63862 42.9258 4.01518 45.3049 6.93576 45.3049H133.065C135.986 45.3049 138.362 42.9258 138.362 40.0019V6.94265C138.362 4.0183 135.986 1.64009 133.065 1.64009H6.93576ZM46.5232 13.7024H45.5937C45.5937 13.5743 45.5053 13.2117 45.329 12.6149H43.9863C43.8041 13.202 43.7131 13.5646 43.7131 13.7024H42.8389C42.8389 13.6268 43.0642 13.0065 43.517 11.8406C43.9693 10.6752 44.1957 10.0334 44.1957 9.91547H45.2942C45.2942 10.0261 45.499 10.6584 45.909 11.8132C46.3185 12.968 46.5232 13.5978 46.5232 13.7024ZM45.181 12.0587C44.8497 11.0587 44.684 10.5173 44.684 10.4357H44.637C44.637 10.5113 44.4658 11.0523 44.1229 12.0587H45.181ZM50.2703 13.7024H49.5524C49.5524 13.6227 49.2856 13.2029 48.7537 12.443C48.1955 11.6421 47.8774 11.0942 47.8001 10.7993H47.7541C47.8019 11.2242 47.8264 11.608 47.8264 11.9514C47.8264 12.4306 47.8402 13.0139 47.8669 13.7024H47.1528C47.1813 13.101 47.1959 12.4412 47.1959 11.7214C47.1959 11.0136 47.1813 10.4113 47.1528 9.91502H48.0149C48.0149 10.0182 48.2542 10.4283 48.7332 11.1454C49.2426 11.9076 49.5354 12.4247 49.6108 12.6961H49.6547C49.6107 12.3098 49.5872 11.9212 49.5846 11.5324C49.5846 11.0071 49.5708 10.468 49.5441 9.91502H50.2707C50.2403 10.5167 50.2264 11.119 50.2292 11.7214C50.2292 12.4509 50.2431 13.1111 50.2707 13.7028L50.2703 13.7024ZM54.482 11.6775C54.482 12.2287 54.3058 12.7099 53.9533 13.1205C53.6004 13.532 53.1065 13.737 52.4715 13.737C52.076 13.7343 51.6808 13.7226 51.2859 13.7024C51.3107 13.1171 51.3236 12.4564 51.3236 11.7214C51.3236 11.0159 51.3107 10.4136 51.2859 9.91502H51.7943C51.8772 9.91502 52.0012 9.91224 52.166 9.90625C52.3307 9.90071 52.438 9.89792 52.4886 9.89792C53.188 9.89792 53.6952 10.0722 54.0099 10.4215C54.3247 10.7704 54.482 11.189 54.482 11.6775ZM53.6886 11.8031C53.6886 11.4307 53.5805 11.1172 53.3633 10.8619C53.1466 10.607 52.8154 10.4796 52.3695 10.4796C52.2867 10.4796 52.1716 10.4882 52.0266 10.5057C52.046 10.8932 52.0561 11.2988 52.0561 11.7214C52.0561 12.185 52.0653 12.645 52.0846 13.1002C52.2107 13.1256 52.3367 13.138 52.4623 13.138C52.8787 13.138 53.1876 13.0089 53.3882 12.7495C53.5884 12.4909 53.6886 12.1754 53.6886 11.8031ZM58.3657 13.7024H57.5051C57.2806 13.0158 57.1087 12.5924 56.9886 12.4311C56.868 12.2702 56.6747 12.1896 56.4069 12.1896C56.295 12.1896 56.1873 12.1909 56.0847 12.1928C56.0847 12.6909 56.0935 13.1941 56.1109 13.7024H55.303C55.3278 13.1171 55.3407 12.4564 55.3407 11.7214C55.3407 11.0159 55.3278 10.4136 55.303 9.91502H55.8054C55.8638 9.91502 55.9853 9.91224 56.1703 9.90625C56.3552 9.90071 56.5265 9.89792 56.6834 9.89792C57.5725 9.89792 58.0169 10.202 58.0169 10.8112C58.0169 11.2937 57.7633 11.6305 57.2557 11.8204V11.8643C57.4513 11.9182 57.623 12.0712 57.7702 12.3224C57.9175 12.5735 58.1153 13.0333 58.3657 13.7024ZM57.2762 11.0266C57.2762 10.6404 57.028 10.4472 56.532 10.4472C56.3498 10.4472 56.1893 10.4612 56.0498 10.4883C56.071 10.7888 56.082 11.1804 56.082 11.6633C56.1878 11.6675 56.2784 11.6694 56.352 11.6694C56.9682 11.6694 57.2762 11.4551 57.2762 11.0266ZM62.5311 11.7389C62.5311 12.3343 62.3493 12.8278 61.9849 13.2195C61.6209 13.6112 61.1704 13.807 60.6338 13.807C60.1221 13.807 59.6942 13.6273 59.3491 13.2679C59.004 12.908 58.8319 12.4508 58.8319 11.896C58.8319 11.3006 59.0141 10.8071 59.3785 10.4154C59.7425 10.0237 60.193 9.82794 60.7295 9.82794C61.2412 9.82794 61.6692 10.0076 62.0143 10.3662C62.3585 10.7247 62.5315 11.1823 62.5315 11.7394L62.5311 11.7389ZM61.7289 11.8233C61.7289 11.4178 61.626 11.0892 61.4184 10.8371C61.2114 10.5855 60.9551 10.4593 60.6514 10.4593C60.3684 10.4593 60.128 10.5859 59.9306 10.8403C59.7327 11.0942 59.6344 11.4151 59.6344 11.8035C59.6344 12.2067 59.7383 12.5347 59.9463 12.7877C60.1547 13.0407 60.4102 13.1671 60.712 13.1671C60.995 13.1671 61.2352 13.0399 61.4326 12.7846C61.6304 12.5297 61.7289 12.2095 61.7289 11.8233ZM64.1742 13.7024H63.3518C63.3771 13.101 63.3896 12.4412 63.3896 11.7214C63.3896 11.0136 63.3771 10.4113 63.3518 9.91502H64.1742C64.1466 10.5168 64.134 11.119 64.1364 11.7214C64.1364 12.4527 64.1493 13.113 64.1742 13.7028V13.7024ZM68.3863 11.6775C68.3863 12.2287 68.2097 12.7099 67.8572 13.1205C67.5042 13.532 67.0106 13.737 66.3756 13.737C65.9801 13.7343 65.5847 13.7226 65.1897 13.7024C65.2146 13.1171 65.2275 12.4564 65.2275 11.7214C65.2275 11.0159 65.2146 10.4136 65.1897 9.91502H65.6982C65.7815 9.91502 65.9053 9.91224 66.0701 9.90625C66.2348 9.90071 66.3425 9.89792 66.3927 9.89792C67.0921 9.89792 67.5991 10.0722 67.9138 10.4215C68.2286 10.7704 68.3863 11.189 68.3863 11.6775ZM67.5932 11.8031C67.5932 11.4307 67.4841 11.1172 67.2674 10.8619C67.0507 10.607 66.7188 10.4796 66.2734 10.4796C66.1901 10.4796 66.0759 10.4882 65.9305 10.5057C65.9499 10.8932 65.9595 11.2988 65.9595 11.7214C65.9595 12.185 65.9696 12.645 65.9889 13.1002C66.1146 13.1256 66.2408 13.138 66.3664 13.138C66.7833 13.138 67.0915 13.0089 67.2921 12.7495C67.4923 12.4909 67.5932 12.1754 67.5932 11.8031ZM73.974 13.7024H73.044C73.044 13.5743 72.9558 13.2117 72.7796 12.6149H71.4369C71.2551 13.202 71.1634 13.5646 71.1634 13.7024H70.2892C70.2892 13.6268 70.5156 13.0065 70.9679 11.8406C71.4198 10.6752 71.6456 10.0334 71.6456 9.91547H72.7445C72.7445 10.0261 72.9492 10.6584 73.3592 11.8132C73.7688 12.968 73.974 13.5978 73.974 13.7024ZM72.6313 12.0587C72.3 11.0587 72.1343 10.5173 72.1343 10.4357H72.088C72.088 10.5113 71.9163 11.0523 71.5735 12.0587H72.6313ZM77.3636 10.9066C77.3636 11.3707 77.1914 11.7131 76.8472 11.9338C76.504 12.155 76.082 12.2657 75.5818 12.2657C75.4912 12.2657 75.4264 12.2638 75.3872 12.2596C75.3872 12.6241 75.3982 13.1052 75.4194 13.7024H74.6026C74.628 13.142 74.6408 12.4817 74.6408 11.7214C74.6408 11.0233 74.628 10.4215 74.6026 9.91502H75.1089C75.1802 9.91502 75.3178 9.91224 75.5212 9.90625C75.7245 9.90071 75.9007 9.89792 76.0503 9.89792C76.4184 9.89792 76.7289 9.98086 76.9829 10.1477C77.2365 10.3145 77.3636 10.5679 77.3636 10.9071V10.9066ZM76.6136 11.0671C76.6136 10.6523 76.3389 10.4449 75.7885 10.4449C75.6509 10.4449 75.5054 10.4589 75.3526 10.4883C75.3738 10.8547 75.385 11.2697 75.385 11.7333C75.4329 11.737 75.4893 11.7389 75.5528 11.7389C76.2605 11.7389 76.6136 11.515 76.6136 11.0671ZM80.8486 10.9071C80.8486 11.3707 80.6767 11.7126 80.3334 11.9338C79.9892 12.155 79.5673 12.2657 79.068 12.2657C78.976 12.2657 78.9114 12.2638 78.8728 12.2596C78.8728 12.6241 78.8835 13.1052 78.9047 13.7024H78.0877C78.113 13.142 78.1259 12.4817 78.1259 11.7214C78.1259 11.0233 78.113 10.4215 78.0877 9.91502H78.5939C78.6653 9.91502 78.8028 9.91224 79.0062 9.90625C79.1826 9.90102 79.3589 9.89823 79.5354 9.89792C79.9035 9.89792 80.2142 9.98086 80.4682 10.1477C80.7218 10.3145 80.8486 10.5679 80.8486 10.9071ZM80.0986 11.0671C80.0986 10.6523 79.8239 10.4449 79.274 10.4449C79.136 10.4449 78.9907 10.4589 78.8379 10.4883C78.8591 10.8547 78.8701 11.2697 78.8701 11.7333C78.9184 11.737 78.9746 11.7389 79.0386 11.7389C79.7458 11.7389 80.0991 11.515 80.0991 11.0671H80.0986ZM86.5468 11.7389C86.5468 12.3343 86.3651 12.8278 86.0006 13.2195C85.6362 13.6112 85.1861 13.807 84.6496 13.807C84.1379 13.807 83.71 13.6273 83.3649 13.2679C83.0197 12.908 82.8476 12.4508 82.8476 11.896C82.8476 11.3006 83.0299 10.8071 83.3938 10.4154C83.7583 10.0237 84.2088 9.82794 84.7453 9.82794C85.2565 9.82794 85.685 10.0076 86.0296 10.3662C86.3747 10.7247 86.5468 11.1823 86.5468 11.7394V11.7389ZM85.7447 11.8233C85.7447 11.4178 85.6413 11.0892 85.4338 10.8371C85.2267 10.5855 84.9708 10.4593 84.6671 10.4593C84.3841 10.4593 84.144 10.5859 83.9466 10.8403C83.7487 11.0942 83.6498 11.4151 83.6498 11.8035C83.6498 12.2067 83.7536 12.5347 83.9625 12.7877C84.1705 13.0407 84.4255 13.1671 84.7278 13.1671C85.0108 13.1671 85.2509 13.0399 85.4484 12.7846C85.6462 12.5297 85.7447 12.2095 85.7447 11.8233ZM90.4858 13.7024H89.7679C89.7679 13.6227 89.502 13.2029 88.9691 12.443C88.411 11.6421 88.0934 11.0942 88.0156 10.7993H87.9695C88.0178 11.2242 88.0419 11.608 88.0419 11.9514C88.0419 12.4306 88.0556 13.0139 88.0823 13.7024H87.3676C87.398 13.0425 87.4127 12.382 87.4114 11.7214C87.4114 11.0136 87.3966 10.4113 87.3676 9.91502H88.2311C88.2311 10.0182 88.4701 10.4283 88.9487 11.1454C89.4581 11.9076 89.7504 12.4247 89.8259 12.6961H89.8695C89.8258 12.3098 89.8028 11.9212 89.8005 11.5324C89.8005 11.0071 89.7867 10.468 89.7591 9.91502H90.4862C90.4561 10.5167 90.4425 11.119 90.4453 11.7214C90.4453 12.4509 90.4591 13.1111 90.4858 13.7028V13.7024ZM56.2049 25.8362C56.2049 27.7154 55.6479 29.214 54.5334 30.3287C53.2685 31.6568 51.6226 32.3214 49.5947 32.3214C47.6537 32.3214 46.0046 31.6481 44.6471 30.3002C43.2878 28.9536 42.6097 27.2831 42.6097 25.291C42.6097 23.2984 43.2878 21.6295 44.6471 20.2816C46.0046 18.9347 47.6537 18.2613 49.5947 18.2613C50.5587 18.2613 51.4785 18.4489 52.3556 18.8254C53.2313 19.2005 53.9331 19.7029 54.4586 20.3287L53.2754 21.5129C52.3864 20.4484 51.1592 19.9146 49.5947 19.9146C48.1797 19.9146 46.9561 20.4129 45.9236 21.4096C44.891 22.4059 44.3744 23.6998 44.3744 25.291C44.3744 26.8827 44.891 28.1759 45.9236 29.1731C46.9561 30.1689 48.1797 30.6674 49.5947 30.6674C51.0971 30.6674 52.3492 30.1662 53.3505 29.1634C54.0016 28.5118 54.3765 27.6026 54.4764 26.4377H49.5947V24.8212H56.1109C56.1735 25.1728 56.2049 25.5104 56.2049 25.8362ZM58.2515 23.9101C59.1401 22.976 60.2731 22.5092 61.6507 22.5092C63.0275 22.5092 64.1603 22.976 65.0498 23.9101C65.9379 24.8437 66.3824 26.0114 66.3824 27.4155C66.3824 28.8192 65.9383 29.9873 65.0498 30.921C64.1603 31.855 63.0275 32.3219 61.6507 32.3219C60.2731 32.3219 59.1401 31.855 58.2515 30.921C57.3634 29.9873 56.918 28.8192 56.918 27.4155C56.918 26.0119 57.363 24.8438 58.2515 23.9097V23.9101ZM59.538 29.8301C60.1321 30.4384 60.8363 30.7425 61.6503 30.7425C62.4643 30.7425 63.1682 30.4384 63.7637 29.8301C64.3577 29.2228 64.6554 28.4183 64.6554 27.4155C64.6554 26.4128 64.3577 25.6081 63.7637 24.9994C63.1682 24.392 62.4643 24.0883 61.6507 24.0883C60.8363 24.0883 60.1321 24.392 59.538 24.9994C58.9426 25.6081 58.6458 26.4128 58.6458 27.4155C58.6458 28.4183 58.9426 29.2228 59.538 29.8301ZM68.2985 23.9097C69.187 22.9761 70.32 22.5092 71.6973 22.5092C73.074 22.5092 74.2068 22.976 75.0958 23.9101C75.9848 24.8437 76.4289 26.0114 76.4289 27.4155C76.4289 28.8192 75.9848 29.9873 75.0958 30.921C74.2068 31.855 73.074 32.3219 71.6973 32.3219C70.32 32.3219 69.187 31.855 68.2985 30.921C67.4095 29.9873 66.965 28.8192 66.965 27.4155C66.965 26.0119 67.4095 24.8438 68.2985 23.9097ZM69.5846 29.8301C70.1791 30.4384 70.8832 30.7425 71.6973 30.7425C72.5113 30.7425 73.2148 30.4384 73.8097 29.8301C74.4043 29.2228 74.702 28.4183 74.702 27.4155C74.702 26.4128 74.4043 25.6081 73.8097 24.9994C73.2148 24.392 72.5113 24.0883 71.6973 24.0883C70.8828 24.0883 70.1788 24.392 69.5852 24.9994C68.9898 25.6081 68.6923 26.4128 68.6923 27.4155C68.6923 28.4183 68.9898 29.2228 69.5852 29.8301H69.5846ZM81.5375 36.3817C80.4479 36.3817 79.5589 36.1092 78.8705 35.5636C78.1817 35.0184 77.6869 34.3947 77.3874 33.6933L78.9649 33.036C79.1397 33.536 79.4623 33.9567 79.9321 34.2945C80.4006 34.6332 80.9361 34.8024 81.538 34.8024C82.4886 34.8024 83.2364 34.5171 83.7817 33.9471C84.326 33.3771 84.5982 32.6033 84.5982 31.6255V30.7425H84.5231C84.2222 31.1932 83.7966 31.5698 83.2462 31.8698C82.6954 32.1712 82.0751 32.3214 81.3872 32.3214C80.1977 32.3214 79.1714 31.8514 78.3072 30.9113C77.4435 29.9712 77.0115 28.8063 77.0115 27.4155C77.0115 26.0243 77.4435 24.859 78.3072 23.9189C79.1714 22.9793 80.1977 22.5092 81.3872 22.5092C82.0751 22.5092 82.6954 22.6599 83.2462 22.9599C83.7966 23.2613 84.2222 23.6367 84.5231 24.0883H84.5982V22.8096H86.2509V31.5503C86.2509 33.1295 85.7935 34.329 84.8797 35.1507C83.9663 35.9705 82.8517 36.3813 81.5375 36.3813V36.3817ZM81.6687 30.7425C82.4823 30.7425 83.1738 30.4411 83.7439 29.8402C84.3136 29.2384 84.5982 28.4303 84.5982 27.4155C84.5982 26.3999 84.3136 25.592 83.7439 24.9906C83.1738 24.3888 82.4823 24.0883 81.6687 24.0883C80.8671 24.0883 80.1784 24.392 79.6032 24.9994C79.0271 25.6081 78.7393 26.4128 78.7393 27.4155C78.7393 28.4183 79.0271 29.2228 79.6032 29.8301C80.1784 30.4384 80.8671 30.7425 81.6692 30.7425H81.6687ZM89.6115 32.0204H87.8844V18.5619H89.6115V32.0204ZM95.3196 32.3214C93.93 32.3214 92.7997 31.8583 91.9305 30.9297C91.0599 30.0035 90.6251 28.8312 90.6251 27.4155C90.6251 26.0746 91.0477 24.9219 91.893 23.956C92.7378 22.992 93.8176 22.5092 95.1322 22.5092C96.4966 22.5092 97.5886 22.9544 98.4086 23.8442C99.2286 24.7336 99.6392 25.9243 99.6392 27.4155L99.6207 27.7348H92.3531C92.4024 28.662 92.7127 29.3956 93.2824 29.9338C93.8521 30.473 94.5185 30.7425 95.2823 30.7425C96.5215 30.7425 97.3609 30.2159 97.7994 29.1634L99.3381 29.8024C99.0381 30.5167 98.5429 31.1158 97.8549 31.5978C97.1661 32.0798 96.3214 32.3214 95.3196 32.3214ZM97.799 26.3062C97.7617 25.7795 97.52 25.2788 97.0755 24.8027C96.631 24.3263 95.9704 24.0883 95.0947 24.0883C94.456 24.0883 93.9028 24.2884 93.4329 24.6898C92.9636 25.0907 92.641 25.6298 92.4657 26.3062H97.799ZM106.437 32.0204H104.709V18.5619H109.291C110.43 18.5619 111.416 18.941 112.248 19.6986C113.081 20.4576 113.497 21.413 113.497 22.5655C113.497 23.7184 113.081 24.6745 112.248 25.4316C111.416 26.1901 110.43 26.5691 109.291 26.5691H106.437V32.0204ZM106.437 24.9155H109.329C110.054 24.9155 110.636 24.6704 111.075 24.1819C111.513 23.6935 111.732 23.1544 111.732 22.5655C111.732 21.9765 111.513 21.4377 111.075 20.9492C110.636 20.4603 110.054 20.2157 109.329 20.2157H106.437V24.9155ZM116.351 32.0204H114.624V18.5619H116.351V32.0204ZM120.801 32.3214C119.825 32.3214 119.008 32.039 118.351 31.4754C117.694 30.9118 117.365 30.1662 117.365 29.2386C117.365 28.2363 117.753 27.4501 118.53 26.8796C119.305 26.3095 120.263 26.0243 121.402 26.0243C122.417 26.0243 123.249 26.2119 123.9 26.5884V26.3247C123.9 25.6482 123.669 25.1059 123.205 24.6995C122.742 24.2916 122.173 24.0883 121.497 24.0883C120.996 24.0883 120.542 24.2076 120.135 24.4454C119.728 24.6832 119.449 25.0091 119.299 25.4224L117.722 24.746C117.934 24.1949 118.354 23.6838 118.98 23.2137C119.606 22.7437 120.432 22.5092 121.459 22.5092C122.636 22.5092 123.612 22.8542 124.388 23.5431C125.165 24.2325 125.553 25.204 125.553 26.457V32.0204H123.9V30.7425H123.826C123.136 31.7946 122.129 32.3214 120.801 32.3214ZM121.083 30.7425C121.796 30.7425 122.445 30.4758 123.027 29.9431C123.61 29.4108 123.9 28.7818 123.9 28.0541C123.412 27.6532 122.68 27.4533 121.703 27.4533C120.864 27.4533 120.232 27.6348 119.807 27.9974C119.381 28.3615 119.168 28.787 119.168 29.2764C119.168 29.7275 119.362 30.0845 119.75 30.3476C120.137 30.6103 120.582 30.7425 121.083 30.7425ZM129.309 36.0802H127.525L129.666 31.4376L125.872 22.8096H127.75L130.492 29.4269H130.53L133.196 22.8096H135.074L129.309 36.0802ZM10.3851 25.0626C10.3851 20.7641 10.387 16.465 10.3833 12.1665C10.3833 11.6388 10.4855 11.1574 10.8592 10.7584C11.0037 10.6035 11.1085 10.5619 11.2865 10.744C14.1763 13.6955 17.0726 16.6401 19.9688 19.5857C21.8439 21.4925 23.7184 23.4012 25.6014 25.3007C25.784 25.485 25.8003 25.5819 25.6065 25.7746C20.9997 30.3574 16.4008 34.9481 11.8098 39.5469C11.5291 39.828 11.3326 39.7981 11.0634 39.5912C10.572 39.2129 10.3838 38.7056 10.3838 38.1014C10.3847 35.5554 10.38 33.0093 10.3781 30.4628C10.3772 28.6629 10.3781 26.863 10.3781 25.0626H10.3851ZM12.0361 10.2681C12.3876 10.2648 12.6353 10.3666 12.8737 10.5007C18.7554 13.8002 24.6366 17.1 30.5219 20.3921C30.792 20.5433 30.7866 20.6281 30.5781 20.8336C29.2641 22.1308 27.9556 23.4337 26.6529 24.7422C26.5125 24.8832 26.4265 24.9648 26.2383 24.7721C21.5586 19.9948 16.8719 15.225 12.1875 10.4532C12.1484 10.4136 12.1157 10.3662 12.0361 10.2681ZM13.3523 39.4378C17.622 35.1181 21.894 30.8019 26.1536 26.4721C26.4178 26.2034 26.5401 26.2395 26.7776 26.486C27.8613 27.6123 28.9557 28.7283 30.0604 29.8339C30.2546 30.0284 30.2706 30.108 30.0074 30.2522C24.5265 33.2554 19.0512 36.2673 13.574 39.2764C13.4834 39.3262 13.3992 39.4074 13.3527 39.4378H13.3523ZM37.7413 25.1823C37.7228 25.6666 37.4946 26.0073 37.1494 26.2621C36.8936 26.4511 36.6111 26.6057 36.3323 26.7601C34.6757 27.6771 33.0136 28.5855 31.3602 29.509C31.1375 29.6334 31.0046 29.6278 30.8201 29.437C29.6424 28.2205 28.4562 27.0125 27.2613 25.8128C27.0874 25.6377 27.0833 25.5422 27.2613 25.3662C28.6524 23.9948 30.036 22.6151 31.4133 21.2294C31.5752 21.0658 31.6916 21.0473 31.8945 21.1621C33.5313 22.0906 35.1753 23.0063 36.8167 23.927C37.3242 24.2118 37.7196 24.5805 37.7417 25.1823H37.7413Z" fill="white"/>
</svg>
