<svg width="303" height="38" viewBox="0 0 303 38" fill="none" xmlns="http://www.w3.org/2000/svg">
<path d="M246.234 3.16416C246.234 1.90735 245.18 0.901902 243.884 0.901902C242.587 0.901902 241.614 1.90735 241.533 3.16416V34.5843V34.6681C241.533 35.9249 242.587 36.9304 243.884 36.9304C245.18 36.9304 246.153 35.9249 246.234 34.6681V34.5843V3.75067V3.16416ZM232.861 17.5756C237.318 15.816 236.994 10.4536 236.994 10.4536C236.994 0.818115 226.863 0.901902 226.863 0.901902H207.086H206.681C205.546 0.901902 204.655 1.90735 204.655 3.16416C204.655 4.42096 205.546 5.42641 206.681 5.42641H207.167C210.004 5.42641 227.511 5.42641 227.511 5.42641C232.618 5.42641 232.618 10.3699 232.618 10.3699C232.618 15.2295 227.835 15.3133 227.835 15.3133H214.948H214.624C213.408 15.3133 212.517 16.4025 212.517 17.6593C212.517 18.9999 213.489 20.0054 214.624 20.0054H215.029H227.106C233.509 20.0054 233.509 26.1218 233.509 26.1218C233.509 31.9032 228.079 31.9869 228.079 31.9869H219.406C215.435 31.9869 213.733 28.1327 213.733 28.1327L206.681 13.3862C202.385 3.83445 195.091 0.818115 188.282 0.818115C182.609 0.818115 177.421 3.4993 174.098 7.94003C173.612 8.52654 173.693 9.19683 174.179 9.53198C174.747 9.86713 175.152 9.78334 175.719 9.11305C178.718 5.25884 183.257 2.91279 188.282 2.91279C194.361 2.91279 200.116 5.84535 203.844 14.8106V14.8944L209.923 29.8085C209.923 29.8085 212.193 37.0142 220.379 37.0142H228.241C238.21 37.0142 238.129 26.6246 238.129 26.6246C238.048 19.6702 232.861 17.5756 232.861 17.5756ZM204.087 24.2785C203.601 24.111 203.034 24.3623 202.872 24.865C200.44 31.1491 194.604 35.1709 187.958 35.1709C181.879 35.1709 176.368 31.7356 173.693 26.2056L172.802 24.0272L164.372 2.2425C163.886 1.23705 162.913 0.818115 162.184 0.818115C161.454 0.818115 160.644 1.06948 159.995 2.07492L149.54 20.0054L138.598 2.32628C137.868 1.15326 137.301 0.818115 136.085 0.818115C135.113 0.818115 134.302 1.40463 133.897 2.32628L122.225 30.9815L121.658 32.4059V32.4897C121.253 33.6627 121.82 35.0033 123.036 35.5898C124.333 36.1763 125.711 35.5898 126.197 34.4168L126.359 33.9978L136.734 8.86168L147.513 26.2894C148.162 27.2949 148.729 27.7976 149.702 27.7976C150.674 27.7976 151.242 27.3787 151.89 26.2894L161.941 8.86168L167.776 21.4298L170.775 27.0435C173.855 33.2438 180.096 37.1818 188.039 37.1818C195.496 37.1818 201.98 32.4897 204.736 25.4515C204.817 25.0326 204.574 24.4461 204.087 24.2785ZM300.62 32.1545H294.622H283.032C280.276 32.1545 279.141 31.4004 279.141 29.8923C279.141 29.7247 279.141 20.4243 279.141 20.4243H288.543H294.622C295.838 20.4243 296.81 19.3351 296.81 17.9945C296.81 16.6539 295.838 15.5647 294.622 15.5647H288.543H279.141V7.35352C279.141 6.01292 279.871 5.5102 281.086 5.5102C281.167 5.5102 281.167 5.5102 281.248 5.5102H287.084H289.759C290.894 5.5102 291.785 4.50475 291.785 3.24794C291.785 1.99114 290.894 0.98569 289.759 0.98569H283.923H281.329C280.681 0.98569 278.168 0.818115 276.304 2.49386C275.494 3.24794 274.521 4.67233 274.521 6.93458V30.3112C274.521 30.4788 274.521 32.6572 276.223 34.4168C277.763 36.0087 280.033 36.8466 283.032 36.8466H294.622H300.62C301.835 36.8466 302.727 35.7574 302.727 34.5006C302.727 33.16 301.754 32.1545 300.62 32.1545ZM269.901 32.0707H266.983H259.446C257.825 32.0707 256.609 31.8194 255.96 31.2329C255.231 30.4788 255.231 29.3058 255.231 29.3058V29.222V5.00747V3.16416C255.231 1.90735 254.177 0.901902 252.88 0.901902C251.584 0.901902 250.53 1.90735 250.53 3.16416V5.42641C250.53 5.42641 250.53 5.42641 250.53 5.5102V9.53198C250.53 16.4025 250.53 29.4733 250.53 29.3895C250.53 29.7247 250.368 32.3221 252.475 34.5006C254.015 36.0925 256.285 36.9304 259.202 36.9304H263.903H269.982C271.198 36.9304 272.09 35.8412 272.09 34.5006C272.09 33.16 271.117 32.0707 269.901 32.0707Z" fill="white"/>
<path d="M201.331 24.3625L201.412 24.1949V24.1111L201.331 24.3625ZM190.227 16.0676C190.146 16.1513 190.065 16.1513 189.903 16.2351C190.065 16.2351 190.065 16.2351 190.714 15.9838C190.714 15.9838 190.714 15.9838 190.795 15.9838C190.552 15.9838 190.389 16.0676 190.227 16.0676ZM183.014 21.8489C182.69 22.0164 182.284 22.2678 181.96 22.4354C182.284 22.2678 182.771 22.0164 183.014 21.8489ZM189.012 15.0621H188.931C188.931 15.1459 189.012 15.1459 189.012 15.0621ZM192.092 14.3918C192.011 14.3918 192.011 14.3918 192.092 14.3918C192.011 14.3918 191.929 14.3918 191.929 14.3918C191.929 14.3918 192.011 14.3918 192.092 14.3918ZM192.416 14.3918H192.335C192.821 14.308 193.307 14.2242 193.713 14.1404C193.632 14.1404 193.469 14.2242 193.388 14.2242H193.226C193.226 14.2242 193.226 14.2242 193.145 14.2242H193.064C192.902 14.2242 192.821 14.2242 192.659 14.2242C192.578 14.3918 192.578 14.3918 192.416 14.3918ZM182.69 8.61049C180.906 9.28079 178.718 10.4538 176.854 12.2133C176.287 12.7161 175.8 13.2188 174.909 13.5539C174.828 13.8053 174.665 14.0567 174.584 14.308C174.422 14.8107 174.341 14.9783 174.26 15.3135V15.3973C174.422 15.3973 174.665 15.2297 175.638 14.6432C177.34 13.5539 178.151 13.0512 179.772 12.2971C179.61 12.7999 179.448 13.0512 178.961 13.4702C178.799 13.5539 178.637 13.7215 178.475 13.8053C177.908 14.1404 177.34 14.3918 176.773 14.727C176.124 15.1459 175.476 15.5648 174.828 15.9C174.747 15.9 174.665 15.9838 174.584 15.9838C174.341 16.1513 174.179 16.0676 174.179 15.8162C174.179 15.8162 174.179 15.8162 174.179 15.7324C174.179 15.9 174.098 15.9838 174.098 16.1513C173.855 17.3244 173.774 18.246 173.774 19.0839C173.774 21.5137 174.26 22.9381 174.26 23.0219V23.1057C174.341 23.1057 174.341 23.1057 174.422 23.1057C174.584 23.776 174.584 23.8598 174.665 24.1949C174.99 24.4463 174.828 24.7814 174.99 25.0328C175.071 25.0328 175.233 24.949 175.314 24.949L175.152 25.0328C175.314 25.1166 175.476 25.1166 175.638 25.2004C175.638 25.7869 175.638 25.7869 175.719 25.8707C175.8 25.8707 175.8 25.7869 175.881 25.7869C176.692 25.9544 176.692 25.9544 177.097 25.6193L177.421 25.2841C177.097 25.7031 177.178 25.9544 177.259 26.2058L177.583 26.7085C177.827 26.7085 177.421 26.0382 182.284 22.4354C184.473 21.1786 186.58 19.6704 188.768 18.3298C187.147 18.8325 185.688 19.838 184.149 20.5083C183.662 20.8434 183.176 21.0948 182.771 21.3461L182.69 21.1786H182.609H182.527C182.446 21.1786 182.284 21.0948 182.203 21.1786C182.203 21.1786 182.122 21.1786 182.122 21.2624C182.041 21.2624 182.041 21.2624 182.041 21.3461C181.96 21.3461 181.96 21.4299 181.879 21.4299C181.798 21.4299 181.798 21.4299 181.717 21.4299H181.636H181.474C181.474 21.4299 181.474 21.3461 181.474 21.2624V21.1786C181.474 21.1786 181.474 21.1786 181.555 21.1786C181.555 21.1786 181.555 21.1786 181.555 21.0948C181.555 21.011 181.717 20.9272 181.798 20.8434C181.879 20.7596 182.041 20.6758 182.122 20.5921C182.203 20.5083 182.365 20.4245 182.527 20.3407C182.609 20.3407 182.609 20.3407 182.69 20.3407C182.771 20.3407 182.771 20.3407 182.771 20.2569C182.771 20.2569 182.771 20.2569 182.771 20.1731L182.609 20.0893C182.527 20.0893 182.609 20.0893 182.527 20.0893C182.446 20.0893 182.446 20.1731 182.365 20.1731C182.284 20.2569 182.203 20.2569 182.203 20.2569C182.122 20.2569 182.122 20.3407 182.122 20.3407C181.96 20.4245 181.798 20.5921 181.555 20.6758C181.474 20.6758 181.474 20.6758 181.474 20.6758C181.393 20.6758 181.231 20.7596 181.15 20.7596C181.069 20.7596 180.988 20.7596 180.906 20.8434L180.825 20.9272C180.744 21.011 180.663 21.011 180.663 21.0948C180.582 21.1786 180.501 21.0948 180.42 21.0948C180.42 21.0948 180.42 21.0948 180.339 21.0948H180.258V21.011C180.258 20.9272 180.339 20.9272 180.339 20.8434C180.258 20.7596 180.096 20.8434 180.015 20.8434C179.853 20.8434 179.772 20.9272 179.61 21.011C179.529 21.0948 179.366 21.0948 179.285 21.0948C179.123 21.1786 179.042 21.0948 178.88 21.0948C178.88 21.011 178.88 21.011 178.88 21.011L178.961 20.9272C179.042 20.8434 179.042 20.8434 179.123 20.7596C179.204 20.6758 179.366 20.5921 179.529 20.5083C179.691 20.3407 179.772 20.2569 179.934 20.0893C179.934 20.0893 180.015 20.0893 180.015 20.0056C180.015 20.0056 180.015 20.0056 180.096 20.0056C180.096 20.0056 180.096 19.9218 180.177 19.9218C180.258 19.838 180.339 19.838 180.339 19.7542C180.339 19.7542 180.42 19.7542 180.42 19.6704V19.5866C180.339 19.5866 180.339 19.6704 180.339 19.6704C180.258 19.7542 180.177 19.7542 180.177 19.7542C180.015 19.838 179.772 19.9218 179.61 19.9218C179.529 19.9218 179.529 19.9218 179.448 19.9218H179.366H179.204C179.204 19.838 179.285 19.7542 179.285 19.6704C179.285 19.5866 179.366 19.5866 179.448 19.5028C179.448 19.5028 179.448 19.419 179.529 19.419C179.529 19.419 179.529 19.419 179.61 19.419C179.772 19.3353 179.853 19.2515 180.015 19.1677L180.096 19.0839H180.177L180.258 19.0001C180.42 18.9163 180.582 18.8325 180.744 18.7487C180.988 18.665 181.15 18.4136 181.393 18.3298C181.474 18.3298 181.555 18.246 181.636 18.246C181.717 18.246 181.717 18.246 181.798 18.1622C181.879 18.0784 182.041 17.9947 182.122 17.9947C182.203 17.9109 182.365 17.9109 182.446 17.8271L182.527 17.7433H182.609C182.69 17.7433 182.69 17.6595 182.771 17.6595C182.852 17.6595 182.933 17.5757 182.933 17.5757C183.014 17.5757 183.014 17.4919 183.095 17.4919C183.176 17.4919 183.176 17.4081 183.176 17.4081V17.3244C183.095 17.3244 183.014 17.4081 182.933 17.4081C182.852 17.4081 182.771 17.4919 182.69 17.4919C182.609 17.4919 182.609 17.5757 182.527 17.5757H182.446H182.365C182.284 17.5757 182.284 17.5757 182.203 17.6595C182.122 17.6595 181.96 17.7433 181.879 17.8271C181.717 17.9109 181.636 17.9947 181.474 18.0784C181.312 18.1622 181.15 18.246 180.988 18.3298C180.825 18.3298 180.744 18.4136 180.582 18.4974C180.501 18.4974 180.42 18.5812 180.339 18.5812C180.258 18.5812 180.258 18.5812 180.258 18.665C180.177 18.665 180.177 18.7487 180.096 18.7487C179.934 18.8325 179.772 18.9163 179.61 18.9163C179.529 18.9163 179.529 19.0001 179.448 19.0001C179.366 19.0001 179.285 19.0001 179.204 19.0001C179.123 19.0001 179.123 19.0001 179.042 19.0001C178.961 19.0001 178.88 19.0001 178.799 18.9163C178.799 18.9163 178.799 18.9163 178.718 18.9163C179.123 18.5812 179.529 18.3298 180.015 18.0784C180.501 17.7433 180.988 17.4919 181.474 17.2406C181.96 16.9892 182.527 16.6541 183.095 16.4027C183.662 16.1513 184.23 15.9 184.797 15.6486C185.364 15.3973 185.932 15.1459 186.58 14.8945C187.147 14.6432 187.715 14.4756 188.363 14.2242C188.931 14.0567 189.498 13.8053 190.146 13.6377C190.714 13.4702 191.281 13.3026 191.848 13.2188C192.416 13.0512 192.902 12.9674 193.469 12.8836C193.713 12.7999 193.956 12.7999 194.199 12.7999C194.28 12.7999 194.361 12.7999 194.361 12.7999C194.442 12.7999 194.442 12.7999 194.442 12.7999H194.361C194.442 12.7999 194.604 12.7999 194.685 12.7161C194.766 12.7161 194.928 12.7161 195.009 12.7161C195.09 12.7161 195.334 12.7161 195.334 12.7999C195.334 12.8836 195.253 12.8836 195.253 12.8836C195.172 12.8836 195.172 12.9674 195.09 12.9674C195.253 12.9674 195.334 12.9674 195.496 12.9674C195.577 12.9674 195.658 12.9674 195.658 12.9674C195.658 12.9674 195.739 12.9674 195.82 12.9674C195.82 12.9674 195.82 12.9674 195.739 12.9674C195.658 13.0512 195.658 13.0512 195.577 13.135C195.496 13.2188 195.496 13.2188 195.415 13.2188C195.253 13.2188 195.172 13.3026 195.009 13.3026C194.766 13.3864 194.604 13.3864 194.361 13.3864C194.28 13.3864 194.28 13.3864 194.28 13.4702C194.361 13.4702 194.361 13.4702 194.442 13.4702C194.604 13.4702 194.766 13.4702 194.928 13.4702C195.009 13.4702 195.09 13.4702 195.172 13.4702C195.253 13.4702 195.253 13.4702 195.334 13.4702C195.415 13.4702 195.496 13.4702 195.577 13.5539C194.685 13.6377 193.713 13.8053 192.821 14.0567C192.092 14.2242 191.929 14.308 191.605 14.2242C191.686 14.1404 191.767 14.0567 191.848 13.9729C191.443 13.8891 188.768 14.8945 188.525 15.3135C188.525 15.3973 188.525 15.3973 188.606 15.3973C188.768 15.3973 188.931 15.481 189.174 15.481C189.417 15.481 189.579 15.481 189.822 15.481C189.984 15.481 190.146 15.481 190.308 15.481C190.633 15.481 190.876 15.481 191.2 15.3973C191.443 15.3135 191.686 15.2297 191.929 15.1459C192.173 15.0621 192.416 14.9783 192.659 14.8945C192.74 14.8945 192.74 14.8945 192.821 14.8107L192.902 14.727C192.983 14.727 192.983 14.727 192.983 14.8107C192.902 14.8945 192.659 14.9783 192.578 14.9783C192.497 15.0621 192.335 15.0621 192.254 15.1459C192.254 15.2297 192.416 15.2297 192.578 15.2297C192.659 15.2297 192.659 15.2297 192.659 15.2297C192.659 15.2297 192.659 15.2297 192.74 15.2297H192.821C192.902 15.2297 192.821 15.3973 192.821 15.3973C192.821 15.481 192.74 15.481 192.74 15.5648C192.74 15.6486 192.659 15.6486 192.578 15.6486C192.578 15.7324 193.226 15.7324 193.226 15.6486C193.307 15.6486 193.469 15.5648 193.55 15.5648C193.632 15.5648 193.632 15.5648 193.713 15.5648C193.794 15.5648 193.794 15.5648 193.875 15.5648C193.956 15.5648 194.037 15.481 194.118 15.481C194.199 15.481 194.199 15.481 194.28 15.481C194.361 15.481 194.361 15.481 194.442 15.481C194.604 15.481 194.685 15.3973 194.847 15.3973H194.928H195.009C195.09 15.3973 195.253 15.3973 195.334 15.3135C195.496 15.3135 195.577 15.2297 195.739 15.2297C195.901 15.2297 196.144 15.2297 196.306 15.2297C196.468 15.2297 196.63 15.3135 196.874 15.3135C197.117 15.3135 196.874 15.481 196.793 15.5648C196.549 15.7324 196.306 15.9 195.982 15.9838C195.82 16.0676 195.658 16.1513 195.496 16.0676C195.415 16.0676 195.334 16.0676 195.172 16.1513C195.09 16.1513 195.09 16.2351 195.009 16.2351C194.928 16.2351 194.928 16.2351 194.847 16.2351C194.766 16.2351 194.685 16.2351 194.604 16.2351H194.523H194.442C194.361 16.2351 194.361 16.2351 194.28 16.2351C194.199 16.2351 194.199 16.3189 194.118 16.3189H194.037C193.956 16.3189 193.875 16.3189 193.875 16.3189C193.713 16.4027 193.551 16.4027 193.388 16.4027C193.388 16.4027 193.388 16.4027 193.307 16.4027C193.226 16.4865 193.145 16.4865 192.983 16.4865C192.74 16.5703 192.578 16.7379 192.335 16.7379C192.254 16.7379 192.254 16.7379 192.173 16.7379C192.011 16.7379 191.848 16.8216 191.767 16.8216C191.686 16.8216 191.605 16.9054 191.605 16.9054C191.524 16.9054 191.443 16.9892 191.281 17.073C191.2 17.073 191.2 17.1568 191.119 17.1568C191.038 17.2406 190.957 17.2406 190.876 17.2406C190.795 17.2406 190.714 17.2406 190.633 17.3244C190.552 17.3244 190.552 17.4081 190.471 17.4081C190.389 17.4081 190.389 17.4081 190.308 17.4919C190.227 17.5757 190.065 17.5757 189.984 17.6595C189.903 17.6595 189.903 17.7433 189.822 17.7433C189.741 17.7433 189.66 17.8271 189.66 17.9109C189.579 17.9947 189.579 18.0784 189.66 18.1622C189.822 18.1622 189.903 18.1622 190.065 18.1622C190.146 18.1622 190.146 18.1622 190.227 18.1622C190.308 18.1622 190.389 18.1622 190.389 18.1622C190.552 18.1622 190.633 18.0784 190.795 17.9947C190.795 17.9947 190.795 17.9947 190.876 17.9947C192.497 17.6595 193.956 16.8216 195.658 16.7379C195.658 16.7379 198.414 16.5703 200.278 17.4919C200.845 17.7433 203.601 19.3353 202.223 24.1111L202.385 23.6922C202.709 22.603 202.79 22.0164 202.871 21.3461V21.2624C203.034 20.0893 202.952 19.838 202.952 18.665C202.79 16.9054 202.709 16.3189 202.304 14.9783L202.223 14.8945C202.142 14.727 202.628 13.4702 199.954 10.7052C198.819 9.53215 197.117 9.44837 195.82 8.69428C195.982 8.61049 195.982 8.61049 196.306 8.69428C195.172 7.9402 193.875 8.10777 192.659 7.68884C192.821 7.60505 192.902 7.52126 193.226 7.52126C193.226 7.43747 193.226 7.43747 193.226 7.35369C195.009 7.10233 196.225 7.52126 197.117 8.02398C197.036 7.9402 196.874 7.85641 196.793 7.77262C197.036 7.85641 197.198 7.9402 197.603 8.27535L197.522 8.19156C195.739 6.76718 193.145 5.00764 185.283 8.27535L183.986 7.9402C183.986 7.9402 183.338 8.35913 183.338 8.27535" fill="#FFD300"/>
<path d="M177.583 8.77861L177.827 8.52725C177.746 8.69482 177.664 8.77861 177.583 8.77861ZM199.629 9.95163C199.548 9.95163 199.548 9.95163 199.629 9.95163C199.548 9.95163 199.548 9.95163 199.629 9.95163ZM194.928 10.2868C194.685 10.203 194.523 10.1192 194.361 10.0354C194.28 10.0354 194.199 10.0354 194.037 9.95163C194.199 10.0354 194.199 10.0354 194.928 10.2868C194.928 10.2868 194.928 10.203 194.928 10.2868ZM202.385 17.6601C202.223 15.9843 202.142 15.6492 201.737 14.3086L201.494 13.6383C201.007 12.2139 200.359 11.2922 199.873 10.3706C199.71 10.1192 199.71 10.1192 199.467 9.78406C198.657 8.69482 198.252 8.35968 197.36 7.60559C197.522 7.68938 197.522 7.68938 197.765 7.94074L197.684 7.85695C195.334 5.76227 192.983 5.09198 190.146 4.75683C190.471 4.67304 193.226 4.84061 195.982 6.51636C193.307 4.75683 190.876 4.42168 189.579 4.33789C189.255 4.33789 188.931 4.33789 188.525 4.33789C187.31 4.33789 185.689 4.58925 183.581 5.25955C183.581 5.25955 182.203 5.67849 180.988 6.34878C180.988 6.34878 180.907 6.34878 180.907 6.43257C180.907 6.43257 180.907 6.43257 180.825 6.43257C180.744 6.51636 180.663 6.51636 180.582 6.60014C180.582 6.60014 180.582 6.60014 180.501 6.60014C180.42 6.60014 180.42 6.68393 180.339 6.68393C180.177 6.76772 180.096 6.85151 179.934 6.93529C179.853 7.01908 179.772 7.01908 179.691 7.10287L179.529 7.27044C179.367 7.43802 179.123 7.60559 178.961 7.68938C178.637 7.94074 178.637 8.02453 178.07 8.52725C179.042 7.60559 181.798 6.01363 186.175 5.42712C185.932 5.5947 185.689 5.67849 185.04 5.84606C182.771 6.34878 179.285 7.18666 177.746 8.77861C177.583 8.94619 177.421 9.11376 177.016 9.61648C176.611 10.1192 176.611 10.203 176.043 11.0409L175.719 11.5436C175.719 11.6274 175.719 11.6274 175.719 11.7112C175.8 11.7112 175.8 11.7112 175.881 11.7112C175.557 13.1355 175.557 13.1355 175.557 13.1355C176.043 12.7166 176.043 12.7166 176.124 12.7166C175.8 13.4707 175.8 13.4707 175.8 13.6383C175.719 13.8058 175.719 13.9734 175.638 14.0572C175.638 14.141 175.719 14.141 175.719 14.2248C175.962 14.0572 176.206 13.8058 176.449 13.7221L176.124 13.9734C176.368 13.8896 176.611 13.7221 176.854 13.6383C176.611 13.8896 176.449 14.2248 176.206 14.4761C176.449 14.3086 176.611 14.141 176.854 14.0572L176.935 14.141C177.259 14.0572 177.421 13.9734 178.394 13.4707L178.961 13.1355C178.394 13.5545 178.313 13.5545 178.151 13.8058C178.394 13.8058 178.394 13.8058 179.529 13.2193C181.069 12.4652 182.041 12.0463 185.04 11.376C189.417 10.6219 189.417 10.6219 192.416 10.7057C191.362 10.4544 191.362 10.4544 187.553 10.5381C183.581 10.9571 182.041 11.6274 181.393 11.8787C180.258 12.2977 180.258 12.2977 180.015 12.2977C180.988 11.5436 185.364 9.95163 186.499 9.78406C186.499 9.78406 183.014 10.2868 181.069 11.376C179.934 11.9625 178.637 12.3815 178.637 12.3815C179.123 11.8787 179.934 11.376 180.339 10.7895C179.934 10.7057 179.691 10.7895 178.88 11.0409C181.879 7.01908 198.576 6.01363 201.494 13.9734C201.332 13.7221 199.71 11.2922 196.793 10.0354C196.063 9.70027 196.063 9.70027 195.901 9.5327C195.901 9.5327 195.982 9.5327 196.063 9.44891C195.658 9.19755 193.713 8.61104 192.983 8.77861C195.739 9.5327 200.035 11.6274 199.954 12.7166C198.819 12.2977 197.927 11.376 196.793 10.9571C198.089 11.7112 200.278 12.8842 200.602 14.141C200.602 14.141 200.521 14.2248 200.44 14.2248C200.278 14.141 200.116 13.9734 200.035 13.8896C199.792 13.6383 198.252 12.3815 197.279 11.9625C195.82 11.376 194.28 11.2084 192.821 10.7057C194.442 11.376 196.144 11.5436 197.684 12.4652C199.467 13.5545 200.845 15.3978 200.845 15.3978C203.277 18.7493 202.304 22.1846 201.98 23.4414L201.656 24.2792L201.98 23.4414C202.304 22.3521 202.385 22.1846 202.628 20.844C202.466 19.3358 202.466 19.0844 202.385 17.6601ZM185.932 11.0409C185.608 11.1247 185.121 11.2084 184.716 11.2084C185.121 11.1247 185.608 11.0409 185.932 11.0409ZM191.119 5.00819C190.795 4.9244 190.065 4.9244 189.174 4.84061C189.174 4.84061 189.093 4.84061 189.012 4.84061C190.146 4.84061 190.957 4.84061 191.848 5.09198C191.524 5.09198 191.443 5.09198 191.119 5.00819ZM177.989 8.44346C177.908 8.44346 177.908 8.52725 177.989 8.44346C177.908 8.44346 177.908 8.52725 177.989 8.44346ZM199.548 9.86785C199.467 9.86785 199.548 9.86785 199.548 9.86785C199.467 9.86785 199.467 9.86785 199.548 9.86785Z" fill="#F19000"/>
<path d="M201.413 24.1946C201.495 24.027 201.495 23.8594 201.576 23.7756L201.413 24.1946C201.495 24.1108 201.413 24.1946 201.413 24.1946Z" fill="#004586"/>
<path d="M180.503 26.456C180.341 26.3725 180.26 26.2891 180.098 26.2891C180.098 26.2891 180.26 26.3725 180.503 26.456Z" fill="#004586"/>
<path d="M199.549 17.5751C199.305 17.4913 198.981 17.3237 198.738 17.2399H198.657C198.171 17.0724 197.684 16.9886 197.279 16.9048C196.307 19.2508 195.091 20.5914 193.551 21.8482C191.281 23.7753 193.227 23.1888 193.308 23.1888C193.551 23.105 193.713 22.9375 193.794 22.9375C191.687 25.3673 185.527 28.1323 180.988 26.2052C179.772 25.7024 178.962 25.3673 181.231 26.8755H181.15C182.123 27.3782 183.338 28.0485 182.69 28.0485C182.69 28.0485 182.69 28.0485 182.69 28.1323C182.69 28.1323 182.69 28.1323 184.392 28.8026C184.311 28.8026 184.23 29.2215 185.608 29.3891C187.229 29.5566 188.688 29.3891 189.985 28.9701C187.148 30.981 183.906 32.3216 180.664 31.6513C180.745 31.6513 180.826 31.7351 180.988 31.7351C181.717 31.9865 182.204 32.0703 183.014 32.154C183.014 32.154 183.014 32.2378 183.014 32.3216C183.581 32.573 184.23 32.4054 184.392 32.3216C184.716 32.154 184.797 32.154 186.742 31.9865C186.337 32.3216 185.689 32.154 185.284 32.4892C185.284 32.573 185.365 32.6568 185.365 32.6568C187.796 32.3216 190.39 31.9865 196.631 26.7079C196.712 26.6241 196.793 26.5403 196.874 26.5403C196.388 26.9592 196.388 26.9592 192.497 30.3945C191.524 31.2324 190.228 31.3162 189.336 32.2378V32.3216C190.228 32.4892 190.876 31.9027 191.687 31.8189C191.687 31.8189 191.606 31.5675 188.526 32.9919C188.526 32.9919 188.526 32.9919 188.526 33.2433C189.66 32.9919 191.849 32.6568 193.308 31.8189C195.496 30.5621 199.549 26.8755 201.413 22.8537C201.494 22.7699 201.575 22.6023 201.656 22.5185V22.6023C201.737 22.7699 201.737 22.7699 201.494 23.4402C201.656 23.105 201.737 22.7699 201.899 22.4347C202.142 18.9995 200.035 17.8264 199.549 17.5751ZM197.198 20.759C197.117 20.9266 197.036 21.0104 196.955 21.1779C196.55 21.8482 195.658 22.0158 195.172 22.6861C195.091 22.6023 195.01 22.6023 194.848 22.6861C194.767 22.351 195.253 21.932 194.929 21.7644C195.334 20.8428 195.982 20.1725 196.631 19.4184C196.793 20.0887 198.009 19.0833 198.009 18.9995C198.009 18.9157 198.09 18.9157 198.09 18.8319C197.847 19.5022 197.603 20.0887 197.198 20.759Z" fill="url(#paint0_linear_249_1963)"/>
<path d="M201.575 23.6079C201.575 23.4403 201.656 23.3565 201.656 23.189C200.764 26.0377 198.819 28.3 197.603 29.3892C197.766 29.3054 197.928 29.1378 198.09 28.9703C197.847 29.2216 197.766 29.3054 197.685 29.473C197.847 29.3054 198.009 29.2216 198.171 29.0541C198.09 29.1378 198.09 29.1378 197.117 30.1433C198.333 29.0541 200.278 27.2107 201.413 24.2782L201.494 24.0268C201.494 23.943 201.575 23.7755 201.575 23.6079Z" fill="#004586"/>
<path d="M181.15 26.7909C180.907 26.624 180.664 26.5405 180.501 26.457C180.745 26.624 180.907 26.7909 181.15 26.7909Z" fill="#004586"/>
<path d="M201.413 24.3615L201.495 24.1946C201.495 24.1946 201.495 24.1946 201.495 24.1111L201.413 24.3615Z" fill="#F19000"/>
<path d="M200.764 18.4974C200.197 20.7597 199.548 21.7651 198.576 23.3571C198.008 24.195 196.955 24.3625 196.387 25.2004C196.225 25.1166 196.225 25.1166 195.982 25.2004C195.901 24.7815 196.549 24.2788 196.063 24.0274C196.874 22.2679 198.657 21.0948 199.224 19.1677C198.981 19.4191 198.819 19.7542 198.657 20.0894C198.9 19.2515 199.305 18.4136 199.467 17.492C199.386 17.492 199.386 17.492 199.305 17.4082C199.224 17.492 199.224 17.5758 199.143 17.7434C197.927 20.7597 196.387 22.4354 194.442 24.1112C191.686 26.4572 194.037 25.7869 194.118 25.7869C194.361 25.7031 194.604 25.5356 194.766 25.4518C191.443 29.306 180.339 33.5791 175.233 26.2059C175.314 26.2896 175.314 26.3734 175.395 26.4572C176.611 28.3843 176.611 28.3843 179.448 30.2276C178.961 30.1439 178.556 29.7249 178.07 29.5573C178.07 29.5573 179.285 31.1493 182.852 31.5682C186.661 31.9872 187.715 31.7358 188.85 31.4007C189.822 31.1493 190.714 31.0655 190.714 31.0655C187.877 31.9872 187.877 31.9872 184.797 32.1547C184.149 32.1547 183.581 32.071 183.014 31.9034C182.446 31.7358 181.879 31.652 181.312 31.652C181.312 31.652 181.312 31.652 181.312 31.7358C181.312 31.7358 181.312 31.7358 183.338 32.5737C183.176 32.6575 182.609 32.7413 180.096 31.5682C180.096 31.5682 183.095 33.0764 184.797 33.244C190.39 33.8305 194.361 31.0655 198.17 28.3843V28.4681C198.252 28.4681 198.252 28.4681 198.333 28.4681C198.333 28.5519 198.333 28.5519 197.927 29.0546C198.819 28.3005 199.305 27.1275 200.278 26.3734C200.197 26.7924 197.198 31.8196 190.471 33.4116C190.795 33.3278 190.876 33.3278 191.281 33.244C190.795 33.4116 190.795 33.4116 190.633 33.4953C190.795 33.4953 190.795 33.4953 191.362 33.3278C190.957 33.4953 190.552 33.5791 189.579 33.8305C195.415 32.825 199.629 29.3898 201.575 24.195C201.818 23.2733 201.98 22.9382 202.061 22.3516C201.98 20.4245 201.413 19.2515 200.764 18.4974Z" fill="#002F63"/>
<path d="M179.448 24.2789C179.043 24.3627 178.637 24.4465 178.313 24.5303C178.394 24.7816 178.556 25.033 178.719 25.3682C178.881 25.1168 179.043 24.8654 179.205 24.6979C179.286 24.5303 179.367 24.4465 179.448 24.2789ZM159.347 24.4465C159.104 24.0276 158.942 23.1897 158.861 22.0167C155.457 22.6032 153.836 20.2571 153.998 18.2462C154.079 16.6543 154.484 16.0678 156.186 14.6434C154.484 14.392 153.512 12.8839 153.674 11.6271C153.836 10.5378 153.998 10.2865 154.16 9.95131L154.322 9.69995L154.565 9.86753C154.565 9.86753 155.862 10.7892 156.348 10.9568C156.348 10.9568 156.429 10.9568 156.51 10.9568C156.591 10.9568 156.754 10.9568 156.916 11.0405C157.24 11.1243 157.564 11.1243 157.969 11.2919C158.699 11.5433 159.509 11.9622 159.753 12.9677C159.996 13.8893 159.834 14.5596 159.347 15.2299C159.104 15.5651 158.861 15.8164 158.537 16.0678C158.213 16.3191 157.888 16.6543 157.483 16.9056C156.916 17.3246 156.673 17.9111 156.754 18.4138C156.835 19.0003 157.321 19.3355 157.888 19.3355C158.537 19.3355 159.185 19.0003 159.996 18.4138C160.401 18.1625 160.725 17.8273 161.13 17.5759C161.536 17.3246 161.941 16.9894 162.427 16.8219C162.832 16.6543 163.157 16.4867 163.481 16.4867C163.805 16.4029 164.129 16.4029 164.372 16.3191C164.94 16.2354 165.345 16.2354 165.75 15.9002C165.912 15.8164 166.075 15.6488 166.237 15.4813C166.399 15.3137 166.642 15.0623 166.885 14.8948C167.371 14.4758 167.939 14.1407 168.668 14.0569C168.83 14.0569 169.073 14.0569 169.236 14.0569C169.398 14.0569 169.56 14.0569 169.641 13.9731C169.722 13.9731 169.803 13.8893 169.884 13.8055C170.046 13.7217 170.127 13.5542 170.289 13.3866C170.613 13.0514 171.1 12.6325 171.748 12.4649C172.559 12.2136 173.126 11.9622 173.693 11.7946C174.18 11.5433 174.747 11.2919 175.395 10.7892C175.882 10.454 177.665 9.78374 179.529 11.1243C180.096 11.5433 180.583 11.8784 181.069 12.2974C181.555 12.7163 182.204 13.3028 183.014 13.9731C183.257 14.2245 183.582 14.5596 183.825 14.8948C184.068 15.2299 184.311 15.5651 184.554 15.8164C185.446 16.9894 186.175 17.8273 186.256 18.9165C186.499 20.8436 186.662 21.9329 187.391 23.86C187.391 23.86 187.391 23.86 187.472 23.9438C187.472 24.0276 187.553 24.0276 187.634 24.1113L187.796 24.2789C187.877 24.3627 187.958 24.4465 187.958 24.4465C188.121 24.6141 188.202 24.7816 188.283 24.9492C188.364 25.1168 188.445 25.2844 188.607 25.4519C188.769 25.7871 189.012 26.1222 189.336 26.2898C189.742 26.5412 189.904 26.625 190.066 26.7925C190.39 27.1277 190.228 27.5466 189.985 27.798C189.823 27.9656 189.579 28.0493 189.336 28.1331C189.498 28.6359 189.093 29.1386 188.283 29.2224C186.662 29.3062 185.608 28.4683 185.203 28.0493L185.122 28.1331C184.96 28.3007 184.716 28.4683 184.392 28.5521C183.987 28.7196 183.582 28.7196 183.176 28.7196C183.014 28.7196 182.852 28.7196 182.609 28.7196C182.447 28.7196 182.285 28.7196 182.204 28.7196C181.88 28.8034 181.555 28.8872 181.231 29.0548C180.907 29.1386 180.502 29.3061 180.096 29.3061C179.448 29.3061 178.962 29.0548 178.719 28.6359C178.637 28.5521 178.637 28.4683 178.637 28.3007C178.394 28.8034 178.07 29.2224 177.827 29.3899C177.584 29.5575 177.26 29.5575 177.016 29.5575C176.854 29.5575 176.773 29.5575 176.692 29.5575C176.611 29.5575 176.611 29.5575 176.611 29.5575C175.476 30.0602 173.774 30.7305 173.045 30.8143C172.234 30.8143 171.505 30.2278 171.019 29.3061C170.694 29.3061 170.289 29.2224 170.127 29.0548C169.722 28.6359 169.073 27.379 169.073 26.8763C169.073 26.5412 169.236 26.2898 169.479 26.206C169.641 26.1222 169.884 26.0385 170.127 25.9547C170.613 25.8709 171.1 25.8709 171.343 25.8709C171.424 25.8709 171.505 25.8709 171.586 25.8709C171.667 25.8709 171.748 25.8709 171.829 25.8709C171.829 25.8709 171.91 25.8709 171.991 25.9547C172.153 25.7033 172.478 25.6195 172.64 25.6195C172.721 25.6195 172.721 25.6195 172.802 25.6195C172.64 25.5357 172.559 25.3682 172.478 25.2844C172.397 25.2844 172.315 25.3682 172.234 25.3682C171.991 25.4519 171.748 25.4519 171.505 25.5357C170.613 25.6195 169.073 25.4519 168.911 25.4519C168.668 25.4519 168.263 25.5357 167.777 25.6195C167.371 25.7033 166.966 25.7033 166.642 25.7033C166.48 26.0385 166.318 26.3736 166.156 26.625C165.993 26.9601 165.831 27.2953 165.669 27.4628C165.426 27.7142 165.183 27.8818 165.021 28.0493C164.94 28.1331 164.778 28.1331 164.697 28.2169C164.616 28.2169 164.535 28.3007 164.535 28.3007C164.372 28.3845 164.048 28.6359 163.643 28.8034C163.319 28.971 162.914 29.1386 162.508 29.0548C161.617 28.8872 161.049 28.8872 160.725 28.8034C160.563 28.8034 160.482 28.8034 160.32 28.971C160.239 29.0548 160.158 29.1386 160.077 29.2224C159.996 29.3062 159.834 29.3899 159.753 29.4737C159.347 29.8927 158.699 30.3116 157.888 30.2278C157.807 30.2278 157.645 30.2278 157.483 30.144C157.402 30.144 157.321 30.144 157.24 30.0602C157.159 30.144 157.159 30.2278 157.078 30.3116C156.997 30.3954 156.997 30.4792 156.916 30.563C156.835 30.6467 156.835 30.7305 156.754 30.8143C156.51 31.1495 156.105 31.4846 155.376 31.4846C155.376 31.4846 155.295 31.4846 155.214 31.4846C155.133 31.4846 155.133 31.4846 155.052 31.4846C154.889 31.4846 154.727 31.4008 154.565 31.4008C154.403 31.4008 154.241 31.317 154.079 31.317H153.917C153.836 31.317 153.836 31.4008 153.755 31.4008C153.674 31.4008 153.593 31.4846 153.512 31.4846C153.43 31.4846 153.025 31.4846 152.701 31.4008C152.539 31.317 152.296 31.317 152.134 31.2333C151.972 31.1495 151.809 30.9819 151.728 30.7305C151.647 30.3954 151.728 30.144 151.809 29.8927C151.809 29.8089 151.891 29.7251 151.972 29.6413C151.972 29.5575 152.053 29.4737 152.053 29.3899C152.134 29.2224 152.134 29.0548 152.134 28.8872C152.134 28.7196 152.215 28.5521 152.296 28.3845C152.458 27.9656 152.701 27.7142 153.268 27.6304C153.593 26.7087 154.646 26.206 155.214 26.206C155.7 26.2898 155.943 26.625 156.186 26.8763C156.267 26.7925 156.348 26.7087 156.429 26.5412C156.429 26.5412 156.429 26.4574 156.51 26.3736C156.51 26.2898 156.591 26.206 156.591 26.1222C156.673 25.9547 156.673 25.7033 156.754 25.5357C156.916 25.2006 157.159 24.6141 157.726 24.6141C158.213 24.6141 158.699 24.5303 159.104 24.3627C159.185 24.5303 159.266 24.5303 159.347 24.4465Z" fill="white"/>
<path d="M188.931 27.0433C188.12 26.5406 187.877 25.7027 187.391 25.0324C187.229 24.7811 186.904 24.6135 186.742 24.3621C186.175 22.7702 185.689 21.262 185.608 19.4187C185.527 18.9998 185.364 18.497 185.202 18.0781C184.473 16.9051 183.581 15.8159 182.69 14.7266C182.609 14.6428 182.447 14.559 182.447 14.4753L179.367 11.8779C178.961 11.5427 178.556 11.3751 178.151 11.2076C177.502 10.9562 176.611 11.04 175.963 11.2913C175.314 11.6265 174.747 12.213 174.017 12.3806C173.045 12.8833 171.91 12.9671 171.018 13.7212C170.532 14.1401 170.127 14.8942 169.316 14.7266C168.506 14.7266 167.695 14.978 167.128 15.5645C166.561 16.0672 165.993 16.7375 165.264 16.9051C164.615 17.1564 163.805 17.0727 163.156 17.324C162.103 17.5754 161.292 18.4133 160.401 19.0836C159.509 19.5863 158.617 20.1728 157.564 20.1728C156.834 20.089 156.186 19.5863 155.943 18.916C155.7 18.0781 155.943 17.2402 156.591 16.6537C157.24 15.8159 158.293 15.3969 158.78 14.3915C159.023 13.8887 159.023 13.1347 158.617 12.6319C157.969 11.8779 156.915 11.8779 156.024 11.6265C155.456 11.4589 155.051 11.04 154.484 10.7048C154.322 11.04 154.241 11.3751 154.241 11.7103C154.322 12.5482 154.97 13.3022 155.7 13.6374C156.186 13.805 156.672 13.7212 157.159 13.805C157.321 13.8887 157.402 13.9725 157.402 14.1401C157.402 14.3077 157.402 14.3915 157.24 14.4753C156.51 15.0618 155.781 15.7321 155.132 16.4862C154.484 17.2402 154.403 18.497 154.727 19.4187C155.132 20.4241 156.186 21.1782 157.159 21.262C157.888 21.3458 158.536 21.1782 159.185 21.0107C159.266 21.0107 159.347 21.0944 159.347 21.1782C159.428 21.7647 159.347 22.3513 159.428 22.9378C159.509 23.4405 159.752 23.8594 159.914 24.3621C159.914 24.5297 159.914 24.6973 159.833 24.8649C159.428 25.2 159.104 25.3676 158.699 25.5352L157.726 25.619L157.564 25.7027C157.159 26.1217 157.159 26.6244 156.915 27.1271C156.591 27.6298 156.024 27.8812 155.538 28.2164C155.375 28.4677 155.213 28.7191 154.97 28.9704C154.808 29.138 154.565 29.138 154.403 29.2218C154.079 29.6407 153.998 30.2273 153.917 30.73C154.484 30.8138 155.051 31.0651 155.619 30.8138C156.105 30.5624 156.186 29.9759 156.591 29.6407C156.834 29.3056 157.321 29.557 157.645 29.6407C158.131 29.6407 158.536 29.3056 158.942 29.138C159.266 28.9704 159.509 28.5515 159.833 28.3839C160.401 28.0488 161.292 28.2164 161.86 28.3839C162.346 28.5515 162.832 28.4677 163.318 28.2164C163.724 27.965 164.129 27.6298 164.534 27.5461C164.94 27.2947 165.102 26.8758 165.264 26.4568C165.426 26.1217 165.75 25.7865 165.669 25.3676C165.588 25.2838 165.426 25.0324 165.264 25.1162C165.102 25.3676 164.94 25.7027 164.696 25.9541C163.724 27.2947 162.994 27.3785 161.13 27.3785C159.752 27.2947 158.455 27.7974 157.483 28.8867C157.402 28.9704 157.321 28.8867 157.24 28.8867C157.24 28.7191 157.321 28.4677 157.402 28.3839C158.293 27.1271 159.59 26.792 161.049 26.792C161.86 26.7082 162.589 26.6244 163.237 26.2893C163.967 25.8703 164.453 25.2838 164.777 24.5297C164.94 23.6918 165.021 22.7702 165.183 22.0161C165.183 21.9323 165.426 21.8485 165.426 21.9323C165.507 21.9323 165.669 22.0161 165.669 22.0999C165.507 22.9378 165.264 23.8594 165.588 24.6973C166.236 25.5352 167.371 25.1162 168.182 25.0324C169.073 24.9487 169.803 25.0324 170.613 25.1162C171.018 25.1162 171.343 25.2 171.667 24.9487C171.748 24.7811 171.829 24.6135 171.748 24.4459C171.748 24.1946 171.505 24.027 171.748 23.8594C171.829 23.7756 171.991 23.8594 172.072 23.9432C172.153 24.2784 172.234 24.6135 172.477 24.9487C172.883 25.5352 173.531 25.9541 174.098 26.2055C174.666 26.6244 175.071 27.1271 175.152 27.7974C175.152 28.1326 174.828 28.3839 174.585 28.5515C174.179 28.8029 173.693 28.9704 173.126 28.8867C172.477 28.5515 172.234 27.7974 171.829 27.2109C171.586 26.9596 171.262 26.8758 170.937 26.8758C170.532 26.8758 170.208 26.9596 169.884 27.0433C169.803 27.1271 169.803 27.2109 169.803 27.3785C170.046 27.7974 170.289 28.2164 170.532 28.7191C170.856 28.8867 171.262 28.6353 171.505 28.9704C171.748 29.3056 171.829 29.7245 172.234 29.9759C172.558 30.2273 173.045 30.3948 173.45 30.2273C174.423 29.8921 175.395 29.6407 176.287 29.138H176.611C176.935 29.138 177.34 29.138 177.665 28.8867C177.908 28.4677 178.151 28.0488 178.394 27.6298C178.637 27.2947 178.475 26.8758 178.394 26.5406C177.989 25.9541 177.746 25.3676 177.502 24.6973C177.259 24.6135 177.097 24.5297 176.854 24.5297C176.773 24.6135 176.53 24.5297 176.53 24.6973L177.584 26.792C177.665 26.9596 177.746 27.2109 177.665 27.3785C177.502 27.7974 177.34 28.2164 176.935 28.5515C176.854 28.5515 176.773 28.6353 176.773 28.5515C176.854 28.1326 177.097 27.6298 177.097 27.0433L176.125 25.2C176.044 24.9487 175.8 24.6973 175.8 24.4459C175.8 24.2784 175.881 24.1946 176.044 24.1946C176.449 24.027 177.016 24.1108 177.34 23.6918C177.746 23.0216 177.908 22.2675 177.989 21.4296C177.989 21.3458 178.151 21.262 178.232 21.262C178.313 21.262 178.394 21.3458 178.475 21.4296C178.637 22.3513 178.394 23.2729 177.908 24.027C177.908 24.1108 177.827 24.2784 177.908 24.2784C178.394 24.4459 178.88 24.2784 179.367 24.027C179.934 24.027 180.42 23.9432 180.826 23.8594C180.907 23.8594 180.907 23.9432 180.907 24.027C180.582 24.3621 180.42 24.7811 180.339 25.2838C179.934 25.7027 179.367 26.0379 179.367 26.6244C179.448 26.8758 179.691 26.6244 179.853 26.7082C179.934 26.7082 180.015 26.792 180.015 26.8758L179.61 27.4623C179.367 27.7974 179.61 28.2164 179.61 28.5515C179.691 28.8029 180.015 28.9704 180.258 28.9704C180.826 28.9704 181.393 28.7191 181.879 28.5515C182.447 28.3001 183.176 28.3001 183.743 28.3839C184.311 28.3839 184.797 27.965 185.283 27.5461C185.527 27.5461 185.77 27.7136 185.932 27.8812C186.661 28.6353 187.553 28.9704 188.525 28.9704L188.607 28.8867C188.688 28.8029 188.607 28.7191 188.607 28.6353L188.039 28.3001C187.634 28.0488 187.067 27.6298 186.904 27.1271C186.742 26.7082 186.58 26.2055 186.256 25.7865C186.175 25.5352 185.932 25.3676 185.851 25.2L185.932 25.1162C186.58 25.3676 186.986 26.0379 187.31 26.6244C187.796 27.2947 188.525 27.965 189.417 27.7974L189.498 27.7136C189.498 27.6298 189.498 27.6298 189.498 27.5461L188.931 27.0433ZM178.799 17.6592C178.718 17.743 178.637 17.743 178.556 17.743C178.475 17.1564 178.313 16.6537 178.151 16.151C178.151 16.0672 178.07 15.9834 178.07 15.9834C177.989 15.8996 177.989 15.8159 177.908 15.7321C177.827 15.5645 177.746 15.3969 177.827 15.1456C177.908 15.0618 178.151 15.0618 178.232 15.0618C178.475 15.2293 178.556 15.4807 178.718 15.6483C178.961 16.151 178.961 16.9889 178.799 17.6592ZM183.743 26.4568C183.5 26.5406 183.176 26.5406 182.933 26.5406C182.933 26.5406 182.933 26.5406 182.852 26.5406C182.852 26.5406 182.771 26.5406 182.771 26.4568C182.69 26.4568 182.69 26.373 182.69 26.2893C182.852 25.8703 183.176 25.5352 183.581 25.4514H183.662H183.743C183.824 25.4514 183.906 25.5352 183.906 25.619C183.987 25.8703 183.987 26.2893 183.743 26.4568ZM185.283 22.7702C185.283 22.854 185.283 22.854 185.283 22.854V22.9378C185.283 23.0216 185.202 23.1053 185.04 23.1053C184.878 23.1053 184.797 23.0216 184.797 22.9378C184.797 22.7702 184.797 22.6026 184.716 22.435C184.716 22.2675 184.635 22.0999 184.554 22.0161C184.473 21.9323 184.473 21.8485 184.392 21.7647C184.311 21.681 184.23 21.5972 184.23 21.5134C184.068 21.3458 183.987 21.262 183.824 21.262C183.743 21.262 183.662 21.3458 183.5 21.5134C183.419 21.5972 183.419 21.5972 183.338 21.681L183.257 21.8485C183.176 21.9323 183.095 21.9323 183.095 21.9323C183.014 21.681 183.014 21.5134 183.095 21.3458C183.176 21.1782 183.257 21.0107 183.338 20.8431C183.419 20.7593 183.419 20.7593 183.419 20.6755C183.419 20.5917 183.5 20.5079 183.5 20.4241C183.581 20.2566 183.743 20.089 184.068 20.1728C184.23 20.2566 184.392 20.4241 184.473 20.5917C184.554 20.6755 184.554 20.7593 184.635 20.8431C184.716 20.9269 184.716 21.0107 184.797 21.0107C185.202 21.5134 185.446 22.0999 185.283 22.7702Z" fill="#DB0A40"/>
<path d="M153.268 28.551C153.025 28.6348 152.863 28.8862 152.782 29.1375C152.701 29.5565 152.782 29.9754 152.457 30.2268C152.457 30.3106 152.376 30.3943 152.457 30.4781C152.701 30.5619 153.025 30.7295 153.349 30.7295C153.511 30.2268 153.592 29.6403 153.835 29.2213V29.0538C153.673 28.8862 153.511 28.6348 153.268 28.551Z" fill="#DB0A40"/>
<path d="M172.883 27.1268C173.126 27.4619 173.126 27.8809 173.45 28.1322C173.856 28.216 174.18 28.0484 174.504 27.7971C174.666 27.6295 174.423 27.4619 174.423 27.2944C174.261 27.043 174.342 26.5403 173.937 26.5403C173.532 26.6241 173.126 26.6241 172.721 26.6241L172.64 26.7079C172.478 26.8754 172.802 26.8754 172.883 27.1268Z" fill="#DB0A40"/>
<path d="M154.646 28.4675C155.051 28.2161 155.295 27.7972 155.538 27.3782C155.538 27.2107 155.376 27.1269 155.214 27.0431C155.133 26.9593 155.051 27.0431 154.889 27.0431C154.646 27.2945 154.322 27.462 153.998 27.7134C153.836 27.7972 153.917 27.9648 153.917 28.1323C153.917 28.2999 154.079 28.3837 154.16 28.4675C154.322 28.5513 154.484 28.5513 154.646 28.4675Z" fill="#DB0A40"/>
<path d="M201.332 24.3615L201.413 24.1939V24.1101L201.332 24.3615ZM190.228 16.0665C190.147 16.1503 190.066 16.1503 189.904 16.2341C190.066 16.2341 190.066 16.2341 190.714 15.9827C190.714 15.9827 190.714 15.9827 190.795 15.9827C190.552 15.9827 190.39 15.9827 190.228 16.0665ZM183.014 21.7641C182.69 21.9316 182.285 22.183 181.961 22.3506C182.285 22.183 182.771 21.9316 183.014 21.7641ZM189.012 15.0611H188.931H189.012ZM192.011 14.3908C191.93 14.3908 191.849 14.3908 191.849 14.3908C191.93 14.3908 192.011 14.3908 192.011 14.3908ZM192.416 14.307H192.335C192.822 14.2232 193.308 14.1394 193.713 14.0556C193.632 14.0556 193.47 14.1394 193.389 14.1394H193.227C193.227 14.1394 193.227 14.1394 193.146 14.1394H193.065C192.903 14.1394 192.822 14.1394 192.659 14.1394C192.578 14.307 192.497 14.307 192.416 14.307ZM182.69 8.60947C180.907 9.27977 178.719 10.4528 176.854 12.2123C176.287 12.715 175.801 13.2178 174.909 13.5529C174.828 13.8043 174.666 14.0556 174.585 14.307C174.423 14.8097 174.342 14.9773 174.261 15.3124V15.3962C174.423 15.3962 174.666 15.2287 175.639 14.6421C177.341 13.5529 178.151 13.0502 179.772 12.2961C179.61 12.7988 179.448 13.0502 178.962 13.4691C178.8 13.5529 178.638 13.7205 178.475 13.8043C177.908 14.1394 177.341 14.3908 176.773 14.7259C176.125 15.1449 175.476 15.5638 174.828 15.899C174.747 15.899 174.666 15.9827 174.666 15.9827C174.423 16.1503 174.261 16.0665 174.261 15.8152C174.261 15.8152 174.261 15.8152 174.261 15.7314C174.261 15.899 174.18 15.9827 174.18 16.1503C173.937 17.3233 173.855 18.245 173.855 19.0829C173.855 21.5127 174.342 22.9371 174.342 23.0209V23.1047C174.423 23.1047 174.423 23.1047 174.504 23.1047C174.666 23.775 174.666 23.8587 174.747 24.1939C175.071 24.4452 174.909 24.7804 175.071 25.0318C175.152 25.0318 175.314 24.948 175.395 24.948L175.233 25.0318C175.395 25.1155 175.558 25.1155 175.72 25.1993C175.72 25.7858 175.72 25.7858 175.801 25.8696C175.882 25.8696 175.882 25.7858 175.963 25.7858C176.773 25.9534 176.773 25.9534 177.179 25.6183L177.503 25.2831C177.179 25.7021 177.26 25.9534 177.341 26.2048L177.503 26.7913C177.746 26.7913 177.341 26.121 182.204 22.5181C184.392 21.2613 186.499 19.7532 188.688 18.4126C187.067 18.9153 185.608 19.9207 184.068 20.591C183.582 20.9262 183.095 21.1775 182.69 21.4289L182.609 21.2613H182.528H182.447C182.366 21.2613 182.204 21.1775 182.123 21.2613C182.123 21.2613 182.042 21.2613 182.042 21.3451C181.961 21.3451 181.961 21.3451 181.961 21.4289C181.88 21.4289 181.88 21.5127 181.799 21.5127C181.717 21.5127 181.717 21.5127 181.636 21.5127H181.555H181.393C181.393 21.5127 181.393 21.4289 181.393 21.3451V21.2613C181.393 21.2613 181.393 21.2613 181.474 21.2613C181.474 21.2613 181.474 21.2613 181.474 21.1775C181.474 21.0938 181.636 21.01 181.717 20.9262C181.799 20.8424 181.961 20.7586 182.042 20.6748C182.123 20.591 182.285 20.5072 182.447 20.4235C182.528 20.4235 182.528 20.4235 182.609 20.4235C182.69 20.4235 182.69 20.4235 182.69 20.3397C182.69 20.3397 182.69 20.3397 182.69 20.2559L182.528 20.1721C182.447 20.1721 182.528 20.1721 182.447 20.1721C182.366 20.1721 182.366 20.2559 182.285 20.2559C182.204 20.3397 182.123 20.3397 182.123 20.3397C182.042 20.3397 182.042 20.4235 182.042 20.4235C181.88 20.5072 181.717 20.6748 181.474 20.7586C181.393 20.7586 181.393 20.7586 181.393 20.7586C181.312 20.7586 181.15 20.8424 181.069 20.8424C180.988 20.8424 180.907 20.8424 180.826 20.9262L180.745 21.01C180.664 21.0938 180.583 21.0938 180.583 21.1775C180.502 21.2613 180.421 21.1775 180.34 21.1775C180.34 21.1775 180.34 21.1775 180.259 21.1775H180.177V21.0938C180.177 21.01 180.259 21.01 180.259 20.9262C180.177 20.8424 180.015 20.9262 179.934 20.9262C179.772 20.9262 179.691 21.01 179.529 21.0938C179.448 21.1775 179.286 21.1775 179.205 21.1775C179.043 21.2613 178.962 21.1775 178.8 21.1775C178.8 21.0938 178.8 21.0938 178.8 21.0938L178.881 21.01C178.962 20.9262 178.962 20.9262 179.043 20.8424C179.124 20.7586 179.286 20.6748 179.448 20.591C179.61 20.4235 179.691 20.3397 179.853 20.1721C179.853 20.1721 179.934 20.1721 179.934 20.0883C179.934 20.0883 179.934 20.0883 180.015 20.0883C180.015 20.0883 180.015 20.0045 180.096 20.0045C180.177 19.9207 180.259 19.9207 180.259 19.837C180.259 19.837 180.34 19.837 180.34 19.7532V19.6694C180.259 19.6694 180.259 19.7532 180.259 19.7532C180.177 19.837 180.096 19.837 180.096 19.837C179.934 19.9207 179.691 20.0045 179.529 20.0045C179.448 20.0045 179.448 20.0045 179.367 20.0045H179.286H179.124C179.124 19.9207 179.205 19.837 179.205 19.7532C179.205 19.6694 179.286 19.6694 179.367 19.5856C179.367 19.5856 179.367 19.5018 179.448 19.5018C179.448 19.5018 179.448 19.5018 179.529 19.5018C179.691 19.418 179.772 19.3342 179.934 19.2504L180.015 19.1667H180.096L180.177 19.0829C180.34 18.9991 180.502 18.9153 180.664 18.8315C180.907 18.7477 181.069 18.4964 181.312 18.4126C181.393 18.4126 181.474 18.3288 181.555 18.3288C181.636 18.3288 181.636 18.3288 181.717 18.245C181.799 18.1612 181.961 18.0774 182.042 18.0774C182.123 17.9936 182.285 17.9936 182.366 17.9098L182.447 17.8261H182.528C182.609 17.8261 182.609 17.7423 182.69 17.7423C182.771 17.7423 182.852 17.6585 182.852 17.6585C182.933 17.6585 182.933 17.5747 183.014 17.5747C183.095 17.5747 183.095 17.4909 183.095 17.4909V17.4071C183.014 17.4071 182.933 17.4909 182.852 17.4909C182.771 17.4909 182.69 17.5747 182.609 17.5747C182.528 17.5747 182.528 17.6585 182.447 17.6585H182.366H182.285C182.204 17.6585 182.204 17.6585 182.123 17.7423C182.042 17.7423 181.88 17.8261 181.799 17.9098C181.636 17.9936 181.555 18.0774 181.393 18.1612C181.231 18.245 181.069 18.3288 180.907 18.4126C180.745 18.4126 180.664 18.4964 180.502 18.5801C180.421 18.5801 180.34 18.6639 180.259 18.6639C180.177 18.6639 180.177 18.6639 180.177 18.7477C180.096 18.7477 180.096 18.8315 180.015 18.8315C179.853 18.9153 179.691 18.9991 179.529 18.9991C179.448 18.9991 179.448 19.0829 179.367 19.0829C179.286 19.0829 179.205 19.0829 179.124 19.0829C179.043 19.0829 179.043 19.0829 178.962 19.0829C178.881 19.0829 178.8 19.0829 178.719 18.9991C178.719 18.9991 178.719 18.9991 178.637 18.9991C179.043 18.6639 179.448 18.4126 179.934 18.1612C180.421 17.8261 180.907 17.5747 181.393 17.3233C181.88 17.072 182.447 16.7368 183.014 16.4855C183.582 16.2341 184.149 15.9827 184.716 15.7314C185.284 15.48 185.851 15.2287 186.5 14.9773C187.067 14.7259 187.634 14.5584 188.283 14.307C188.85 14.1394 189.417 13.8881 190.066 13.7205C190.633 13.5529 191.2 13.3853 191.768 13.3016C192.335 13.134 192.822 13.0502 193.389 12.9664C193.632 12.8826 193.875 12.8826 194.118 12.8826C194.199 12.8826 194.28 12.8826 194.28 12.8826C194.361 12.8826 194.361 12.8826 194.361 12.8826H194.28C194.361 12.8826 194.524 12.8826 194.605 12.7988C194.686 12.7988 194.848 12.7988 194.929 12.7988C195.01 12.7988 195.253 12.7988 195.253 12.8826C195.253 12.9664 195.172 12.9664 195.172 12.9664C195.091 12.9664 195.091 13.0502 195.01 13.0502C195.172 13.0502 195.253 13.0502 195.415 13.0502C195.496 13.0502 195.577 13.0502 195.577 13.0502C195.577 13.0502 195.658 13.0502 195.739 13.0502C195.739 13.0502 195.739 13.0502 195.658 13.0502C195.577 13.134 195.577 13.134 195.496 13.2178C195.415 13.3016 195.415 13.3016 195.334 13.3016C195.172 13.3016 195.091 13.3853 194.929 13.3853C194.686 13.4691 194.524 13.4691 194.28 13.4691C194.199 13.4691 194.199 13.4691 194.199 13.5529C194.28 13.5529 194.28 13.5529 194.361 13.5529C194.524 13.5529 194.686 13.5529 194.848 13.5529C194.929 13.5529 195.01 13.5529 195.091 13.5529C195.172 13.5529 195.172 13.5529 195.253 13.5529C195.334 13.5529 195.415 13.5529 195.496 13.6367C194.605 13.7205 193.632 13.8881 192.74 14.1394C192.011 14.307 191.849 14.3908 191.525 14.307C191.606 14.2232 191.687 14.1394 191.768 14.0556C191.363 13.9718 188.688 14.9773 188.445 15.3962C188.445 15.48 188.445 15.48 188.526 15.48C188.688 15.48 188.85 15.5638 189.093 15.5638C189.336 15.5638 189.498 15.5638 189.742 15.5638C189.904 15.5638 190.066 15.5638 190.228 15.5638C190.552 15.5638 190.795 15.5638 191.119 15.48C191.363 15.3962 191.606 15.3124 191.849 15.2287C192.092 15.1449 192.335 15.0611 192.578 14.9773C192.659 14.9773 192.659 14.9773 192.74 14.8935L192.822 14.8097C192.903 14.8097 192.903 14.8097 192.903 14.8935C192.822 14.9773 192.578 15.0611 192.497 15.0611C192.416 15.1449 192.254 15.1449 192.173 15.2287C192.173 15.3124 192.335 15.3124 192.497 15.3124C192.578 15.3124 192.578 15.3124 192.578 15.3124C192.578 15.3124 192.578 15.3124 192.659 15.3124H192.74C192.822 15.3124 192.74 15.48 192.74 15.48C192.74 15.5638 192.659 15.5638 192.659 15.6476C192.659 15.7314 192.578 15.7314 192.497 15.7314C192.497 15.8152 193.146 15.8152 193.146 15.7314C193.227 15.7314 193.389 15.6476 193.47 15.6476C193.551 15.6476 193.551 15.6476 193.632 15.6476C193.713 15.6476 193.713 15.6476 193.794 15.6476C193.875 15.6476 193.956 15.5638 194.037 15.5638C194.118 15.5638 194.118 15.5638 194.199 15.5638C194.28 15.5638 194.28 15.5638 194.361 15.5638C194.524 15.5638 194.605 15.48 194.767 15.48H194.848H194.929C195.01 15.48 195.172 15.48 195.253 15.3962C195.415 15.3962 195.496 15.3124 195.658 15.3124C195.82 15.3124 196.064 15.3124 196.226 15.3124C196.388 15.3124 196.55 15.3962 196.793 15.3962C197.036 15.3962 196.793 15.5638 196.712 15.6476C196.469 15.8152 196.226 15.9827 195.901 16.0665C195.739 16.1503 195.577 16.2341 195.415 16.1503C195.334 16.1503 195.253 16.1503 195.091 16.2341C195.01 16.2341 195.01 16.3179 194.929 16.3179C194.848 16.3179 194.848 16.3179 194.767 16.3179C194.686 16.3179 194.605 16.3179 194.524 16.3179H194.443H194.361C194.28 16.3179 194.28 16.3179 194.199 16.3179C194.118 16.3179 194.118 16.4017 194.037 16.4017H193.956C193.875 16.4017 193.794 16.4017 193.794 16.4017C193.632 16.4855 193.47 16.4855 193.308 16.4855C193.308 16.4855 193.308 16.4855 193.227 16.4855C193.146 16.5693 193.065 16.5693 192.903 16.5693C192.659 16.653 192.497 16.8206 192.254 16.8206C192.173 16.8206 192.173 16.8206 192.092 16.8206C191.93 16.8206 191.768 16.9044 191.687 16.9044C191.606 16.9044 191.525 16.9882 191.525 16.9882C191.444 16.9882 191.363 17.072 191.2 17.1558C191.119 17.1558 191.119 17.2395 191.038 17.2395C190.957 17.3233 190.876 17.3233 190.795 17.3233C190.714 17.3233 190.633 17.3233 190.552 17.4071C190.471 17.4071 190.471 17.4909 190.39 17.4909C190.309 17.4909 190.309 17.4909 190.228 17.5747C190.147 17.6585 189.985 17.6585 189.904 17.7423C189.823 17.7423 189.823 17.8261 189.742 17.8261C189.661 17.8261 189.579 17.9098 189.579 17.9936C189.498 18.0774 189.498 18.1612 189.579 18.245C189.742 18.245 189.823 18.245 189.985 18.245C190.066 18.245 190.066 18.245 190.147 18.245C190.228 18.245 190.309 18.245 190.309 18.245C190.471 18.245 190.552 18.1612 190.714 18.0774C190.714 18.0774 190.714 18.0774 190.795 18.0774C192.416 17.7423 193.875 16.9044 195.577 16.8206C195.577 16.8206 198.333 16.653 200.197 17.5747C200.765 17.8261 203.52 19.418 202.142 24.1939L202.305 23.775C202.629 22.6857 202.71 22.0992 202.791 21.4289V21.3451C202.953 20.1721 202.872 19.9207 202.872 18.7477C202.71 16.9882 202.629 16.4017 202.223 15.0611L202.142 14.9773C202.061 14.8097 202.548 13.5529 199.873 10.7879C198.738 9.61492 197.036 9.53113 195.739 8.77704C195.901 8.69326 195.901 8.69326 196.226 8.77704C195.091 8.02296 193.794 8.19053 192.578 7.7716C192.74 7.68781 192.822 7.60402 193.146 7.60402C193.146 7.52024 193.146 7.52024 193.146 7.43645C194.929 7.18509 196.145 7.60402 197.036 8.10675C196.955 8.02296 196.793 7.93917 196.712 7.85539C196.955 7.93917 197.117 8.02296 197.522 8.35811L197.441 8.27432C195.658 6.84994 193.065 5.09041 185.203 8.35811L183.987 7.93917C183.987 7.93917 183.338 8.35811 183.338 8.27432" fill="#FFD300"/>
<path d="M177.584 8.77793L177.828 8.52656C177.746 8.61035 177.665 8.69414 177.584 8.77793ZM199.63 9.95095C199.549 9.95095 199.549 9.95095 199.63 9.95095C199.549 9.95095 199.549 9.95095 199.63 9.95095ZM194.929 10.2023C194.686 10.1185 194.524 10.0347 194.362 9.95095C194.281 9.95095 194.2 9.95095 194.038 9.86716C194.2 10.0347 194.2 10.0347 194.929 10.2023ZM202.386 17.6594C202.224 15.9836 202.143 15.6485 201.738 14.3079L201.495 13.6376C201.008 12.2132 200.36 11.2915 199.874 10.3699C199.711 10.1185 199.711 10.1185 199.468 9.78337C198.658 8.69414 198.253 8.35899 197.361 7.60491C197.523 7.68869 197.523 7.68869 197.766 7.94005L197.685 7.85627C195.335 5.6778 192.903 5.0075 190.147 4.67235C190.472 4.58857 193.227 4.75614 195.983 6.43188C193.308 4.67235 190.877 4.33721 189.58 4.25342C189.256 4.25342 188.932 4.25342 188.526 4.25342C187.311 4.25342 185.69 4.50478 183.582 5.17508C183.582 5.17508 182.204 5.59401 180.989 6.26431C180.989 6.26431 180.908 6.26431 180.908 6.3481C180.908 6.3481 180.908 6.3481 180.826 6.3481C180.745 6.43188 180.664 6.43188 180.583 6.51567C180.583 6.51567 180.583 6.51567 180.502 6.51567C180.421 6.51567 180.421 6.59946 180.34 6.59946C180.178 6.68325 180.097 6.76703 179.935 6.85082C179.854 6.93461 179.773 6.93461 179.692 7.01839L179.53 7.18597C179.368 7.35354 179.124 7.52112 178.962 7.60491C178.638 7.85627 178.638 7.94005 178.071 8.44278C179.043 7.52112 181.799 5.92916 186.176 5.34265C185.933 5.51023 185.69 5.59401 185.041 5.76159C182.772 6.26431 179.286 7.10218 177.746 8.69414C177.584 8.86171 177.422 9.02929 177.017 9.53201C176.612 10.0347 176.612 10.1185 176.044 10.9564L175.72 11.4591C175.72 11.5429 175.72 11.5429 175.72 11.6267C175.801 11.6267 175.801 11.6267 175.882 11.6267C175.558 13.0511 175.558 13.0511 175.558 13.0511C176.044 12.6321 176.044 12.6321 176.125 12.6321C175.801 13.3862 175.801 13.3862 175.801 13.5538C175.72 13.7214 175.72 13.8889 175.639 13.9727C175.639 13.9727 175.72 14.0565 175.72 14.1403C175.963 13.9727 176.207 13.7214 176.45 13.6376L176.125 13.8889C176.369 13.8052 176.612 13.6376 176.855 13.5538C176.612 13.8052 176.45 14.1403 176.207 14.3917C176.45 14.2241 176.612 14.0565 176.855 13.9727L176.936 14.0565C177.26 13.9727 177.422 13.8889 178.395 13.3862L178.962 13.0511C178.395 13.47 178.314 13.47 178.152 13.7214C178.395 13.7214 178.395 13.7214 179.53 13.1349C181.07 12.3808 182.042 11.9618 185.041 11.2915C189.418 10.5375 189.418 10.5375 192.417 10.6212C191.363 10.3699 191.363 10.3699 187.554 10.4537C183.582 10.8726 182.042 11.5429 181.394 11.7943C180.259 12.2132 180.259 12.2132 180.016 12.2132C180.989 11.4591 185.365 9.86716 186.5 9.69958C186.5 9.69958 183.015 10.2023 181.07 11.2915C179.935 11.8781 178.638 12.297 178.638 12.297C179.124 11.7943 179.935 11.2915 180.34 10.705C179.935 10.6212 179.692 10.705 178.881 10.9564C181.88 6.93461 198.577 5.92916 201.495 13.8889C201.332 13.6376 199.711 11.2078 196.794 9.95095C196.064 9.6158 196.064 9.6158 195.902 9.44822C195.902 9.44822 195.983 9.44822 196.064 9.36444C195.659 9.11307 193.714 8.52656 192.984 8.69414C195.74 9.44822 200.036 11.5429 199.955 12.6321C198.82 12.2132 197.928 11.2915 196.794 10.8726C198.09 11.6267 200.279 12.7997 200.603 14.0565C200.603 14.0565 200.522 14.1403 200.441 14.1403C200.279 14.0565 200.117 13.8889 200.036 13.8052C199.793 13.5538 198.253 12.297 197.28 11.7943C195.821 11.2078 194.281 11.0402 192.822 10.5375C194.443 11.2078 196.145 11.3753 197.685 12.297C199.468 13.3862 200.846 15.2295 200.846 15.2295C203.278 18.581 202.305 22.0163 201.981 23.2731L201.657 24.111L201.981 23.2731C202.305 22.1839 202.386 22.0163 202.629 20.6757C202.467 19.3351 202.467 19 202.386 17.6594ZM185.933 10.9564C185.608 11.0402 185.122 11.124 184.717 11.124C185.122 11.124 185.608 11.0402 185.933 10.9564ZM191.12 5.0075C190.796 4.92372 190.066 4.92372 189.175 4.83993C189.175 4.83993 189.094 4.83993 189.013 4.83993C190.147 4.83993 190.958 4.83993 191.849 5.09129C191.525 5.09129 191.444 5.09129 191.12 5.0075ZM177.99 8.44278C177.909 8.44278 177.909 8.44278 177.99 8.44278C177.909 8.44278 177.909 8.44278 177.99 8.44278ZM199.549 9.86716C199.468 9.86716 199.468 9.86716 199.549 9.86716C199.468 9.86716 199.468 9.86716 199.549 9.86716C199.549 9.86716 199.468 9.86716 199.549 9.86716Z" fill="#F19000"/>
<path d="M201.413 24.1116C201.495 23.944 201.495 23.7764 201.576 23.6926L201.413 24.1116Z" fill="#004586"/>
<path d="M180.503 26.4572C180.341 26.3738 180.26 26.2903 180.098 26.2903C180.098 26.2903 180.26 26.3738 180.503 26.4572Z" fill="#004586"/>
<path d="M199.549 17.4923C199.306 17.4085 198.982 17.241 198.739 17.1572H198.658C198.171 16.9896 197.685 16.9058 197.28 16.822C196.307 19.1681 195.091 20.5087 193.551 21.7655C191.282 23.6926 193.227 23.1061 193.308 23.1061C193.551 23.0223 193.713 22.8547 193.794 22.8547C191.687 25.2845 185.527 28.0495 180.988 26.1224C179.773 25.6197 178.962 25.2845 181.231 26.7927H181.15C182.123 27.2954 183.339 27.9657 182.69 27.9657C182.69 27.9657 182.69 27.9657 182.69 28.0495C182.69 28.0495 182.69 28.0495 184.392 28.7198C184.311 28.7198 184.23 29.1387 185.608 29.3063C187.229 29.4739 188.688 29.3063 189.985 28.8874C187.148 30.8983 183.906 32.2389 180.664 31.5686C180.745 31.5686 180.826 31.6524 180.988 31.6524C181.718 31.9037 182.204 31.9875 183.015 32.0713C183.015 32.0713 183.015 32.1551 183.015 32.2389C183.582 32.4902 184.23 32.3226 184.392 32.2389C184.717 32.0713 184.798 32.0713 186.743 31.9037C186.338 32.2389 185.689 32.0713 185.284 32.4064C185.284 32.4902 185.365 32.574 185.365 32.574C187.797 32.2389 190.39 31.9037 196.631 26.6251C196.712 26.5413 196.793 26.4575 196.874 26.4575C196.388 26.8765 196.388 26.8765 192.498 30.3118C191.525 31.1496 190.228 31.2334 189.337 32.1551V32.2389H189.418C190.309 32.4064 190.958 31.8199 191.768 31.7361C191.768 31.7361 191.687 31.4848 188.607 32.9092C188.607 32.9092 188.607 32.9092 188.607 33.1605C189.742 32.9092 191.93 32.574 193.389 31.7361C195.578 30.4793 199.63 26.7927 201.494 22.7709C201.575 22.6871 201.656 22.5195 201.737 22.4358V22.5195C201.819 22.6871 201.819 22.6871 201.575 23.3574C201.737 23.0223 201.819 22.6871 201.981 22.352C202.143 19.0005 200.035 17.7437 199.549 17.4923ZM197.199 20.76C197.118 20.9276 197.036 21.0114 196.955 21.179C196.55 21.8493 195.659 22.0168 195.172 22.6871C195.091 22.6033 195.01 22.6033 194.848 22.6871C194.767 22.352 195.253 21.933 194.929 21.7655C195.334 20.8438 195.983 20.1735 196.631 19.4194C196.793 20.0897 198.009 19.0843 198.009 19.0005C198.009 18.9167 198.09 18.9167 198.09 18.8329C197.847 19.4194 197.604 20.0897 197.199 20.76Z" fill="url(#paint1_linear_249_1963)"/>
<path d="M201.575 23.6079C201.575 23.4403 201.656 23.3565 201.656 23.189C200.765 26.0377 198.819 28.3 197.604 29.3892C197.766 29.3054 197.928 29.1378 198.09 28.9703C197.847 29.2216 197.766 29.3054 197.685 29.473C197.847 29.3054 198.009 29.2216 198.171 29.0541C198.09 29.1378 198.09 29.1378 197.117 30.1433C198.333 29.0541 200.278 27.2107 201.413 24.2782L201.494 24.0268C201.494 23.943 201.575 23.7755 201.575 23.6079Z" fill="#004586"/>
<path d="M181.15 26.7909C180.907 26.624 180.664 26.5405 180.501 26.457C180.745 26.624 180.907 26.7074 181.15 26.7909Z" fill="#004586"/>
<path d="M201.332 24.3615L201.414 24.1946C201.414 24.1946 201.414 24.1946 201.414 24.1111L201.332 24.3615Z" fill="#F19000"/>
<path d="M200.765 18.4135C200.197 20.6757 199.549 21.6811 198.576 23.2731C198.009 24.111 196.955 24.2786 196.388 25.1164C196.226 25.0326 196.226 25.0326 195.983 25.1164C195.902 24.6975 196.55 24.1948 196.064 23.9434C196.874 22.1839 198.657 21.0109 199.225 19.0837C198.981 19.3351 198.819 19.6703 198.657 20.0054C198.9 19.1675 199.306 18.3297 199.468 17.408C199.387 17.408 199.387 17.408 199.306 17.3242C199.225 17.408 199.225 17.4918 199.144 17.6594C197.928 20.6757 196.388 22.3514 194.443 24.0272C191.687 26.3732 194.037 25.7029 194.118 25.7029C194.362 25.6191 194.605 25.4516 194.767 25.3678C191.444 29.222 180.34 33.4951 175.233 26.1219C175.314 26.2057 175.314 26.2894 175.395 26.3732C176.611 28.3003 176.611 28.3003 179.448 30.1437C178.962 30.0599 178.557 29.6409 178.07 29.4734C178.07 29.4734 179.286 31.0653 182.852 31.4842C186.662 31.9032 187.715 31.6518 188.85 31.3167C189.823 31.0653 190.714 30.9815 190.714 30.9815C187.877 31.9032 187.877 31.9032 184.797 32.0708C184.149 32.0708 183.582 31.987 183.014 31.8194C182.447 31.6518 181.88 31.568 181.312 31.568C181.312 31.568 181.312 31.568 181.312 31.6518C181.312 31.6518 181.312 31.6518 183.339 32.4897C183.176 32.5735 182.609 32.6573 180.096 31.4842C180.096 31.4842 183.095 32.9924 184.797 33.16C190.309 33.7465 194.362 30.9815 198.171 28.3003V28.3841C198.252 28.3841 198.252 28.3841 198.333 28.3841C198.333 28.4679 198.333 28.4679 197.928 28.9706C198.819 28.2165 199.306 27.0435 200.278 26.2894C200.197 26.7084 197.198 31.7356 190.471 33.3276C190.795 33.2438 190.876 33.2438 191.282 33.16C190.795 33.3276 190.795 33.3276 190.633 33.4114C190.795 33.4114 190.795 33.4114 191.363 33.2438C190.957 33.4114 190.552 33.4951 189.58 33.7465C195.415 32.7411 199.63 29.3058 201.575 24.111C201.818 23.1893 201.98 22.8542 202.061 22.2677C201.98 20.4243 201.413 19.1675 200.765 18.4135Z" fill="#002F63"/>
<path d="M179.448 24.2789C179.043 24.3627 178.638 24.4465 178.314 24.5303C178.395 24.7816 178.557 25.033 178.719 25.3682C178.881 25.1168 179.043 24.8654 179.205 24.6979C179.286 24.5303 179.367 24.3627 179.448 24.2789ZM159.348 24.4465C159.105 24.0276 158.942 23.1897 158.861 22.0167C155.457 22.6032 153.836 20.2571 153.998 18.2462C154.079 16.6543 154.485 16.0678 156.187 14.6434C154.485 14.392 153.512 12.8839 153.674 11.6271C153.836 10.5378 153.998 10.2865 154.16 9.95131L154.323 9.69995L154.566 9.86753C154.566 9.86753 155.863 10.7892 156.349 10.9568C156.349 10.9568 156.43 10.9568 156.511 10.9568C156.592 10.9568 156.754 10.9568 156.916 11.0405C157.24 11.1243 157.565 11.1243 157.97 11.2919C158.699 11.5433 159.51 11.9622 159.753 12.9677C159.996 13.8893 159.834 14.5596 159.348 15.2299C159.105 15.5651 158.861 15.8164 158.537 16.0678C158.213 16.3191 157.889 16.6543 157.484 16.9056C156.916 17.3246 156.673 17.9111 156.754 18.4138C156.835 19.0003 157.321 19.3355 157.889 19.3355C158.537 19.3355 159.186 19.0003 159.996 18.4138C160.401 18.1625 160.726 17.8273 161.131 17.5759C161.536 17.3246 161.941 16.9894 162.428 16.8219C162.833 16.6543 163.157 16.4867 163.481 16.4867C163.806 16.4029 164.13 16.4029 164.373 16.3191C164.94 16.2354 165.346 16.2354 165.751 15.9002C165.913 15.8164 166.075 15.6488 166.237 15.4813C166.399 15.3137 166.642 15.0623 166.886 14.8948C167.372 14.4758 167.939 14.1407 168.669 14.0569C168.831 14.0569 169.074 14.0569 169.236 14.0569C169.398 14.0569 169.56 14.0569 169.641 13.9731C169.722 13.9731 169.803 13.8893 169.884 13.8055C170.047 13.7217 170.128 13.5542 170.29 13.3866C170.614 13.0514 171.1 12.6325 171.749 12.4649C172.559 12.2136 173.126 11.9622 173.694 11.7946C174.18 11.5433 174.748 11.2919 175.396 10.7892C175.882 10.454 177.665 9.78374 179.53 11.1243C180.097 11.5433 180.583 11.8784 181.07 12.2974C181.556 12.7163 182.204 13.3028 183.015 13.9731C183.258 14.2245 183.582 14.5596 183.825 14.8948C184.068 15.2299 184.312 15.5651 184.555 15.8164C185.446 16.9894 186.176 17.8273 186.257 18.9165C186.5 20.8436 186.662 21.9329 187.392 23.86C187.392 23.86 187.392 23.86 187.473 23.9438C187.473 24.0276 187.554 24.0276 187.635 24.1113L187.797 24.2789C187.878 24.3627 187.959 24.4465 187.959 24.4465C188.121 24.6141 188.202 24.7816 188.283 24.9492C188.364 25.1168 188.445 25.2844 188.607 25.4519C188.769 25.7871 189.013 26.1222 189.337 26.2898C189.742 26.5412 189.904 26.625 190.066 26.7925C190.39 27.1277 190.228 27.5466 189.985 27.798C189.823 27.9656 189.58 28.0493 189.337 28.1331C189.499 28.6359 189.094 29.1386 188.283 29.2224C186.662 29.3062 185.608 28.4683 185.203 28.0493L185.122 28.1331C184.96 28.3007 184.717 28.4683 184.393 28.5521C183.987 28.7196 183.582 28.7196 183.177 28.7196C183.015 28.7196 182.853 28.7196 182.61 28.7196C182.447 28.7196 182.285 28.7196 182.204 28.7196C181.88 28.8034 181.556 28.8872 181.232 28.971C180.907 29.0548 180.502 29.2224 180.097 29.2224C179.448 29.2224 178.962 28.971 178.719 28.5521C178.638 28.4683 178.638 28.3845 178.638 28.2169C178.395 28.7196 178.071 29.1386 177.827 29.3062C177.584 29.4737 177.26 29.4737 177.017 29.4737C176.855 29.4737 176.774 29.4737 176.693 29.4737H176.612C175.477 29.9764 173.775 30.6467 173.045 30.7305C172.235 30.7305 171.505 30.144 171.019 29.2224C170.695 29.2224 170.29 29.1386 170.128 28.971C169.722 28.5521 169.074 27.2953 169.074 26.7925C169.074 26.4574 169.236 26.206 169.479 26.1222C169.641 26.0385 169.884 25.9547 170.128 25.8709C170.614 25.7871 171.1 25.7871 171.343 25.7871C171.424 25.7871 171.505 25.7871 171.587 25.7871C171.668 25.7871 171.749 25.7871 171.83 25.7871C171.83 25.7871 171.911 25.7871 171.992 25.8709C172.154 25.6195 172.478 25.5357 172.64 25.5357C172.721 25.5357 172.721 25.5357 172.802 25.5357C172.64 25.4519 172.559 25.2844 172.478 25.2006C172.397 25.2006 172.316 25.2844 172.235 25.2844C171.992 25.3682 171.749 25.3682 171.505 25.4519C170.614 25.5357 169.074 25.3682 168.912 25.3682C168.669 25.3682 168.263 25.4519 167.777 25.5357C167.372 25.6195 166.967 25.6195 166.642 25.6195C166.48 25.9547 166.318 26.2898 166.156 26.5412C165.994 26.8763 165.832 27.2115 165.67 27.379C165.427 27.6304 165.183 27.798 165.021 27.9656C164.94 28.0493 164.778 28.0493 164.697 28.1331C164.616 28.1331 164.535 28.2169 164.535 28.2169C164.373 28.3007 164.049 28.5521 163.643 28.7196C163.319 28.8872 162.914 29.0548 162.509 28.971C161.617 28.8034 161.05 28.8034 160.726 28.7196C160.564 28.7196 160.482 28.7196 160.32 28.8872C160.239 28.971 160.158 29.0548 160.077 29.1386C159.996 29.2224 159.834 29.3062 159.753 29.3899C159.348 29.8089 158.699 30.2278 157.889 30.144C157.808 30.144 157.646 30.144 157.484 30.0602C157.402 30.0602 157.321 30.0602 157.24 29.9764C157.159 30.0602 157.159 30.144 157.078 30.2278C156.997 30.3116 156.997 30.3954 156.916 30.4792C156.835 30.563 156.835 30.6467 156.754 30.7305C156.511 31.0657 156.106 31.4008 155.376 31.4008C155.376 31.4008 155.295 31.4008 155.214 31.4008C155.133 31.4008 155.133 31.4008 155.052 31.4008C154.89 31.4008 154.728 31.317 154.566 31.317C154.404 31.317 154.241 31.2333 154.079 31.2333H153.917C153.836 31.2333 153.836 31.317 153.755 31.317C153.674 31.317 153.593 31.4008 153.512 31.4008C153.431 31.4008 153.026 31.4008 152.701 31.317C152.539 31.2333 152.296 31.2333 152.134 31.1495C151.972 31.0657 151.81 30.8981 151.729 30.6467C151.648 30.3116 151.729 30.0602 151.81 29.8089C151.81 29.7251 151.891 29.6413 151.972 29.5575C151.972 29.4737 152.053 29.3899 152.053 29.3062C152.134 29.1386 152.134 28.971 152.134 28.8034C152.134 28.6359 152.215 28.4683 152.296 28.3007C152.458 27.8818 152.702 27.6304 153.269 27.5466C153.593 26.625 154.647 26.1222 155.214 26.1222C155.7 26.206 155.944 26.5412 156.187 26.7925C156.268 26.7087 156.349 26.625 156.43 26.4574C156.43 26.4574 156.43 26.3736 156.511 26.2898C156.511 26.206 156.592 26.1222 156.592 26.0385C156.673 25.8709 156.673 25.6195 156.754 25.4519C156.916 25.1168 157.159 24.5303 157.727 24.5303C158.213 24.5303 158.699 24.4465 159.105 24.2789C159.186 24.5303 159.267 24.4465 159.348 24.4465Z" fill="white"/>
<path d="M188.931 26.9594C188.12 26.4566 187.877 25.6188 187.391 24.9485C187.229 24.6971 186.904 24.5295 186.742 24.2782C186.175 22.6862 185.689 21.178 185.608 19.3347C185.527 18.9158 185.364 18.4131 185.202 17.9941C184.473 16.8211 183.581 15.7319 182.69 14.6426C182.609 14.5588 182.447 14.4751 182.447 14.3913L179.367 11.7939C178.961 11.4587 178.556 11.2911 178.151 11.1236C177.502 10.8722 176.611 10.956 175.962 11.2074C175.314 11.5425 174.747 12.129 174.017 12.2966C173.045 12.7993 171.91 12.8831 171.018 13.6372C170.532 14.0561 170.127 14.8102 169.316 14.6426C168.506 14.6426 167.695 14.894 167.128 15.4805C166.561 15.9832 165.993 16.6535 165.264 16.8211C164.615 17.0725 163.805 16.9887 163.156 17.24C162.103 17.4914 161.292 18.3293 160.401 18.9996C159.509 19.5023 158.617 20.0888 157.564 20.0888C156.834 20.005 156.186 19.5023 155.943 18.832C155.7 17.9941 155.943 17.1563 156.591 16.5697C157.24 15.7319 158.293 15.3129 158.78 14.3075C159.023 13.8048 159.023 13.0507 158.617 12.548C157.969 11.7939 156.915 11.7939 156.024 11.5425C155.456 11.3749 155.051 10.956 154.484 10.6208C154.322 10.956 154.241 11.2911 154.241 11.6263C154.322 12.4642 154.97 13.2183 155.7 13.5534C156.186 13.721 156.672 13.6372 157.159 13.721C157.321 13.8048 157.402 13.8886 157.402 14.0561C157.402 14.2237 157.402 14.3075 157.24 14.3913C156.51 14.9778 155.781 15.6481 155.132 16.4022C154.484 17.1563 154.403 18.4131 154.727 19.3347C155.132 20.3402 156.186 21.0942 157.159 21.178C157.888 21.2618 158.536 21.0942 159.185 20.9267C159.266 20.9267 159.347 21.0105 159.347 21.0942C159.428 21.6808 159.347 22.2673 159.428 22.8538C159.509 23.3565 159.752 23.7754 159.914 24.2782C159.914 24.4457 159.914 24.6133 159.833 24.7809C159.428 25.116 159.104 25.2836 158.699 25.4512L157.726 25.535L157.564 25.6188C157.159 26.0377 157.159 26.5404 156.915 27.0431C156.591 27.5459 156.024 27.7972 155.538 28.1324C155.375 28.3837 155.213 28.6351 154.97 28.8865C154.808 29.054 154.565 29.054 154.403 29.1378C154.079 29.5568 153.998 30.1433 153.917 30.646C154.484 30.7298 155.051 30.9811 155.619 30.7298C156.105 30.4784 156.186 29.8919 156.591 29.5568C156.834 29.2216 157.321 29.473 157.645 29.5568C158.131 29.5568 158.536 29.2216 158.942 29.054C159.266 28.8865 159.509 28.4675 159.833 28.2999C160.401 27.9648 161.292 28.1324 161.86 28.2999C162.346 28.4675 162.832 28.3837 163.318 28.1324C163.724 27.881 164.129 27.5459 164.534 27.4621C164.939 27.2107 165.102 26.7918 165.264 26.3728C165.426 26.0377 165.75 25.7025 165.669 25.2836C165.588 25.1998 165.426 24.9485 165.264 25.0322C165.102 25.2836 164.939 25.6188 164.696 25.8701C163.724 27.2107 162.994 27.2945 161.13 27.2945C159.752 27.2107 158.455 27.7134 157.483 28.8027C157.402 28.8865 157.321 28.8027 157.24 28.8027C157.24 28.6351 157.321 28.3837 157.402 28.2999C158.293 27.0431 159.59 26.708 161.049 26.708C161.86 26.6242 162.589 26.5404 163.237 26.2053C163.967 25.7863 164.453 25.1998 164.777 24.4457C164.939 23.6079 165.021 22.6862 165.183 21.9321C165.183 21.8483 165.426 21.7645 165.426 21.8483C165.507 21.8483 165.669 21.9321 165.669 22.0159C165.507 22.8538 165.264 23.7754 165.588 24.6133C166.236 25.4512 167.371 25.0322 168.182 24.9485C169.073 24.8647 169.803 24.9485 170.613 25.0322C171.018 25.0322 171.343 25.116 171.667 24.8647C171.748 24.6971 171.829 24.5295 171.748 24.362C171.748 24.1106 171.505 23.943 171.748 23.7754C171.829 23.6917 171.991 23.7754 172.072 23.8592C172.153 24.1944 172.234 24.5295 172.477 24.8647C172.883 25.4512 173.531 25.8701 174.098 26.1215C174.666 26.5404 175.071 27.0431 175.152 27.7134C175.152 28.0486 174.828 28.2999 174.585 28.4675C174.179 28.7189 173.693 28.8865 173.126 28.8027C172.477 28.4675 172.234 27.7134 171.829 27.1269C171.586 26.8756 171.261 26.7918 170.937 26.7918C170.532 26.7918 170.208 26.8756 169.884 26.9594C169.803 27.0431 169.803 27.1269 169.803 27.2945C170.046 27.7134 170.289 28.1324 170.532 28.6351C170.856 28.8027 171.262 28.5513 171.505 28.8865C171.748 29.2216 171.829 29.6405 172.234 29.8919C172.558 30.1433 173.045 30.3108 173.45 30.1433C174.423 29.8081 175.395 29.5568 176.287 29.054H176.611C176.935 29.054 177.34 29.054 177.665 28.8027C177.908 28.3837 178.151 27.9648 178.394 27.5459C178.637 27.2107 178.475 26.7918 178.394 26.4566C177.989 25.8701 177.746 25.2836 177.502 24.6133C177.259 24.5295 177.097 24.4457 176.854 24.4457C176.773 24.5295 176.53 24.4457 176.53 24.6133L177.584 26.708C177.665 26.8756 177.746 27.1269 177.665 27.2945C177.502 27.7134 177.34 28.1324 176.935 28.4675C176.854 28.4675 176.773 28.5513 176.773 28.4675C176.854 28.0486 177.097 27.5459 177.097 26.9594L176.125 25.116C176.044 24.8647 175.8 24.6133 175.8 24.362C175.8 24.1944 175.881 24.1106 176.044 24.1106C176.449 23.943 177.016 24.0268 177.34 23.6079C177.746 22.9376 177.908 22.1835 177.989 21.3456C177.989 21.2618 178.151 21.178 178.232 21.178C178.313 21.178 178.394 21.2618 178.475 21.3456C178.637 22.2673 178.394 23.1889 177.908 23.943C177.908 24.0268 177.827 24.1944 177.908 24.1944C178.394 24.362 178.88 24.1944 179.367 23.943C179.934 23.943 180.42 23.8592 180.826 23.7754C180.907 23.7754 180.907 23.8592 180.907 23.943C180.582 24.2782 180.42 24.6971 180.339 25.1998C179.934 25.6188 179.367 25.9539 179.367 26.5404C179.448 26.7918 179.691 26.5404 179.853 26.6242C179.934 26.6242 180.015 26.708 180.015 26.7918L179.61 27.3783C179.367 27.7134 179.61 28.1324 179.61 28.4675C179.691 28.7189 180.015 28.8865 180.258 28.8865C180.826 28.8865 181.393 28.6351 181.879 28.4675C182.447 28.2162 183.176 28.2162 183.743 28.2999C184.311 28.2999 184.797 27.881 185.283 27.4621C185.527 27.4621 185.77 27.6297 185.932 27.7972C186.661 28.5513 187.553 28.8865 188.525 28.8865L188.606 28.8027C188.688 28.7189 188.606 28.6351 188.606 28.5513L188.039 28.2162C187.634 27.9648 187.067 27.5459 186.904 27.0431C186.742 26.6242 186.58 26.1215 186.256 25.7025C186.175 25.4512 185.932 25.2836 185.851 25.116L185.932 25.0322C186.58 25.2836 186.985 25.9539 187.31 26.5404C187.796 27.2107 188.525 27.881 189.417 27.7134L189.498 27.6297C189.498 27.5459 189.498 27.5459 189.498 27.4621L188.931 26.9594ZM178.799 17.5752C178.718 17.659 178.637 17.659 178.556 17.659C178.475 17.0725 178.313 16.5697 178.151 16.067C178.151 15.9832 178.07 15.8994 178.07 15.8994C177.989 15.8157 177.989 15.7319 177.908 15.6481C177.827 15.4805 177.746 15.3129 177.827 15.0616C177.908 14.9778 178.151 14.9778 178.232 14.9778C178.475 15.1454 178.556 15.3967 178.718 15.5643C178.961 16.1508 178.961 16.9887 178.799 17.5752ZM183.743 26.4566C183.5 26.5404 183.176 26.5404 182.933 26.5404C182.933 26.5404 182.933 26.5404 182.852 26.5404C182.852 26.5404 182.771 26.5404 182.771 26.4566C182.69 26.4566 182.69 26.3728 182.69 26.2891C182.852 25.8701 183.176 25.535 183.581 25.4512H183.662H183.743C183.824 25.4512 183.906 25.535 183.906 25.6188C183.987 25.8701 183.987 26.2053 183.743 26.4566ZM185.283 22.77C185.283 22.8538 185.283 22.8538 185.283 22.8538V22.9376C185.283 23.0214 185.202 23.1051 185.04 23.1051C184.878 23.1051 184.797 23.0214 184.797 22.9376C184.797 22.77 184.797 22.6024 184.716 22.4348C184.716 22.2673 184.635 22.0997 184.554 22.0159C184.473 21.9321 184.473 21.8483 184.392 21.7645C184.311 21.6808 184.23 21.597 184.23 21.5132C184.068 21.3456 183.987 21.2618 183.824 21.2618C183.743 21.2618 183.662 21.3456 183.5 21.5132C183.419 21.597 183.419 21.597 183.338 21.6808L183.257 21.8483C183.176 21.9321 183.095 21.9321 183.095 21.9321C183.014 21.6808 183.014 21.5132 183.095 21.3456C183.176 21.178 183.257 21.0105 183.338 20.8429C183.419 20.7591 183.419 20.7591 183.419 20.6753C183.419 20.5915 183.5 20.5077 183.5 20.424C183.581 20.2564 183.743 20.0888 184.068 20.1726C184.23 20.2564 184.392 20.424 184.473 20.5915C184.554 20.6753 184.554 20.7591 184.635 20.8429C184.716 20.9267 184.716 21.0105 184.797 21.0105C185.121 21.4294 185.445 22.0159 185.283 22.77Z" fill="#DB0A40"/>
<path d="M153.268 28.551C153.025 28.6348 152.863 28.8862 152.782 29.1375C152.701 29.5565 152.782 29.9754 152.457 30.2268C152.457 30.3106 152.376 30.3943 152.457 30.4781C152.701 30.5619 153.025 30.7295 153.349 30.7295C153.511 30.2268 153.592 29.6403 153.835 29.2213V29.0538C153.673 28.8024 153.511 28.551 153.268 28.551Z" fill="#DB0A40"/>
<path d="M172.883 27.128C173.126 27.4632 173.126 27.8821 173.451 28.1335C173.856 28.2172 174.18 28.0497 174.504 27.7983C174.666 27.6307 174.423 27.4632 174.423 27.2956C174.261 27.0442 174.342 26.5415 173.937 26.5415C173.532 26.6253 173.126 26.6253 172.721 26.6253L172.64 26.7091C172.478 26.8767 172.802 26.8767 172.883 27.128Z" fill="#DB0A40"/>
<path d="M154.646 28.4675C155.051 28.2161 155.295 27.7972 155.538 27.3782C155.538 27.2107 155.376 27.1269 155.214 27.0431C155.133 26.9593 155.051 27.0431 154.889 27.0431C154.646 27.2945 154.322 27.462 153.998 27.7134C153.836 27.7972 153.917 27.9648 153.917 28.1323C153.917 28.2999 154.079 28.3837 154.16 28.4675C154.322 28.5513 154.484 28.5513 154.646 28.4675Z" fill="#DB0A40"/>
<path d="M47.3341 3.91797H55.6013V33.6624H45.9562C45.4699 33.7462 44.9836 33.83 44.3352 33.83C40.931 33.83 37.9321 32.4056 36.3921 28.4676C34.2037 32.657 30.8806 34.2489 27.0712 34.2489C25.6933 34.2489 24.6397 33.9976 23.667 33.6624H0L0.0810515 5.25856H11.5093C15.9671 5.25856 20.1008 8.77762 20.1008 14.4752C20.1008 16.905 18.966 18.8321 18.966 18.8321C20.5871 15.6482 23.8291 14.14 27.0712 14.14C30.3943 14.14 33.8795 15.1454 35.9058 20.424C37.4458 16.486 39.6342 14.2238 44.4973 14.3076C45.632 14.3076 46.1183 14.4752 47.253 14.8103L47.3341 3.91797Z" fill="white"/>
<path d="M96.0464 4.17065H112.419V33.8313H91.7507C90.2917 34.334 88.7518 34.6692 87.617 34.6692C84.9423 34.6692 80.4034 33.7475 79.0256 29.3068C78.053 31.7366 74.0004 33.8313 72.1362 33.8313H58.8438L58.9248 5.67882H69.6236C74.0004 5.67882 78.134 7.85729 78.134 13.6386C78.134 14.0575 78.053 14.6441 77.8909 15.2306H96.0464V4.17065Z" fill="white"/>
<path d="M49.1167 17.9952C47.8199 16.7384 46.1178 15.9005 44.2536 15.9005C40.2821 15.9005 37.04 19.5034 37.04 24.0279C37.04 28.4686 40.2821 32.1553 44.2536 32.1553C46.1178 32.1553 47.8199 31.3174 49.1167 29.9768V31.9877H53.8987V5.59473H49.1167V17.9952ZM45.6315 28.2173C43.6863 28.2173 42.0652 26.4577 42.0652 24.1955C42.0652 22.017 43.6863 20.1737 45.6315 20.1737C47.5767 20.1737 49.1167 22.017 49.1167 24.1955C49.1167 26.3739 47.5767 28.2173 45.6315 28.2173Z" fill="#DB0A40"/>
<path d="M27.071 15.8999C22.6942 15.8999 19.1279 19.5865 19.1279 24.1948C19.1279 28.8031 22.6942 32.4898 27.071 32.4898C30.3941 32.4898 33.0688 30.8978 34.3656 28.468L30.4751 26.6247C29.9888 27.7139 28.7731 28.5518 27.4762 28.468C25.6931 28.468 24.1531 27.1274 24.1531 25.3678C24.1531 25.2841 24.1531 25.2841 24.1531 25.2003H34.7709C34.8519 24.8651 34.8519 24.53 34.8519 24.111C34.8519 18.8325 31.4478 15.8999 27.071 15.8999ZM24.0721 22.4353C24.0721 20.7596 25.3689 19.419 26.9899 19.419C28.611 19.419 29.9078 20.7596 29.9078 22.4353H24.0721Z" fill="#DB0A40"/>
<path d="M18.2362 14.3926C18.2362 10.287 14.9941 7.01929 11.0226 7.01929C10.9415 7.01929 10.2931 7.01929 10.2121 7.01929H1.78271V31.9041H6.88896L6.97001 11.2924H10.05C11.9141 11.2924 13.3731 12.7168 13.3731 14.5601C13.3731 16.3197 11.8331 17.8278 9.96891 17.8278H8.75314V23.7767L13.8594 31.9879H19.8572L12.8057 21.5983C15.8857 20.7604 18.2362 17.8278 18.2362 14.3926Z" fill="#DB0A40"/>
<path d="M74.2431 18.497C75.5399 17.2402 76.3504 15.4806 76.3504 13.6373C76.3504 11.9616 75.702 10.3696 74.5673 9.19659C73.4326 7.85599 71.4063 7.35327 68.6505 7.35327H60.3833V32.1543H71.001C75.0536 32.0705 78.3767 28.8866 78.3767 25.0324C78.4578 22.0998 77.4852 20.0051 74.2431 18.497ZM70.1905 27.7136H65.6516V11.5426H68.8937C70.2716 11.5426 71.4874 12.7157 71.4063 14.2238C71.4063 15.6482 70.2716 16.8212 68.8127 16.8212H67.1106V21.2619H70.1905C71.8926 21.2619 73.1894 22.6863 73.1894 24.4459C73.1084 26.373 72.0547 27.6298 70.1905 27.7136Z" fill="#DB0A40"/>
<path d="M105.934 5.9292V32.1546H110.716L110.797 5.9292H105.934Z" fill="#DB0A40"/>
<path d="M90.3726 25.7872C90.3726 27.2954 89.1569 28.4684 87.6169 28.4684C86.0769 28.4684 84.8611 27.2954 84.8611 25.7872V16.822H80.0791V26.7089C80.0791 30.0604 83.4022 32.8254 87.5358 32.8254C91.6695 32.8254 95.0736 30.1442 95.0736 26.7927V16.9058H90.2916L90.3726 25.7872Z" fill="#DB0A40"/>
<path d="M97.748 32.1546H102.611V5.9292H97.8291L97.748 32.1546Z" fill="#DB0A40"/>
<defs>
<linearGradient id="paint0_linear_249_1963" x1="179.829" y1="26.2336" x2="201.29" y2="24.4174" gradientUnits="userSpaceOnUse">
<stop stop-color="#0084CB"/>
<stop offset="0.4262" stop-color="#0082C9"/>
<stop offset="0.5797" stop-color="#007DC2"/>
<stop offset="0.6891" stop-color="#0073B7"/>
<stop offset="0.7776" stop-color="#0065A6"/>
<stop offset="0.8533" stop-color="#005390"/>
<stop offset="0.9193" stop-color="#003E75"/>
<stop offset="0.9551" stop-color="#002F63"/>
</linearGradient>
<linearGradient id="paint1_linear_249_1963" x1="179.822" y1="26.2033" x2="201.283" y2="24.3871" gradientUnits="userSpaceOnUse">
<stop stop-color="#0084CB"/>
<stop offset="0.4262" stop-color="#0082C9"/>
<stop offset="0.5797" stop-color="#007DC2"/>
<stop offset="0.6891" stop-color="#0073B7"/>
<stop offset="0.7776" stop-color="#0065A6"/>
<stop offset="0.8533" stop-color="#005390"/>
<stop offset="0.9193" stop-color="#003E75"/>
<stop offset="0.9551" stop-color="#002F63"/>
</linearGradient>
</defs>
</svg>
