<svg width="71" height="80" viewBox="0 0 71 80" fill="none" xmlns="http://www.w3.org/2000/svg">
<path d="M68.9168 49.994C68.9168 49.994 68.9168 49.967 68.9168 49.9535C69.2144 48.1958 69.3632 46.3841 69.3632 44.5453C69.3632 42.7065 69.2144 40.8813 68.9168 39.1236V39.0966C68.1457 34.2563 66.2653 29.5511 63.4786 25.468C63.4786 25.468 63.4786 25.4545 63.4786 25.4409C60.4214 20.9522 56.3225 17.2611 51.5607 14.6922C55.6867 13.3942 59.8938 12.6101 59.9614 12.5965C60.1373 12.5695 60.2996 12.4478 60.3808 12.2856C60.462 12.1233 60.4755 11.934 60.3808 11.7583L59.0957 8.98659C59.001 8.78379 58.8116 8.6621 58.5951 8.64858L38.0871 7.60751L37.2619 6.29603C36.5991 5.282 35.9362 4.33557 35.2734 3.48378C33.4742 1.14475 31.1068 1.18531 29.6458 2.22638C28.1984 3.26746 27.3732 5.49832 29.01 7.95904C29.6053 8.85139 30.2952 9.79782 31.0392 10.7578L31.1474 10.893C21.5157 12.0963 12.8444 17.3828 7.35218 25.4545C4.55195 29.5511 2.65807 34.2698 1.90052 39.1236C1.60291 40.8813 1.4541 42.7065 1.4541 44.5453C1.4541 46.3841 1.60291 48.1958 1.90052 49.9535C2.68512 54.8749 4.51136 59.4583 7.32513 63.5685C7.32513 63.5956 7.35218 63.6091 7.36571 63.6226C12.8715 71.7078 21.5833 77.0349 31.2962 78.2111C32.5949 78.3734 33.9341 78.4545 35.4086 78.4545C36.8832 78.4545 38.2224 78.3734 39.5617 78.2111C49.234 77.0349 57.9458 71.7078 63.4651 63.6226C63.4651 63.6091 63.4922 63.582 63.5057 63.5685C66.3195 59.4583 68.1322 54.8884 68.9168 49.9805V49.994ZM50.4109 61.3917C51.209 58.6336 51.8042 55.6996 52.1965 52.617C58.0405 52.1573 63.3163 51.4677 67.6046 50.616C66.8064 54.956 65.1561 58.9986 62.694 62.6762C59.0145 62.1218 54.8885 61.7027 50.4244 61.4053L50.4109 61.3917ZM8.15032 62.6626C5.68827 58.9986 4.03789 54.9425 3.23976 50.6024C7.50099 51.4542 12.7903 52.1438 18.6478 52.6035C19.0266 55.6861 19.6353 58.6336 20.4335 61.3782C15.9693 61.6757 11.8434 62.1083 8.16384 62.6491L8.15032 62.6626ZM8.15032 26.4144C11.911 26.9687 16.037 27.4014 20.4199 27.6853C19.6218 30.457 19.0131 33.4045 18.6478 36.4736C12.7903 36.9333 7.50099 37.6228 3.23976 38.4746C4.03789 34.2022 5.71533 30.0649 8.15032 26.4279V26.4144ZM62.6805 26.4279C65.1155 30.0649 66.7929 34.2022 67.5911 38.4746C63.3163 37.6228 58.027 36.9333 52.183 36.4736C51.8854 34.0264 51.439 31.6062 50.8438 29.2807L50.9114 29.2402L54.6586 27.3608C57.4859 27.104 60.1779 26.7795 62.6805 26.4144V26.4279ZM36.0174 60.905V53.2254C41.1038 53.2254 46.1361 53.0361 50.9926 52.6981C50.6003 55.7267 50.005 58.62 49.2069 61.3106C44.9727 61.0402 40.4951 60.905 36.0174 60.905ZM21.6374 61.3106C20.8393 58.62 20.2441 55.7267 19.8518 52.6981C24.7082 53.0361 29.7405 53.2119 34.827 53.2254V60.905C30.3358 60.905 25.8716 61.0537 21.6374 61.3241V61.3106ZM27.4138 28.0369L26.3721 31.6874C26.318 31.9037 26.3721 32.12 26.5345 32.2823L28.7395 34.3915C28.8477 34.4996 28.9965 34.5537 29.1453 34.5537C29.1724 34.5537 29.1994 34.5537 29.24 34.5537C29.4159 34.5267 29.5782 34.4185 29.6729 34.2563C29.7135 34.1886 32.0673 29.9297 34.8405 26.2386V35.8652C29.6188 35.8652 24.6 36.0545 19.8788 36.3925C20.2576 33.3774 20.8528 30.4841 21.651 27.78C23.5043 27.9017 25.4387 27.9828 27.4273 28.0504L27.4138 28.0369ZM51.1278 37.5823C51.3713 39.8402 51.5066 42.1792 51.5066 44.5453C51.5066 46.9114 51.3713 49.2369 51.1278 51.4948C46.2308 51.8463 41.1309 52.0221 36.0174 52.0356V37.0415C41.2932 37.0415 46.3661 37.2307 51.1414 37.5823H51.1278ZM19.7165 51.5083C19.473 49.2504 19.3377 46.9114 19.3377 44.5588C19.3377 42.2063 19.473 39.8537 19.7165 37.5958C24.4783 37.2443 29.5647 37.0685 34.8405 37.055V52.0491C29.727 52.0491 24.6271 51.8598 19.73 51.5083H19.7165ZM52.3183 37.6769C58.2299 38.1501 63.5598 38.8532 67.8075 39.732C68.051 41.3004 68.1863 42.9228 68.1863 44.5588C68.1863 46.1948 68.051 47.8037 67.8075 49.3721C63.5598 50.2509 58.2299 50.954 52.3318 51.4272C52.5618 49.1828 52.6971 46.8843 52.6971 44.5588C52.6971 42.2333 52.5618 39.9213 52.3318 37.6769H52.3183ZM55.6596 25.5491L50.8302 27.9557L50.235 26.9958C50.235 26.9958 50.1944 26.9011 50.1944 26.8876C50.1538 26.82 50.1133 26.7659 50.0592 26.7119L49.2069 25.3598L55.1591 24.1024C55.5379 24.0213 55.9166 24.2376 56.0384 24.5892C56.1737 24.9542 56.0113 25.3733 55.6596 25.5491ZM49.8157 30.0244C50.3162 32.093 50.7085 34.2157 50.979 36.379C46.2579 36.0409 41.2256 35.8652 36.0039 35.8517V28.1856C38.5471 28.1856 41.1309 28.1315 43.8094 28.0369L41.0497 32.8366C40.5627 33.6749 40.7656 34.7159 41.5232 35.3379C41.8884 35.6353 42.3213 35.7841 42.7542 35.7841C43.2547 35.7841 43.7417 35.5948 44.1205 35.2162L48.3141 31.0925L49.8021 30.0379L49.8157 30.0244ZM43.2953 34.3779C43.0112 34.6483 42.5648 34.6754 42.2537 34.4185C41.9561 34.1751 41.8884 33.7695 42.0778 33.4315L45.1351 28.118L47.1507 30.5922L43.3088 34.3779H43.2953ZM36.0174 27.0093V24.7379C37.2619 23.2506 38.5335 22.0068 39.6834 21.3848L44.107 26.8335C41.3203 26.9417 38.6553 26.9958 36.0174 26.9958V27.0093ZM28.9965 32.9989L27.6032 31.6603L32.9466 13.0698L38.9258 20.4519C35.0569 22.7504 30.3628 30.6193 28.9965 32.9989ZM27.7384 26.8741C25.7634 26.8065 23.8425 26.7254 21.9892 26.6037C24.2889 19.5325 27.8196 14.53 31.8238 12.6506L27.7384 26.8606V26.8741ZM2.75276 41.9899C2.76629 41.7601 2.80687 41.5438 2.83393 41.3139C2.88804 40.7731 2.95568 40.2458 3.03684 39.705C7.27102 38.8262 12.6009 38.1231 18.5125 37.6634C18.2826 39.9078 18.1473 42.2063 18.1473 44.5453C18.1473 46.8843 18.2826 49.1693 18.5125 51.4137C12.6009 50.9404 7.25749 50.2374 3.03684 49.3721C2.95568 48.8448 2.88804 48.3175 2.83393 47.7767C2.80687 47.5468 2.77982 47.317 2.75276 47.0871C2.68512 46.2489 2.64454 45.3971 2.64454 44.5453C2.64454 43.6935 2.68512 42.8417 2.75276 41.9899ZM34.827 62.0813V77.2647C34.4347 77.2377 34.0423 77.1836 33.6636 77.1025C33.6365 77.1025 33.6095 77.1025 33.5824 77.1025C28.9018 75.9938 24.6135 70.5586 22.0027 62.5004C26.1286 62.2435 30.4846 62.1218 34.8405 62.1083L34.827 62.0813ZM37.3025 77.0754C37.3025 77.0754 37.2078 77.0754 37.1672 77.0889C36.7885 77.1836 36.3962 77.2241 36.0174 77.2512V62.0678C40.3733 62.0678 44.7157 62.2165 48.8552 62.4598C46.2173 70.5451 41.9019 75.9938 37.3025 77.0619V77.0754ZM61.923 25.3328C60.3267 25.5626 58.6628 25.7654 56.9312 25.9547C57.2694 25.4545 57.3776 24.792 57.1477 24.1835C56.8095 23.2777 55.849 22.7504 54.9156 22.9532L48.544 24.2917L44.6075 18.0047C45.7573 16.9501 47.8 16.0172 50.0186 15.2195C54.7397 17.5585 58.8251 21.0468 61.9365 25.3328H61.923ZM58.1893 9.83838L59.001 11.596C57.3912 11.9205 53.4817 12.7588 49.8968 14.0162C49.8698 14.0162 49.8562 14.0297 49.8292 14.0432C47.5024 14.868 45.3109 15.855 43.9717 17.0042L38.8717 8.85139L58.2028 9.83838H58.1893ZM30.0111 7.31006C28.8071 5.49832 29.3076 3.94348 30.3493 3.19985C30.7551 2.91592 31.2421 2.74016 31.7832 2.74016C32.6219 2.74016 33.5418 3.15929 34.3535 4.21388C34.9893 5.05215 35.6386 5.97154 36.2744 6.94501L49.8157 28.5777L48.0706 29.8216L31.9997 10.0141C31.2692 9.08123 30.6063 8.17537 30.0246 7.29654L30.0111 7.31006ZM30.1464 12.2315C26.2774 14.6381 22.9496 19.6812 20.7717 26.5226C16.5375 26.2522 12.5603 25.8466 8.9214 25.3193C14.0078 18.3022 21.6239 13.6106 30.1464 12.218V12.2315ZM8.9214 63.7578C12.4927 63.244 16.4699 62.8384 20.7717 62.5545C22.9496 69.4499 26.2504 74.4525 30.1058 76.8591C21.6104 75.4665 13.9943 70.7614 8.90787 63.7578H8.9214ZM40.725 76.8591C44.5804 74.4525 47.8812 69.4499 50.0727 62.5545C54.3745 62.8384 58.3516 63.244 61.923 63.7578C56.8501 70.7614 49.2475 75.4665 40.725 76.8591Z" fill="white" stroke="white" stroke-width="1.5" stroke-miterlimit="10"/>
</svg>
