<svg width="106" height="50" viewBox="0 0 106 50" fill="none" xmlns="http://www.w3.org/2000/svg">
<path d="M54.6763 19.4426H57.694" stroke="white" stroke-width="3" stroke-linecap="round" stroke-linejoin="round"/>
<path d="M67.8395 19.4426H64.8218" stroke="white" stroke-width="3" stroke-linecap="round" stroke-linejoin="round"/>
<path d="M66.3359 19.4426L61.2632 31.5596L56.1904 19.4426" stroke="white" stroke-width="3" stroke-linecap="round" stroke-linejoin="round"/>
<path d="M71.7227 19.4424H74.9242" stroke="white" stroke-width="3" stroke-linecap="round" stroke-linejoin="round"/>
<path d="M71.7227 31.5596H74.9242" stroke="white" stroke-width="3" stroke-linecap="round" stroke-linejoin="round"/>
<path d="M73.3228 19.4424V31.5593" stroke="white" stroke-width="3" stroke-linecap="round" stroke-linejoin="round"/>
<path d="M81.1865 26.3141V19.4316H85.4372C87.3409 19.4316 88.8876 20.9718 88.8876 22.8675C88.8876 24.7631 87.3409 26.3033 85.4372 26.3033H81.1865V31.5486" stroke="white" stroke-width="3" stroke-linecap="round" stroke-linejoin="round"/>
<path d="M79.5854 31.5596H82.787" stroke="white" stroke-width="3" stroke-linecap="round" stroke-linejoin="round"/>
<path d="M81.1863 19.4316H79.0015" stroke="white" stroke-width="3" stroke-linecap="round" stroke-linejoin="round"/>
<path d="M44.7257 12.5923H103.727V17.7083L97.0106 25.3986L103.727 33.9505V37.5371H44.7041" stroke="white" stroke-width="3" stroke-linecap="round" stroke-linejoin="round"/>
<path d="M25.3434 12.5923L29.4102 20.7995L38.5065 22.1135L31.9304 28.5113L33.4771 37.5371L25.3434 33.2719L17.1989 37.5371L18.7564 28.5113L12.1694 22.1135L21.2766 20.7995L25.3434 12.5923Z" stroke="white" stroke-width="3" stroke-linecap="round" stroke-linejoin="round"/>
<path d="M25.3431 48.0383C38.0847 48.0383 48.4138 37.7526 48.4138 25.0646C48.4138 12.3765 38.0847 2.09082 25.3431 2.09082C12.6015 2.09082 2.27246 12.3765 2.27246 25.0646C2.27246 37.7526 12.6015 48.0383 25.3431 48.0383Z" stroke="white" stroke-width="3" stroke-linecap="round" stroke-linejoin="round"/>
</svg>
