<?xml version="1.0" encoding="UTF-8"?>
<svg id="Layer_2" data-name="Layer 2" xmlns="http://www.w3.org/2000/svg" viewBox="0 0 116.06 86.09">
  <defs>
    <style>
      .cls-1 {
        fill: none;
        stroke: #fff;
        stroke-miterlimit: 10;
        stroke-width: 3.62px;
      }
    </style>
  </defs>
  <g id="Layer_1-2" data-name="Layer 1">
    <g>
      <g>
        <path class="cls-1" d="M92.15,49.78c7.96,2.23,12.85,5.27,12.85,8.62,0,6.87-20.61,12.43-46.04,12.43s-46.04-5.57-46.04-12.43c0-1.04.48-2.06,1.38-3.03"/>
        <path class="cls-1" d="M105,71.85c0,6.87-20.61,12.43-46.04,12.43s-46.04-5.57-46.04-12.43v-13.45c0,6.87,20.61,12.43,46.04,12.43s46.04-5.57,46.04-12.43v13.45Z"/>
        <line class="cls-1" x1="95.77" y1="66.43" x2="95.77" y2="79.88"/>
        <line class="cls-1" x1="81.05" y1="70.27" x2="81.05" y2="83.7"/>
        <line class="cls-1" x1="66.33" y1="71.4" x2="66.33" y2="84.82"/>
        <line class="cls-1" x1="51.62" y1="71.2" x2="51.62" y2="84.65"/>
        <line class="cls-1" x1="36.9" y1="69.33" x2="36.9" y2="82.6"/>
        <line class="cls-1" x1="22.18" y1="64.97" x2="22.18" y2="78.43"/>
      </g>
      <g>
        <path class="cls-1" d="M88.88,39.05c-7.62,4.03-23.13,6.79-41.03,6.79-25.43,0-46.04-5.57-46.04-12.43,0-4.29,8.05-8.08,20.3-10.31"/>
        <path class="cls-1" d="M93.89,37.56v9.29c0,6.87-20.61,12.43-46.04,12.43S1.81,53.72,1.81,46.85v-13.45c0,6.87,20.61,12.43,46.04,12.43,18.37,0,34.23-2.91,41.62-7.11"/>
        <line class="cls-1" x1="84.66" y1="41.36" x2="84.66" y2="54.81"/>
        <line class="cls-1" x1="69.94" y1="45.28" x2="69.94" y2="58.71"/>
        <line class="cls-1" x1="55.22" y1="46.41" x2="55.22" y2="59.82"/>
        <line class="cls-1" x1="40.5" y1="46.21" x2="40.5" y2="59.66"/>
        <line class="cls-1" x1="25.78" y1="44.34" x2="25.78" y2="57.6"/>
        <line class="cls-1" x1="11.07" y1="39.98" x2="11.07" y2="53.43"/>
      </g>
      <g>
        <ellipse class="cls-1" cx="68.21" cy="14.24" rx="46.04" ry="12.43"/>
        <path class="cls-1" d="M114.25,27.69c0,6.87-20.61,12.43-46.04,12.43s-46.04-5.57-46.04-12.43v-13.45c0,6.87,20.61,12.43,46.04,12.43s46.04-5.57,46.04-12.43v13.45Z"/>
        <line class="cls-1" x1="105.02" y1="21.77" x2="105.02" y2="35.22"/>
        <line class="cls-1" x1="90.3" y1="26.12" x2="90.3" y2="39.55"/>
        <line class="cls-1" x1="75.58" y1="27.25" x2="75.58" y2="40.66"/>
        <line class="cls-1" x1="60.86" y1="27.05" x2="60.86" y2="40.5"/>
        <line class="cls-1" x1="46.14" y1="25.18" x2="46.14" y2="38.44"/>
        <line class="cls-1" x1="31.42" y1="20.82" x2="31.42" y2="34.27"/>
      </g>
    </g>
  </g>
</svg>