<?xml version="1.0" encoding="UTF-8"?>
<svg id="Layer_2" data-name="Layer 2" xmlns="http://www.w3.org/2000/svg" viewBox="0 0 98.7 95.97">
  <defs>
    <style>
      .cls-1 {
        stroke-linecap: round;
        stroke-linejoin: round;
      }

      .cls-1, .cls-2 {
        fill: none;
        stroke: #fff;
        stroke-width: 3.62px;
      }

      .cls-2 {
        stroke-miterlimit: 10;
      }
    </style>
  </defs>
  <g id="Layer_1-2" data-name="Layer 1">
    <g>
      <path class="cls-1" d="M10.26,43.38h78.18v46.88c0,2.15-1.74,3.89-3.89,3.89H14.15c-2.15,0-3.89-1.74-3.89-3.89v-46.88h0Z"/>
      <rect class="cls-1" x="1.81" y="20.82" width="95.08" height="22.78" rx="1.53" ry="1.53"/>
      <rect class="cls-1" x="39.81" y="20.82" width="19.08" height="73.34"/>
      <g>
        <path class="cls-2" d="M56.23,20.26c-.2-4.1-2.26-8.68-5.97-12.42C43.82,1.35,34.85-.14,30.23,4.52c-3.63,3.66-3.5,10.03-.15,15.74h26.14Z"/>
        <path class="cls-2" d="M68.61,20.26c3.35-5.71,3.49-12.07-.15-15.74-4.62-4.66-13.59-3.17-20.03,3.32-3.71,3.74-5.76,8.31-5.97,12.42h26.14Z"/>
      </g>
    </g>
  </g>
</svg>