<?xml version="1.0" encoding="UTF-8"?>
<svg id="Layer_2" data-name="Layer 2" xmlns="http://www.w3.org/2000/svg" viewBox="0 0 140.78 95.97">
  <defs>
    <style>
      .cls-1 {
        fill: #fff;
      }

      .cls-2 {
        fill: none;
        stroke: #fff;
        stroke-miterlimit: 10;
        stroke-width: 3.62px;
      }
    </style>
  </defs>
  <g id="Layer_1-2" data-name="Layer 1">
    <g>
      <polyline class="cls-2" points="1.81 45.14 1.81 1.81 138.97 1.81 138.97 12.76"/>
      <polyline class="cls-2" points="138.97 36.17 138.97 79.54 1.81 79.54 1.81 68.59"/>
      <g>
        <path class="cls-1" d="M94.57,53.8c0-10.01-3.87-19.42-10.9-26.51-7.03-7.08-16.37-10.98-26.31-10.98-1.22,0-2.21,1-2.21,2.22,0,1.23.99,2.22,2.21,2.22,8.76,0,16.99,3.44,23.19,9.68,6.19,6.24,9.6,14.54,9.61,23.36,0,.61.25,1.17.65,1.57s.95.65,1.56.65c1.22,0,2.21-1,2.21-2.22Z"/>
        <path class="cls-1" d="M77.06,33.95c-5-5.04-11.66-7.82-18.75-7.83-1.22,0-2.21.99-2.21,2.22,0,.61.25,1.17.65,1.57s.95.65,1.56.65c5.91,0,11.46,2.32,15.63,6.52,4.17,4.2,6.47,9.8,6.47,15.75,0,1.23.99,2.22,2.21,2.22,1.22,0,2.21-1,2.21-2.22,0-7.14-2.76-13.84-7.77-18.89Z"/>
        <path class="cls-1" d="M70.67,40.4c-3.29-3.32-7.67-5.15-12.33-5.15-1.22,0-2.21,1-2.21,2.22,0,1.23.99,2.22,2.21,2.22,3.48,0,6.75,1.36,9.21,3.84,2.46,2.48,3.81,5.77,3.81,9.28,0,.61.25,1.17.65,1.57s.95.65,1.56.65c1.22,0,2.21-1,2.21-2.22,0-4.69-1.82-9.1-5.11-12.42Z"/>
        <path class="cls-1" d="M64.04,47.07c-1.91-1.93-5.02-1.93-6.94,0-1.91,1.93-1.91,5.06,0,6.99,1.91,1.93,5.02,1.93,6.94,0,1.91-1.93,1.91-5.06,0-6.99Z"/>
      </g>
      <polygon class="cls-2" points="81.85 94.16 78.98 79.54 61.8 79.54 58.93 94.16 81.85 94.16"/>
    </g>
  </g>
</svg>