<?xml version="1.0" encoding="UTF-8"?>
<svg id="Layer_2" data-name="Layer 2" xmlns="http://www.w3.org/2000/svg" viewBox="0 0 109.68 95.97">
  <defs>
    <style>
      .cls-1 {
        stroke-linecap: round;
        stroke-linejoin: round;
      }

      .cls-1, .cls-2 {
        fill: none;
        stroke: #fff;
        stroke-width: 3.62px;
      }

      .cls-2 {
        stroke-miterlimit: 10;
      }
    </style>
  </defs>
  <g id="Layer_1-2" data-name="Layer 1">
    <g>
      <line class="cls-2" x1="23.02" y1="37.33" x2="23.02" y2="94.16"/>
      <line class="cls-2" x1="86.66" y1="37.33" x2="86.66" y2="94.16"/>
      <line class="cls-1" x1="23.02" y1="94.16" x2="86.66" y2="94.16"/>
      <line class="cls-1" x1="1.81" y1="37.33" x2="23.02" y2="51.53"/>
      <path class="cls-1" d="M54.84,16.02c-9.76,0-13.24-7.1-17.68-14.21"/>
      <path class="cls-1" d="M54.84,16.02c9.76,0,13.24-7.1,17.68-14.21"/>
      <line class="cls-1" x1="1.81" y1="37.33" x2="15.95" y2="8.91"/>
      <path class="cls-1" d="M15.95,8.91S25.44,1.81,37.16,1.81"/>
      <line class="cls-1" x1="107.87" y1="37.33" x2="86.66" y2="51.53"/>
      <line class="cls-1" x1="107.87" y1="37.33" x2="93.73" y2="8.91"/>
      <path class="cls-1" d="M93.73,8.91s-9.49-7.1-21.21-7.1"/>
      <line class="cls-1" x1="37.16" y1="1.81" x2="72.52" y2="1.81"/>
      <polygon class="cls-1" points="54.84 31.09 60.3 42.21 72.52 44 63.68 52.65 65.76 64.87 54.84 59.1 43.91 64.87 46 52.65 37.16 44 49.38 42.21 54.84 31.09"/>
    </g>
  </g>
</svg>