<?xml version="1.0" encoding="UTF-8"?>
<svg id="Layer_2" data-name="Layer 2" xmlns="http://www.w3.org/2000/svg" viewBox="0 0 131.37 95.88">
  <defs>
    <style>
      .cls-1 {
        fill: #fff;
      }

      .cls-2 {
        fill: #606060;
      }

      .cls-3 {
        stroke-dasharray: 8.39 8.39;
      }

      .cls-3, .cls-4, .cls-5 {
        fill: none;
        stroke: #fff;
        stroke-miterlimit: 10;
        stroke-width: 3.62px;
      }

      .cls-4 {
        stroke-dasharray: 4.81 4.81;
      }
    </style>
  </defs>
  <g id="Layer_1-2" data-name="Layer 1">
    <g>
      <g>
        <path class="cls-5" d="M114.47,26.16c-2.16-.64-3.87-2.47-4.26-4.85-.53-3.3,1.7-6.42,4.98-6.95.05,0,.1,0,.15,0l-1.98-12.28L8.79,19.12l1.15,7.16"/>
        <g>
          <line class="cls-2" x1="97.7" y1="4.63" x2="101.19" y2="26.29"/>
          <g>
            <line class="cls-5" x1="97.7" y1="4.63" x2="98.3" y2="8.33"/>
            <line class="cls-4" x1="99.07" y1="13.08" x2="100.21" y2="20.21"/>
            <line class="cls-5" x1="100.6" y1="22.58" x2="101.19" y2="26.29"/>
          </g>
        </g>
      </g>
      <path class="cls-5" d="M129.38,79.09c-4.01,0-7.26-3.27-7.26-7.31s3.25-7.31,7.26-7.31c.06,0,.12.02.18.02v-8.64c-.06,0-.12.02-.18.02-4.01,0-7.26-3.27-7.26-7.31s3.25-7.31,7.26-7.31c.06,0,.12.02.18.02v-15H1.81v15c.06,0,.12-.02.18-.02,4.01,0,7.26,3.27,7.26,7.31s-3.25,7.31-7.26,7.31c-.06,0-.12-.02-.18-.02v8.64c.06,0,.12-.02.18-.02,4.01,0,7.26,3.27,7.26,7.31s-3.25,7.31-7.26,7.31c-.06,0-.12-.02-.18-.02v15h127.75v-15c-.06,0-.12.02-.18.02Z"/>
      <g>
        <line class="cls-5" x1="110.42" y1="26.29" x2="110.42" y2="30.81"/>
        <line class="cls-3" x1="110.42" y1="39.2" x2="110.42" y2="85.35"/>
        <line class="cls-5" x1="110.42" y1="89.55" x2="110.42" y2="94.07"/>
      </g>
      <g>
        <path class="cls-1" d="M65.16,60.26c-1.82-1.01-3.96-1.48-6.09-1.38-1.56.07-3.1.44-4.5,1.12-.57.26-1.11.56-1.62.9l.2-19.71c-.44.09-.88.19-1.32.3-1.64.41-3.25.91-4.81,1.5l-.13,13.43c-.03,3.31.56,6.49,1.67,9.4,1.02,2.68,2.47,5.15,4.27,7.31,0,0,0,0,0,.01l.16-.11c-.31-2.51.36-5.15,1.98-7.15,1.05-1.36,2.47-2.4,4.06-3.06l-.13,12.82-.03,2.8v.03c.21.12.42.24.63.35.72.42,1.46.82,2.22,1.17.06.03.12.06.18.08.06-.03.12-.05.18-.08.07-.03.13-.06.2-.09.93-.42,1.82-.89,2.69-1.41l.03-2.73.14-13.67c.95.15,1.87.41,2.79.75l.11-.14c-.78-1.02-1.77-1.84-2.88-2.46"/>
        <path class="cls-1" d="M72.77,41.7c-.43-.12-.87-.23-1.31-.33l-.09,9.57c-1.92-.79-4.03-1.13-6.1-1.01l.09-9.52c-1.01-.08-2.03-.13-3.05-.14s-2.05.02-3.05.08l-.11,11.45c-1.24.77-2.34,1.77-3.2,3.01l.11.16c1-.45,2.03-.79,3.07-1.01,2.06-.43,4.15-.4,6.11.09,2.34.59,4.46,1.85,6.07,3.78l-.14,14.34v.82s.17.1.17.1c3.74-4.41,6.03-10.12,6.09-16.38v-1.09s.13-12.33.13-12.33c-1.55-.62-3.14-1.16-4.78-1.6"/>
      </g>
    </g>
  </g>
</svg>