<svg width="29" height="28" viewBox="0 0 29 28" fill="none" xmlns="http://www.w3.org/2000/svg">
<g clip-path="url(#clip0_397_2156)">
<path d="M28.916 14.0513C28.916 6.29106 22.6564 0 14.935 0C7.21365 0 0.954102 6.29106 0.954102 14.0513C0.954102 20.6408 5.46827 26.1703 11.5578 27.689V18.3454H8.67494V14.0513H11.5578V12.201C11.5578 7.41853 13.7114 5.2018 18.3833 5.2018C19.2691 5.2018 20.7975 5.3766 21.4228 5.55083V9.44305C21.0928 9.4082 20.5196 9.39078 19.8077 9.39078C17.5154 9.39078 16.6295 10.2636 16.6295 12.5327V14.0513H21.1963L20.4117 18.3454H16.6295V27.9998C23.5523 27.1595 28.9165 21.2355 28.9165 14.0513H28.916Z" fill="white"/>
<path d="M20.4115 18.2786L21.1961 14.0002H16.6294V12.4871C16.6294 10.2264 17.5152 9.35675 19.8075 9.35675C20.5195 9.35675 21.0927 9.37411 21.4226 9.40883V5.53086C20.7974 5.3567 19.269 5.18311 18.3832 5.18311C13.7113 5.18311 11.5577 7.39173 11.5577 12.1567V14.0002H8.6748V18.2786H11.5577V27.588C12.6392 27.8568 13.7706 28.0001 14.9349 28.0001C15.5081 28.0001 16.0735 27.9648 16.6288 27.8976V18.2786H20.411H20.4115Z" fill="#0028F0"/>
</g>
<defs>
<clipPath id="clip0_397_2156">
<rect width="27.9619" height="27.9998" fill="white" transform="translate(0.954102)"/>
</clipPath>
</defs>
</svg>
