<svg width="29" height="28" viewBox="0 0 29 28" fill="none" xmlns="http://www.w3.org/2000/svg">
<g clip-path="url(#clip0_397_2154)">
<path d="M14.4477 2.52107C18.1833 2.52107 18.6256 2.53748 20.0947 2.6031C21.4601 2.66326 22.1973 2.89295 22.6888 3.08435C23.3387 3.33591 23.8084 3.64216 24.2945 4.12887C24.786 4.62106 25.0864 5.0859 25.3376 5.73667C25.5287 6.22886 25.7581 6.9726 25.8182 8.33431C25.8837 9.81086 25.9001 10.2538 25.9001 13.989C25.9001 17.7296 25.8837 18.1725 25.8182 19.6436C25.7581 21.0108 25.5287 21.7491 25.3376 22.2412C25.0864 22.892 24.7805 23.3623 24.2945 23.849C23.803 24.3412 23.3387 24.642 22.6888 24.8936C22.1973 25.085 21.4546 25.3146 20.0947 25.3748C18.6202 25.4404 18.1778 25.4568 14.4477 25.4568C10.7122 25.4568 10.2698 25.4404 8.80075 25.3748C7.43542 25.3146 6.69815 25.085 6.20663 24.8936C5.55673 24.642 5.08706 24.3358 4.60101 23.849C4.10949 23.3569 3.80912 22.892 3.5579 22.2412C3.36675 21.7491 3.13738 21.0053 3.0773 19.6436C3.01177 18.167 2.99538 17.7241 2.99538 13.989C2.99538 10.2484 3.01177 9.80539 3.0773 8.33431C3.13738 6.96713 3.36675 6.22886 3.5579 5.73667C3.80912 5.0859 4.11495 4.61559 4.60101 4.12887C5.09252 3.63669 5.55673 3.33591 6.20663 3.08435C6.69815 2.89295 7.44088 2.66326 8.80075 2.6031C10.2698 2.53748 10.7122 2.52107 14.4477 2.52107ZM14.4477 0C10.6521 0 10.177 0.0164061 8.68606 0.0820306C7.20059 0.147655 6.17932 0.388278 5.29459 0.732807C4.37163 1.09374 3.59066 1.56952 2.81516 2.35154C2.03419 3.1281 1.55906 3.91013 1.19861 4.82887C0.85455 5.72027 0.614252 6.73745 0.548716 8.22494C0.483181 9.72336 0.466797 10.1991 0.466797 13.9999C0.466797 17.8006 0.483181 18.2764 0.548716 19.7694C0.614252 21.2569 0.85455 22.2795 1.19861 23.1654C1.55906 24.0897 2.03419 24.8717 2.81516 25.6482C3.59066 26.4248 4.37163 26.906 5.28913 27.2615C6.17932 27.606 7.19512 27.8467 8.6806 27.9123C10.1715 27.9779 10.6467 27.9943 14.4423 27.9943C18.2379 27.9943 18.713 27.9779 20.204 27.9123C21.6894 27.8467 22.7107 27.606 23.5954 27.2615C24.5129 26.906 25.2939 26.4248 26.0694 25.6482C26.8449 24.8717 27.3255 24.0897 27.6805 23.1709C28.0245 22.2795 28.2648 21.2623 28.3304 19.7748C28.3959 18.2819 28.4123 17.8061 28.4123 14.0054C28.4123 10.2046 28.3959 9.72883 28.3304 8.23587C28.2648 6.74839 28.0245 5.72574 27.6805 4.83981C27.3364 3.91013 26.8613 3.1281 26.0803 2.35154C25.3048 1.57499 24.5238 1.09374 23.6063 0.738276C22.7162 0.393747 21.7004 0.153124 20.2149 0.0874993C18.7185 0.0164061 18.2433 0 14.4477 0Z" fill="white"/>
<path d="M14.4472 6.80859C10.4823 6.80859 7.26562 10.0297 7.26562 13.9999C7.26562 17.9702 10.4823 21.1913 14.4472 21.1913C18.4121 21.1913 21.6289 17.9702 21.6289 13.9999C21.6289 10.0297 18.4121 6.80859 14.4472 6.80859ZM14.4472 18.6648C11.875 18.6648 9.78875 16.5757 9.78875 13.9999C9.78875 11.4242 11.875 9.33514 14.4472 9.33514C17.0195 9.33514 19.1057 11.4242 19.1057 13.9999C19.1057 16.5757 17.0195 18.6648 14.4472 18.6648Z" fill="white"/>
<path d="M23.5896 6.52411C23.5896 7.45379 22.8359 8.20301 21.9129 8.20301C20.9845 8.20301 20.2363 7.44832 20.2363 6.52411C20.2363 5.59443 20.99 4.84521 21.9129 4.84521C22.8359 4.84521 23.5896 5.5999 23.5896 6.52411Z" fill="white"/>
</g>
<defs>
<clipPath id="clip0_397_2154">
<rect width="27.9619" height="27.9998" fill="white" transform="translate(0.466797)"/>
</clipPath>
</defs>
</svg>
