<svg width="30" height="28" viewBox="0 0 30 28" fill="none" xmlns="http://www.w3.org/2000/svg">
<path d="M26.9554 20.6258C22.6254 18.5262 21.9352 15.2846 21.9045 15.0441C21.8674 14.7529 21.8252 14.5239 22.146 14.2276C22.4553 13.9414 23.8277 13.0905 24.2085 12.8243C24.8379 12.3835 25.1151 11.9434 24.9108 11.4024C24.7679 11.0282 24.42 10.8872 24.0535 10.8872C23.9379 10.8876 23.8226 10.9005 23.7098 10.9258C23.0183 11.0761 22.3467 11.4232 21.9581 11.5169C21.9114 11.529 21.8634 11.5355 21.8152 11.5363C21.608 11.5363 21.5294 11.4439 21.5494 11.1942C21.598 10.4371 21.7009 8.95938 21.5816 7.57899C21.418 5.67979 20.8064 4.73878 20.0813 3.90654C19.7305 3.50294 18.1017 1.76904 14.9582 1.76904C11.8148 1.76904 10.1881 3.50294 9.83944 3.90153C9.11216 4.73377 8.50134 5.67478 8.33917 7.57398C8.21986 8.95437 8.32702 10.4314 8.37131 11.1892C8.3856 11.4268 8.31273 11.5312 8.10555 11.5312C8.05733 11.5304 8.00938 11.5239 7.96267 11.5119C7.57474 11.4182 6.90319 11.0711 6.21163 10.9208C6.09883 10.8955 5.9836 10.8825 5.868 10.8822C5.50007 10.8822 5.15358 11.0253 5.0107 11.3974C4.80637 11.9384 5.08214 12.3785 5.71368 12.8193C6.09447 13.0855 7.46686 13.9357 7.77621 14.2226C8.09626 14.5189 8.05483 14.7479 8.01768 15.0391C7.98696 15.2831 7.29612 18.5248 2.96675 20.6208C2.71313 20.7439 2.28163 21.0043 3.04248 21.4251C4.23698 22.0863 5.03213 22.0155 5.6501 22.4141C6.17448 22.7525 5.86443 23.4825 6.24592 23.7458C6.71458 24.07 8.09984 23.7229 9.88945 24.3147C11.3897 24.8099 12.3013 26.2089 14.9618 26.2089C17.6223 26.2089 18.5603 24.8035 20.0342 24.3147C21.8202 23.7229 23.2083 24.07 23.6777 23.7458C24.0585 23.4825 23.7491 22.7525 24.2735 22.4141C24.8915 22.0155 25.6859 22.0863 26.8811 21.4251C27.6406 21.0093 27.2091 20.7489 26.9554 20.6258Z" fill="white"/>
<path d="M28.8404 20.3802C28.6461 19.8506 28.276 19.5673 27.8545 19.3325C27.7752 19.286 27.7024 19.2488 27.6402 19.2202C27.5145 19.1551 27.3859 19.0921 27.258 19.0256C25.9442 18.3278 24.9183 17.4477 24.2067 16.4043C24.0047 16.1106 23.8294 15.7992 23.6831 15.474C23.6223 15.3001 23.6252 15.2014 23.6688 15.1112C23.712 15.0418 23.7692 14.9821 23.8367 14.9359C24.0624 14.7863 24.2953 14.6346 24.4532 14.5323C24.7347 14.3498 24.9576 14.2053 25.1012 14.103C25.6406 13.7251 26.0178 13.3237 26.2535 12.875C26.418 12.565 26.5139 12.2232 26.5348 11.8727C26.5556 11.5223 26.5009 11.1715 26.3743 10.8441C26.0171 9.90239 25.129 9.31774 24.0531 9.31774C23.8262 9.31753 23.5999 9.34152 23.378 9.3893C23.3187 9.40218 23.2594 9.41578 23.2015 9.43081C23.2115 8.78677 23.1973 8.10695 23.1401 7.43786C22.9372 5.08569 22.1149 3.85271 21.2576 2.86948C20.7086 2.25334 20.062 1.73208 19.3437 1.32665C18.0427 0.582426 16.5675 0.20459 14.9593 0.20459C13.3512 0.20459 11.883 0.582426 10.5807 1.32665C9.86061 1.7322 9.21266 2.25451 8.66316 2.87234C7.80586 3.85558 6.98357 5.0907 6.78067 7.44073C6.72352 8.10981 6.70923 8.79321 6.71852 9.43367C6.66065 9.41864 6.60207 9.40505 6.54277 9.39217C6.32091 9.34438 6.09459 9.32039 5.86765 9.32061C4.79102 9.32061 3.90157 9.90525 3.5458 10.847C3.41863 11.1745 3.36333 11.5255 3.38367 11.8763C3.40401 12.2271 3.49951 12.5695 3.66367 12.88C3.90015 13.3287 4.27736 13.7301 4.81674 14.108C4.95963 14.2081 5.18324 14.3527 5.46472 14.5373C5.61689 14.6361 5.83907 14.7806 6.05697 14.9252C6.13321 14.9745 6.198 15.0397 6.24701 15.1162C6.29273 15.21 6.29416 15.3109 6.22629 15.4969C6.08193 15.8153 5.90955 16.1202 5.71119 16.4079C5.01535 17.4276 4.01945 18.2921 2.74779 18.9841C2.0741 19.3419 1.37397 19.5809 1.0782 20.3859C0.855303 20.9935 1.00104 21.6847 1.56758 22.2672C1.7755 22.4846 2.01666 22.6675 2.28199 22.8089C2.83409 23.1128 3.42115 23.3481 4.03017 23.5095C4.15585 23.542 4.27516 23.5954 4.38309 23.6676C4.58956 23.8487 4.56027 24.1213 4.83532 24.5206C4.97339 24.727 5.14882 24.9057 5.35256 25.0473C5.9298 25.4466 6.57849 25.4717 7.26576 25.4981C7.88659 25.5218 8.59029 25.549 9.39401 25.8144C9.72693 25.9246 10.0727 26.1379 10.4735 26.3869C11.4358 26.9794 12.7532 27.7902 14.9579 27.7902C17.1626 27.7902 18.4893 26.9751 19.4587 26.3805C19.8566 26.1357 20.2003 25.9246 20.5239 25.8173C21.3276 25.5511 22.0313 25.5246 22.6522 25.501C23.3394 25.4745 23.9881 25.4495 24.5654 25.0502C24.8066 24.8817 25.0077 24.6617 25.154 24.4061C25.3519 24.0691 25.3469 23.8337 25.5327 23.6691C25.6339 23.6003 25.746 23.549 25.8642 23.5174C26.4815 23.3555 27.0766 23.118 27.6359 22.8104C27.9178 22.6589 28.1716 22.4599 28.3861 22.2221L28.3932 22.2136C28.9247 21.6439 29.0583 20.9727 28.8404 20.3802ZM26.8808 21.435C25.6856 22.0962 24.8911 22.0253 24.2732 22.4239C23.7481 22.7624 24.0588 23.4923 23.6773 23.7557C23.2087 24.0798 21.8234 23.7328 20.0338 24.3246C18.5578 24.8133 17.6162 26.2188 14.9615 26.2188C12.3067 26.2188 11.3872 24.8162 9.88696 24.321C8.10092 23.7292 6.71281 24.0763 6.24343 23.7521C5.86265 23.4887 6.17199 22.7588 5.64761 22.4204C5.02892 22.0218 4.23449 22.0926 3.03999 21.435C2.27914 21.0142 2.71064 20.7537 2.96426 20.6306C7.29362 18.5311 7.98447 15.2894 8.01519 15.049C8.05234 14.7577 8.09377 14.5287 7.77371 14.2325C7.46437 13.9462 6.09198 13.0954 5.71119 12.8292C5.08108 12.3884 4.80388 11.9483 5.00821 11.4073C5.15109 11.033 5.49972 10.8921 5.86551 10.8921C5.98111 10.8924 6.09633 10.9054 6.20914 10.9307C6.9007 11.081 7.57225 11.428 7.96018 11.5218C8.00689 11.5338 8.05484 11.5403 8.10306 11.5411C8.31024 11.5411 8.38311 11.4366 8.36882 11.1991C8.32453 10.4412 8.21737 8.96424 8.33667 7.58385C8.50028 5.68465 9.1111 4.74363 9.83695 3.91139C10.1856 3.51137 11.8237 1.77748 14.9565 1.77748C18.0892 1.77748 19.7316 3.50422 20.0803 3.90281C20.8068 4.73505 21.4184 5.67606 21.5805 7.57526C21.6998 8.95565 21.597 10.4334 21.5484 11.1905C21.5319 11.4402 21.607 11.5325 21.8141 11.5325C21.8624 11.5317 21.9103 11.5253 21.957 11.5132C22.3457 11.4195 23.0172 11.0724 23.7088 10.9221C23.8216 10.8968 23.9368 10.8838 24.0524 10.8835C24.4203 10.8835 24.7668 11.0266 24.9097 11.3987C25.114 11.9397 24.8383 12.3798 24.2074 12.8206C23.8267 13.0868 22.4543 13.9369 22.1449 14.2239C21.8241 14.5201 21.8663 14.7491 21.9034 15.0404C21.9342 15.2844 22.6243 18.5261 26.9544 20.6221C27.2101 20.7502 27.6416 21.0106 26.8808 21.435Z" fill="#0028F0" stroke="#0028F0" stroke-width="0.28"/>
</svg>
