<svg width="29" height="28" viewBox="0 0 29 28" fill="none" xmlns="http://www.w3.org/2000/svg">
<path d="M0.735352 27.9998L2.70084 20.8097C1.48799 18.705 0.850694 16.3192 0.851859 13.8727C0.855355 6.22412 7.07105 0 14.7081 0C18.4143 0.00116666 21.8932 1.44666 24.5099 4.0693C27.1255 6.69195 28.5656 10.1779 28.5644 13.8856C28.5609 21.5353 22.3452 27.7595 14.7081 27.7595C12.3896 27.7583 10.1049 27.1761 8.08117 26.0701L0.735352 27.9998ZM8.42137 23.5583C10.374 24.7191 12.2382 25.4145 14.7035 25.4156C21.0508 25.4156 26.2214 20.2427 26.2249 13.8832C26.2273 7.51094 21.0811 2.34498 14.7128 2.34265C8.36079 2.34265 3.19367 7.51561 3.19134 13.8739C3.19017 16.4697 3.9498 18.4134 5.22556 20.4468L4.06165 24.7028L8.42137 23.5583ZM21.6881 17.1837C21.6019 17.039 21.3712 16.9527 21.024 16.7789C20.678 16.605 18.9758 15.7662 18.6578 15.6507C18.3409 15.5352 18.1102 15.4769 17.8783 15.8245C17.6476 16.171 16.9835 16.9527 16.782 17.1837C16.5804 17.4147 16.3777 17.4439 16.0317 17.27C15.6856 17.0962 14.5695 16.731 13.2471 15.5492C12.2184 14.6299 11.5228 13.4947 11.3213 13.1471C11.1197 12.8006 11.3003 12.6127 11.4727 12.4401C11.6288 12.2849 11.8187 12.0352 11.9923 11.8322C12.1683 11.6316 12.2254 11.4869 12.3419 11.2547C12.4572 11.0237 12.4001 10.8207 12.3127 10.6469C12.2254 10.4743 11.5333 8.76743 11.2455 8.07327C10.9636 7.39778 10.6781 7.48877 10.4661 7.47827L9.80199 7.46661C9.57131 7.46661 9.19615 7.55294 8.87925 7.9006C8.56235 8.24827 7.66757 9.08593 7.66757 10.7927C7.66757 12.4996 8.90838 14.1481 9.08081 14.3791C9.25441 14.6101 11.5216 18.1124 14.9947 19.6138C15.8208 19.9708 16.4662 20.1843 16.9684 20.3442C17.7979 20.6078 18.5529 20.5705 19.1494 20.4818C19.8147 20.3827 21.1976 19.643 21.4866 18.8334C21.7755 18.0225 21.7755 17.3284 21.6881 17.1837Z" fill="white"/>
</svg>
