<svg width="29" height="28" viewBox="0 0 29 28" fill="none" xmlns="http://www.w3.org/2000/svg">
<g clip-path="url(#clip0_397_2153)">
<path d="M27.6263 7.21621C27.4682 6.62053 27.1566 6.07687 26.7228 5.63965C26.2889 5.20243 25.748 4.88698 25.1542 4.72486C22.9681 4.13623 14.23 4.13623 14.23 4.13623C14.23 4.13623 5.49188 4.13623 3.30577 4.72486C2.71192 4.88698 2.17101 5.20243 1.73716 5.63965C1.30332 6.07687 0.991767 6.62053 0.833681 7.21621C0.249024 9.41483 0.249023 13.9998 0.249023 13.9998C0.249023 13.9998 0.249024 18.5848 0.833681 20.7834C0.991767 21.3791 1.30332 21.9227 1.73716 22.3599C2.17101 22.7971 2.71192 23.1126 3.30577 23.2747C5.49188 23.8633 14.23 23.8633 14.23 23.8633C14.23 23.8633 22.9681 23.8633 25.1542 23.2747C25.748 23.1126 26.2889 22.7971 26.7228 22.3599C27.1566 21.9227 27.4682 21.3791 27.6263 20.7834C28.2109 18.5848 28.2109 13.9998 28.2109 13.9998C28.2109 13.9998 28.2109 9.41483 27.6263 7.21621Z" fill="white"/>
<path d="M11.3711 18.1632V9.83643L18.6793 13.9998L11.3711 18.1632Z" fill="#0028F0"/>
</g>
<defs>
<clipPath id="clip0_397_2153">
<rect width="27.9619" height="27.9998" fill="white" transform="translate(0.22168)"/>
</clipPath>
</defs>
</svg>
